<svg version="1.1" class="sleeve-left" id="R1070_Zip_Hoodie_Fleece_Left_A" xmlns="http://www.w3.org/2000/svg" xmlns:xlink="http://www.w3.org/1999/xlink" viewBox="0 0 2048 2048" width="2048" height="2048">
<g id="custom-color-swatches">
	<g id="Group_R1070_Rib" link="rib">
		<g id="Pattern_R1070_Rib_001">
			<path id="Option_R1070_Rib_001_3" d="M976.4,1917.6c-2.8,0-5.6-0.3-8.3-0.8c-7.5-1.3-33.5-9.9-44.3-13.9
				c-9.9-3.6-36.3-17.5-46.1-24.6c-5.8-4.2-10.6-9.6-14.1-15.8l-0.3-0.5l0.3-0.5c1.1-1.8,1.9-3.1,2.5-4.2l0.3-0.6
				c3.4-6.8,6-12.5,7.8-16.9c-7.2-2.3-15.8-6.6-19.6-8.5l-0.6-0.3c-4.9-2.4-17.4-12.9-21.4-16.4c-2.7-2.1-5.8-3.8-9-4.9l-0.5-0.2
				l-0.6-3.2c-1-5.3-1.8-10.1-2.5-13.7c-0.2-1.2-0.5-2.8-0.9-4.7l-0.4-1.7l1.7,0.6c7.5,2.6,14.2,5.9,18.3,9
				c5.5,4.2,18,12.5,27.9,16.9c3.1,1.4,7.1,2.9,11.7,4.6l0.7,0.2l0.1,5.3v3.3c0,1-0.1,1.9-0.1,2.8v0.2c0,0.4,0,0.8-0.1,1.2v0.1
				c0,0.4,0,0.7-0.1,1.1v0.1c0,0.3-0.1,0.7-0.1,1v0.2c-0.1,0.4-0.1,0.7-0.2,0.9c-0.5,2-1.2,3.9-1.9,5.8l-0.1,0.2
				c1,4.1,2.8,9.2,8.2,13.1c8.2,5.9,35,21,45.1,24.4c2.7,0.9,5.1,1.8,7.3,2.6c6.4,2.3,12,4.2,19.5,6.2c2,0.5,4.4,1.3,7.3,2.1
				c7.9,2.4,17.7,5.5,24.9,5.5c1.8,0.1,3.6-0.2,5.2-0.8l2.9-1.1l-1.7,2.6c-3.8,5.9-9.2,14.5-13.4,22.3l-0.2,0.4l-0.4,0.1
				C979.6,1917.5,978,1917.6,976.4,1917.6z M1188.3,1847.8c-12.9,0-26.8-0.2-39.1-0.4c-10-0.1-18.7-0.3-25.2-0.3
				c-19,0-45.2-0.2-62.1-1.5c-4.8-0.3-10-0.5-15.9-0.5c-3.7,0-7.6,0.1-12.2,0.2h-1.3l0.4-1.5c0.1-0.2,0.1-0.5,0.2-0.8l0.4-2
				c1.1-5.6,2.1-10.8,3.5-14.3c0.4-1,1.2-3,2.1-5.3l0.2-0.6h0.7c6.5-0.3,11.4-0.5,15.4-0.5c2.2,0,3.9,0.1,5.3,0.2l2.1,0.2
				c3.9,0.4,4.2,0.4,15.1,0.7h4c4.3,0,9.8-0.1,15.7-0.2c7-0.1,15-0.3,22.6-0.3s13.6,0.2,18.4,0.5c16,1,53.6,3,68.4,3h2.6
				c11.2-0.3,44.4-3.1,52.9-6.4c3.5-1.3,10.4-3.6,17.1-5.8l3.1-1l-0.6,1.9c0,0.1-3.7,11.5-7.8,23.7l-0.1,0.4l-0.4,0.2
				c-16.7,7.7-41.6,9.5-61.4,10.2C1205.7,1847.8,1197.9,1847.8,1188.3,1847.8z" fill="#98989A" fill-rule="evenodd"></path>
			<path id="Option_R1070_Rib_001_2" d="M971.2,1938c-2.5,0-5.1-0.3-7.6-0.6l-2.2-0.3c-4.1-0.4-15.2-4.1-25.1-7.3
				c-5.3-1.8-10.3-3.4-13.5-4.3c-9.4-2.7-37.7-16.7-48.3-23.4c-9.1-5.7-17.9-13.1-23-19.2l-0.5-0.6l0.5-0.6c1.9-2.7,3.9-5.8,4.5-8.4
				v-0.2l0.2-0.2c1.1-1.3,2.1-2.7,2.9-4.2c0.1-0.1,0.2-0.3,0.2-0.5l0.4-0.6l0.4-0.6l0.4-0.7c0.4-0.6,0.9-1.3,1.3-2.1
				c0.6-0.9,1.2-1.8,1.8-2.8l0.9-1.4l0.8,1.4c3.4,6,8,11.1,13.5,15.2c9.7,7,35.9,20.7,45.6,24.3c10.4,3.8,36.7,12.5,44,13.8
				c2.6,0.5,5.3,0.8,8,0.8c1.4,0,2.8-0.1,4.2-0.4l2.2-0.5l-1,1.9c-3.2,5.9-5.2,10.4-6,13.4c-0.5,2.1-1.1,4.4-1.6,7.2l-0.2,0.8
				l-0.8,0.1C972.6,1938,971.9,1938,971.2,1938z M988.7,1895.6c-7.5,0-17.5-3.1-25.5-5.6c-2.8-0.9-5.2-1.6-7.2-2.1
				c-7.6-2-13.2-3.9-19.7-6.2c-2.3-0.8-4.7-1.7-7.3-2.6c-10.6-3.6-37.3-18.7-45.6-24.7c-4-2.9-6.9-7-8.3-11.7
				c-2.7,6.2-6,13-7.3,15.4l-1.2,2.2l-0.9-0.5c-6.5-3.4-17-10-20.9-13.3c-0.9-0.7-2.1-1.7-3.5-2.9c-4.2-3.4-9.8-8-14-12.2
				c-0.4-0.1-0.5-0.6-0.9-2.7c-0.7-4.1-2.4-13.8-3.5-19.8l-0.3-1.8l1.7,0.6c3.5,1.2,6.7,3,9.6,5.2c4,3.4,16.3,13.8,21,16.1l0.6,0.3
				c3.8,1.9,12.4,6.2,19.4,8.4c0.6-1.5,1.1-3.1,1.5-4.6c0.6-3.5,0.8-7,0.6-10.5v-3.6l1.9,3.1c2.4,4.2,5.6,8,9.3,11.1
				c4.1,3.2,11.3,6,18.2,8.7c4.3,1.7,8.8,3.4,12.6,5.3c4.3,2.3,8.5,5,12.3,8c5.7,4.2,11.1,8.1,16.4,9.3c4.3,1,8.7,1.6,13.2,1.9
				c3.2,0.2,6.5,0.6,9.7,1.2c2.1,0.4,5.3,1.4,9.1,2.6c4.8,1.5,10.3,3.2,15.4,4.4c3.1,0.8,6.2,1.2,9.4,1.3c0.7,0,1.5,0,2.2-0.2
				l2.6-0.4l-1.7,2c-4.2,5.2-8.5,10.8-8.6,10.9l0,0c0,0-1.6,2.4-3.9,6l-0.2,0.3l-0.3,0.1C992.8,1895.3,990.8,1895.7,988.7,1895.6
				L988.7,1895.6z M1165,1869.4c-16.1,0-49-1.1-75.3-2.1c-18-0.6-33.6-1.2-38.8-1.2c-8.8,0-19.7,0.6-27.3,1.2
				c-2.6,0.2-5.2,0.4-7.6,0.6l-2.2,0.2l1.4-1.9l0.1-0.1c1.5-1.4,3.1-3.2,5-5.2l1.9-2.1l1.2-1.3h0.4c2.5,0,3.2-0.7,3.5-1.5
				c0.4-0.7,0.7-1.5,0.8-2.4c-0.5-0.7-0.4-1.6,0.1-2.2l0.6-0.7c1.8-1.8,3.2-4,3.9-6.4l0.2-0.7h0.7c4.6-0.1,8.6-0.2,12.2-0.2
				c6,0,11.3,0.2,16.1,0.5c16.9,1.2,43,1.5,62,1.5c6.5,0,15.2,0.1,25.2,0.3c12.3,0.2,26.2,0.4,39.1,0.4c9.7,0,17.4-0.1,23.8-0.3
				c19.7-0.7,44.3-2.4,60.7-10l2.1-1l-0.8,2.2c-2.6,7.5-4.8,13.7-6.8,18.9l-0.1,0.3l-0.3,0.2c-8.2,5.1-18.8,8.5-26.3,10.5
				c-9.1,2.4-24.8,2.7-38.9,2.7h-22.9c-3.6,0-6.6,0-9.3,0.1C1168.2,1869.4,1166.7,1869.4,1165,1869.4L1165,1869.4z M1206.8,1826.5
				c-14.9,0-52.5-1.9-68.5-3c-4.8-0.3-10.8-0.5-18.3-0.5s-15.5,0.2-22.5,0.3c-5.9,0.1-11.4,0.2-15.7,0.2h-4
				c-11-0.3-11.3-0.3-15.2-0.7l-2.1-0.2c-1.3-0.1-3-0.2-5.1-0.2c-3.9,0-9,0.2-15.3,0.5l-1.5,0.1l0.6-1.4c2.8-7,6.1-15.4,6.8-17.6
				c0.2-0.5,0.5-1.4,1-2.6l0.2-0.6h0.6c1.4-0.1,2.6-0.2,3.7-0.3c1.7,0,3.4-0.2,5.1-0.6c3.2-0.9,6.8-1,10.9-1h0.6
				c1.7,0,3.4,0.1,5.1,0.1c2.1,0.1,4.2,0.2,7,0.2h9.4c10.6,0,28.6,0.1,34.9,0.2c3.3,0.1,10.6,0.7,19.1,1.5c11.9,1,25.3,2.2,31.6,2.2
				c2.4,0,6.5,0,11.4,0.1c7.5,0.1,16.8,0.2,25.3,0.2c12.7,0,20.4-0.2,22.8-0.7c4.6-0.8,9.1-1.9,13.5-3.3c5.6-1.8,11.5-2.9,17.4-3.3
				l3.4-0.2c5.1-0.3,8.5-0.5,11.4-1.5c0.5-0.2,1.1-0.4,1.8-0.6c1.3-0.4,2.9-0.9,4.6-1.6l1.9-0.7l-2.5,7.8c-1.4,4.3-2.9,9-4.4,13.7
				l-0.2,0.5l-1.7,0.6c-6.6,2.2-13.5,4.5-17,5.8c-8.8,3.3-42.3,6.2-53.6,6.5C1208.7,1826.5,1207.8,1826.5,1206.8,1826.5
				L1206.8,1826.5z M877.6,1819c-4.7-1.7-8.7-3.2-11.8-4.6c-10.1-4.4-22.7-12.8-28.3-17.1c-4-3-10.4-6.2-17.8-8.7l-0.5-0.2l-0.1-0.6
				c-1.1-5-2.7-12.1-5-21.2l1.1-0.3l0.2-0.7l0.8,0.3c7.7,2.4,17.4,5.5,24.3,10.4c3.3,2.4,6.1,4.1,8.6,5.7c3.4,2,6.6,4.3,9.5,6.9
				c0.6,0.6,1.1,1.2,1.7,1.7c2.5,2.7,4.4,4.7,15.1,6l0.7,0.1l0.2,0.7c0.4,1.5,1,2.9,1.7,4.3l0.1,0.2l0.1,1.8
				c0.4,5.4,0.6,10.2,0.8,14.3l0,1.5L877.6,1819z" fill="#171717" fill-rule="evenodd"></path>
			<path id="Option_R1070_Rib_001_1" d="M960.7,1960.2c-12.3,0-34.3-8.1-65.9-21.2c-16.9-7-50.9-30.6-51.2-43.3
				c-0.1-3,2.8-7,6-11.2c0.7-0.9,1.4-1.9,2-2.8l0.7-1l0.8,1c5,5.9,13.6,13.1,22.5,18.8c10.5,6.7,38.5,20.5,47.8,23.2
				c3.3,0.9,8.3,2.6,13.6,4.3c9.7,3.2,20.8,6.8,24.7,7.3c0.7,0.1,1.5,0.2,2.2,0.3c2.4,0.3,4.9,0.5,7.3,0.6c0.6,0,1.3,0,1.9-0.1
				l1.3-0.1l-0.2,1.3c-0.4,2.2-0.8,4.3-1.2,6.4c-1.6,8.8-2.6,13.8-4.8,15.1C965.9,1959.8,963.3,1960.4,960.7,1960.2z M1147.8,1891.4
				c-9.4,0-16.4-0.1-20.7-0.3c-17-0.7-69.6-2.3-79.1-2.3c-9.8,0-49.4-0.1-49.8-0.1h-2l1.2-1.6c0,0,3.4-4.5,7.2-9.1h-0.1
				c-3.3-0.1-6.6-0.6-9.8-1.4c-5.2-1.2-10.7-2.9-15.6-4.4c-3.7-1.2-7-2.2-9-2.6c-3.1-0.6-6.3-1-9.4-1.2c-4.5-0.3-9-0.9-13.4-1.9
				c-5.7-1.3-11.5-5.6-17.2-9.6c-3.8-2.9-7.8-5.5-12-7.8c-3.7-1.8-8.2-3.5-12.4-5.2c-7.1-2.8-14.4-5.6-18.7-8.9
				c-4-3.2-7.3-7.2-9.8-11.6l-0.2-0.3v-0.3c0-5.3-0.4-12.2-1-20.4l1.9-0.5c0.5,1,1.1,2,1.7,3c3.4,5.3,8.5,10.1,12.7,12.1
				c4.4,2,10.9,3,16.2,3.8h0.2c3.8,0.6,9.4,2.8,16.8,6.8c1.1,0.6,4.2,2.6,8,5.1c7.4,4.9,17.6,11.6,21.3,13
				c9.3,3.7,21.2,4.3,29.1,4.7c3.2,0.2,5.8,0.3,7.5,0.6c3.8,0.8,7.6,1.7,11.3,2.9c4.5,1.3,9.1,2.6,11.9,2.9l2.9,0.3
				c2,0.3,4,0.5,6.1,0.5h2.5l-1.5,1.7c-1.3,1.5-3.7,4.1-6.1,6.6c1.6-0.1,3.3-0.2,5-0.4c7.6-0.5,18.6-1.2,27.5-1.2
				c5.2,0,20.8,0.5,38.9,1.2c26.3,0.9,59.1,2.1,75.2,2.1h4.4c2.7,0,5.7-0.1,9.3-0.1h22.9c14,0,29.6-0.3,38.4-2.6
				c10.6-2.8,19.5-6.3,25.8-10.2l2.5-1.6l-1.1,2.8c-3.9,10.1-6.8,16.3-8.9,19c-11.1,13.5-50.3,15.8-51.9,15.9
				C1200.4,1890.9,1169.7,1891.4,1147.8,1891.4L1147.8,1891.4z M856,1873.9c-0.5-1.4-4-4.7-7.8-8.2c-7.9-7.3-18.7-17.3-19.9-25.8
				c-0.4-2.5-0.8-5.6-1.5-9.4l-0.5-3.1l2.2,2.2c4.2,4.2,10,8.9,14.2,12.4c1.4,1.2,2.7,2.2,3.5,2.9c3.4,3,13.4,9.3,20.5,13.1l0.9,0.5
				l-0.5,0.9c-1.1,1.9-2.5,4-3.7,5.9c-1.1,1.7-2.2,3.3-2.6,4.2c-0.9,1.6-1.9,3.2-3.1,4.6l-1.1,1.3L856,1873.9z M1211.9,1805.5
				c-8.6,0-17.9-0.1-25.4-0.2c-4.9,0-8.9-0.1-11.4-0.1c-6.3,0-19.8-1.2-31.7-2.2c-8.5-0.8-15.8-1.4-19-1.5
				c-6.3-0.2-24.3-0.2-34.8-0.2h-9.4c-2.8,0-5-0.1-7-0.2c-1.7-0.1-3.3-0.1-5-0.1h-0.6c-4.2,0-7.4,0.1-10.4,0.9
				c-1.8,0.4-3.7,0.6-5.6,0.7c-1.1,0.1-2.3,0.1-3.7,0.2l-1.6,0.1l0.6-1.5c2.1-5.2,6.3-15.6,7.6-18.7c0.5-1.2,1.6-1.9,2.8-1.9
				c4,0,17.5,0.2,22.5,0.4c2.2,0.1,5.2,0.1,9.3,0.1h12.8c1.3,0,4,0,7.4-0.1c6.5-0.1,16.2-0.3,24.9-0.3c10.2,0,16.5,0.2,19.3,0.7
				l2,0.3c8,1.4,24.5,4.2,38.4,4.2h2.6c9.2-0.3,16.1-0.7,21.6-1.1c4-0.3,7.1-0.5,10-0.6h4.5c1.5,0,3.1,0.1,4.8,0.1
				c3.4,0,13.6,0,15-3.9c1.3-3.6,1.1-4.4,1.1-4.5c-0.1-0.3-0.1-0.7,0.1-0.9l0.3-0.4h0.6c0.8-0.1,1.6-0.2,2.4-0.2c1,0,2.2,0,3.6,0.1
				c1.7,0,3.7,0.1,5.7,0.1c3.3,0.1,6.6-0.2,9.9-0.7c7-1.4,19.2-5.8,19.3-5.9l1,1.7c-0.9,1.2-5.5,15.3-8.2,23.7l-0.1,0.5l-0.5,0.2
				c-1.8,0.7-3.4,1.2-4.7,1.6c-0.7,0.2-1.3,0.4-1.8,0.6c-3.2,1.1-6.7,1.3-12,1.6l-3.4,0.2c-5.7,0.4-11.4,1.5-16.9,3.2
				c-4.5,1.4-9.1,2.5-13.7,3.3C1232.5,1805.3,1224.9,1805.5,1211.9,1805.5L1211.9,1805.5z M875.2,1798.7
				c-11.5-1.3-13.6-3.7-16.4-6.6c-0.5-0.5-1-1-1.6-1.6c-2.8-2.5-5.9-4.8-9.2-6.7c-2.5-1.6-5.3-3.3-8.7-5.7
				c-6.7-4.8-15.8-7.6-23.8-10.1l-1.4-0.4l-0.1-0.5c-2.7-10.8-5.2-20.6-5.3-20.7l-0.3-1.2h1.3c0,0,3.8-0.1,8-0.1
				c5.7,0,9.6,0.1,11.6,0.3c2.1,0.1,4.2,0.5,6.3,0.8c1.1,0.2,2.2,0.3,3.3,0.5s2.1,0.2,3,0.3c2.9,0.2,4.7,0.4,5.4,1.5
				s0.6,3.1,0.4,6.4c-0.1,2.1-0.2,4.4,0.1,5.3l0.2,0.7c0.2,1,0.6,1.9,1.2,2.7c0.5,0.6,0.6,1.5,0.3,2.2c-0.3,0.7-0.4,1.6-0.1,2.3
				c0.7,2.1,4.9,4.6,7,4.9c0.9,0.1,1.8,0.1,2.8,0.1h2.5l6.9-0.1l4-0.1h5.5c1.3,0.1,2,0.2,2.3,0.7s0.1,1.4-0.2,2.6
				c-0.9,2.7-1.4,5.6-1.3,8.5v2.4c0.1,3.7,0.1,5.4-0.4,6.3c-0.3,0.6-0.9,1-1.5,1.3c-0.5,0.2-0.7,0.4-0.8,0.6c-0.1,0.7,0,1.5,0.2,2.1
				l0.3,1.4L875.2,1798.7z" fill="#171717" fill-rule="evenodd"></path>
		</g>
		<g id="Pattern_R1070_Rib_000" >
			<path id="Option_R1070_Rib_000_1" d="M960.7,1960.2h-0.8c-1,0-2.1-0.1-3.1-0.2c-0.5-0.1-1.1-0.1-1.7-0.2
				c-1.1-0.2-2.4-0.4-3.6-0.6c-6.1-1.3-12.2-3.1-18.1-5.2c-1.8-0.6-3.6-1.2-5.5-1.9s-3.8-1.4-5.8-2.1c-2.9-1.1-6-2.3-9.5-3.7
				c-5.2-2.1-11.1-4.4-17.8-7.2c-1.7-0.7-3.5-1.5-5.4-2.5s-3.9-2-5.9-3.2c-1.3-0.8-2.8-1.6-4.2-2.5c-2.1-1.3-4.2-2.7-6.3-4.1
				s-4.2-2.9-6.2-4.4c-0.7-0.5-1.4-1-2-1.5c-1.4-1-2.7-2.1-3.9-3.1c-4.7-3.7-8.9-7.8-12.7-12.4c-3-3.8-4.5-7-4.5-9.6
				c0-1.4,0.4-2.7,1.1-3.9c0.5-1,1-1.9,1.6-2.8c0.5-0.8,1.2-1.7,2-2.9c0.3-0.5,1.3-1.8,1.3-1.8l1.4-2c1.1-1.5,1.9-2.7,2.5-3.8
				c0.2-0.2,0.3-0.5,0.4-0.7c0.5-0.9,1-1.8,1.4-2.8c0.2-0.5,0.4-1.1,0.5-1.6c-0.8-1.5-4.1-4.6-7.7-7.9c-7.9-7.3-18.7-17.3-19.9-25.8
				s-3.8-22.5-5.8-33.7c-1-5.2-1.8-10-2.5-13.7c-2-11.5-11-45.9-11.1-46.3l-0.3-1.2h1.3c0,0,3.8-0.1,8-0.1c5.7,0,9.6,0.1,11.6,0.3
				c2.1,0.1,4.2,0.5,6.3,0.8c1.1,0.2,2.2,0.3,3.3,0.5s2.1,0.2,3,0.3c2.9,0.2,4.7,0.4,5.4,1.5s0.6,3.1,0.4,6.4
				c-0.1,2.1-0.2,4.4,0.1,5.3l0.2,0.7c0.2,1,0.6,1.9,1.2,2.7c0.5,0.6,0.6,1.5,0.3,2.2c-0.3,0.7-0.4,1.6-0.1,2.3
				c0.7,2.1,4.9,4.6,7,4.9c0.9,0.1,1.8,0.1,2.8,0.1c2,0,4.7-0.1,7.6-0.1s6.1-0.1,8.5-0.1c1.3,0,2.6,0,3.9,0.1
				c0.6-1.3,1.3-2.6,2.1-3.8l1.7,1.1c-1.7,2.7-2.9,5.6-3.5,8.7c-0.3,1.4-0.5,2.7-0.6,4.1c0,0.5,0,1.1,0,1.7c0.2,3.3,0.3,7.5-0.3,8.8
				c-0.3,0.6-0.9,1-1.5,1.3c-0.4,0.2-0.7,0.4-0.8,0.6c-0.2,0.4,0,2.7,1.9,6.5c0.2,0.4,0.5,0.9,0.7,1.4l0.1,0.1
				c0.3,0.5,0.6,1,0.9,1.5c3.4,5.3,8.5,10.1,12.7,12.1c4.4,2,10.9,3,16.2,3.8h0.2c3.8,0.6,9.4,2.8,16.8,6.8c1.1,0.6,4.2,2.6,8,5.1
				c7.4,4.9,17.6,11.6,21.3,13c9.3,3.7,21.2,4.3,29.1,4.7c3.2,0.2,5.8,0.3,7.5,0.6c3.8,0.8,7.6,1.7,11.3,2.9
				c4.5,1.3,9.1,2.6,11.9,2.9l2.9,0.3c2,0.3,4,0.5,6.1,0.5h0.2c2.5,0,3.2-0.7,3.5-1.5c0.4-0.7,0.7-1.5,0.8-2.3
				c-0.5-0.7-0.4-1.6,0.1-2.3c0.2-0.2,0.4-0.5,0.7-0.8c2.1-2,3.5-4.6,4.1-7.4l0.4-2c1.1-5.6,2.1-10.8,3.5-14.3
				c1.5-3.7,7.8-19.8,8.9-22.9c0.6-1.8,3.5-8.9,5.8-14.6l2.7-6.7c0.1-0.3,0.3-0.6,0.5-0.9l0,0c0.6-0.6,1.4-1,2.3-1
				c4,0,17.5,0.2,22.5,0.4c2.2,0.1,5.2,0.1,9.3,0.1h12.8c1.3,0,4,0,7.4-0.1c6.5-0.1,16.2-0.3,24.9-0.3c10.2,0,16.5,0.2,19.3,0.7
				l2,0.3c8,1.4,24.5,4.2,38.4,4.2h2.6c9.2-0.3,16.1-0.7,21.6-1.1c4-0.3,7.1-0.5,10-0.6h4.5c1.5,0,3.1,0.1,4.8,0.1
				c3.4,0,13.6,0,15-3.9c1.3-3.6,1.1-4.4,1.1-4.5c-0.1-0.3-0.1-0.7,0.1-0.9l0.3-0.4h0.6c0.8-0.1,1.6-0.2,2.4-0.2c1,0,2.2,0,3.6,0.1
				c1.7,0,3.7,0.1,5.7,0.1c3.3,0.1,6.6-0.2,9.9-0.7c7-1.4,19.2-5.8,19.3-5.9l1,1.7c-1,1.2-5.4,15-10,29.5
				c-9.1,28.5-21.6,67.6-27.9,75.3c-11.1,13.5-50.3,15.8-51.9,15.9c-6.1,0.3-36.7,0.9-58.6,0.9c-9.4,0-16.4-0.1-20.7-0.3
				c-17-0.7-69.6-2.3-79.1-2.3c-9.2,0-44.4-0.1-49.2-0.1c-1.3,1.9-6.3,9.5-11.3,17.9c-0.7,1.2-1.4,2.3-2.1,3.5l-1,1.8
				c-0.7,1.2-1.3,2.3-2,3.5l-0.9,1.7c-1,1.8-1.8,3.4-2.5,5c-1.3,2.6-2.4,5.2-3.2,8c-0.3,1.1-0.6,2.3-0.8,3.4s-0.5,2.3-0.7,3.5
				c-0.5,2.3-0.8,4.5-1.2,6.7l-0.4,2.2c-0.5,3-1,5.4-1.5,7.4c-0.1,0.5-0.3,1-0.4,1.5c-0.7,2.2-1.4,3.4-2.4,4c-1,0.5-2,0.9-3.1,1.2
				c-1.3,0.3-2.5,0.4-3.8,0.4L960.7,1960.2z" fill="none" fill-rule="evenodd"></path>
		</g>
	</g>
	<g id="Group_R1070_Pockets_Body" link="pocket">
		<g id="Pattern_R1070_Pockets_Body_000">
			<path id="Option_R1070_Pockets_Body_000_1" d="M879.5,1775.1c-0.3,0-0.5-0.1-0.7-0.3c-1.2-0.1-2.5-0.2-3.7-0.1
				c-2.4,0-5.5,0.1-8.5,0.1s-5.6,0.1-7.6,0.1c-1,0-2.1,0-3.1-0.1c-2.8-0.5-7.5-3.3-8.6-6.2c-0.4-1.2-0.3-2.4,0.1-3.6
				c0-0.1,0.1-0.2,0.1-0.3c-0.7-1-1.2-2.1-1.5-3.3l-0.2-0.7c-0.4-1.2-0.3-3.6-0.2-6c0.1-1.8,0.2-4.7-0.1-5.2
				c-1.3-0.3-2.6-0.5-3.9-0.6c-0.9-0.1-1.9-0.2-3-0.3s-2.2-0.3-3.3-0.5c-2-0.3-4.1-0.6-6.2-0.8c-1.9-0.2-5.8-0.3-11.4-0.3
				c-4.2,0-7.9,0.1-8,0.1h-0.3l-0.3-0.2c-0.2-0.1-1.2-1-1.4-3.5c-0.1-1.1,0.1-2.2,0.5-3.2c0.1-0.3,0.2-0.6,0.2-0.9
				c0-0.3-0.2-61.5-0.2-61.5l0.3-0.4l-0.3-0.1v-0.8l-0.8-279.8c-0.2-0.9-0.4-1.9-0.4-2.8v-0.7c0-0.2,0-0.3,0.1-0.4l0.1-0.8l0.1-0.5
				l0.2-0.9l0.9,0.1c1.8,0.2,3.6,0.4,5.2,0.6s2.5,0.3,2.9,0.3h1.8c1-0.1,2.1,0.3,2.9,0.9c0.6,0.5,1.1,1.1,1.6,1.7
				c0.9,1,1.8,2.2,2.8,2.5c0.4,0.1,0.8,0.1,1.2,0.1h2.3c0.9,0,1.8,0.2,2.6,0.6c1.7,1.1,5,5,5.2,7.6c0.1,0.8,0.2,1.6,0.4,2.4
				c0.9,4.2,1.3,8.5,1.3,12.9c0,4.9-0.1,8.1-0.2,10.4c-0.1,1.8-0.1,3,0,4.1c0,0.8,0.1,4.3,0.2,9.2c0.2,10.3,0.5,25.9,0.8,31.1
				c0.4,7.4,5.2,37.3,9.9,51.2c4.8,14,8.5,23.5,11.3,29s29.9,42.6,32.2,45.5s23.7,24.4,27,27.2c0.8,0.7,1.9,1.6,3.1,2.6
				c5,4.1,8.5,7.1,8.9,9.1c0.3,1.5,0.5,22.4,0.7,36.8v0.2v0.2c-6.4,20.2-11.1,36.1-11.4,37.6c-0.2,1.9-0.4,3.9-0.4,5.8
				c0,2.8-0.3,5.5-0.8,8.3c-0.6,2.5-6.8,8.1-16.1,16.4c-4,3.6-7.8,6.9-9.3,8.6c-3.6,4.1-9.8,13.7-11.6,16.6
				c-0.9,1.3-1.7,2.8-2.2,4.3v0.1l-0.3,0.6L879.5,1775.1z" fill="#171717" fill-rule="evenodd"></path>
		</g>
	</g>
	<g id="Group_R1070_Sleeves" link="sleeves">
		<g id="Pattern_R1070_Sleeves_000">
			<path id="Option_R1070_Sleeves_000_1" d="M1023.6,1859.4c-2.1-0.1-4.2-0.3-6.3-0.6l-2.9-0.3c-3-0.3-7.7-1.7-12.3-3
				c-3.6-1.1-7.3-2.1-11.1-2.8c-1.7-0.3-4.3-0.4-7.3-0.5c-8-0.4-20.1-1-29.7-4.8c-3.9-1.5-14.2-8.3-21.7-13.2
				c-3.7-2.4-6.8-4.5-7.8-5c-7.1-3.8-12.6-6-16.1-6.5h-0.2c-5.4-0.8-12-1.8-16.7-3.9s-9.9-7.2-13.5-12.8c-3.3-5.2-4.4-9.6-3.8-11.2
				c0.4-0.7,1-1.3,1.7-1.7c0.2-0.1,0.5-0.2,0.7-0.4c0.2-0.5,0.5-2.9,0.1-7.8c0-0.6,0-1.3,0-1.9c0.1-1.5,0.3-2.9,0.6-4.4
				c0.7-3.3,1.9-6.5,3.8-9.4c1.8-2.9,8.1-12.6,11.8-16.8c1.6-1.8,5.2-5,9.5-8.8c6-5.3,15-13.3,15.5-15.3c0.5-2.6,0.7-5.3,0.7-7.9
				c0-2,0.2-4.1,0.5-6.1c0.6-3.6,22.4-73.4,24.1-76.9s5.2-12.4,5.5-15.2c0.3-2.9,3.5-19.1,5.9-24.3c1-2.2,2.2-4.4,3.3-6.3
				c1.2-2,2.2-4,3.1-6.2c0.1-0.4,0.3-1.2,0.6-2.1c1.7-5.3,5.5-17.9,6.1-22c1.6-12.7,3.7-14.6,5.4-16.1c1-0.9,1.8-1.6,2.2-5.6
				c0-1.2,0.9-30.9,3.6-36.6c1.2-2.5,3.6-5.6,6.2-9c3.2-4.2,6.6-8.5,7.2-11.3c0.4-2-0.6-4.5-1.8-7.4c-1.7-4-3.5-8.5-2.3-13.4
				s5.6-9.7,9.1-13.6c2.4-2.7,4.8-5.3,5-6.8c0.1-1-0.4-2.8-1.1-5.1c-3.6-10.7-4.3-22.2-2.1-33.3c1.5-8.6,6.1-15.7,9.8-21.3
				c2.5-3.8,4.6-7,4.8-9.3c0.3-2.7-1.2-6-2.8-9.5c-1.8-3.8-3.8-8.2-3.9-12.9c-0.1-3-0.2-6.2-0.2-9.4c-0.1-6.2-0.2-12.5-0.6-18.1
				c-0.5-4.7-1.3-9.4-2.5-14.1c-1-3.9-1.7-8-2.2-12c-0.4-4.5-0.4-9,0-13.4c0.1-1,0.1-2.2,0.2-3.4c0.1-2.6-0.6-5.7-1.6-9.7
				c-1.8-7-3-14.2-3.5-21.5l-0.4-5.8c-1.5-20.7-4.5-63.8-4.3-76.8c0.2-8.7,0.7-37.9-0.3-47c-0.3-2.9-1.7-9.9-3.3-18
				c-3-15-6.7-33.8-7.2-44.1c-0.4-7.5-0.6-21.2-0.8-34.5c-0.2-13.5-0.5-28.8-0.9-30.2c-0.8-2-1.7-3.9-2.8-5.8
				c-3.2-6.3-8.1-15.9-8.7-21.4c-0.9-7.9-5.7-15.4-6.8-16.8l-3-3.7c-7.8-9.7-26.1-32.3-29.8-37.9l-1.1-1.6
				c-3.9-5.7-12-17.6-16.7-28.6c-0.2-0.6-0.5-1.1-0.7-1.6c-1.6-3.7-3-6.8-3.2-10.4c-1-23.2,5.7-58.1,9.6-68.6l1.7-4.5
				c2.4-6.5,3.3-8.9,4.1-13.2c1.1-5.6,4-18.4,7.5-27.2c1-2.7,2.5-6.6,4.1-11.2c3.8-10.7,8.6-23.9,11.6-29
				c3.8-6.4,16.9-28.2,26.4-39.4c9-10.6,22.6-28,27.6-34.9c2.5-3.5,5.4-12.5,7.8-20.4l0.5-1.4l0.2-0.2c0.9-1.1,2.1-1.9,3.3-2.6
				c4.9-2.6,10.8-4.2,16-5.6c2.8-0.8,5.5-1.5,7.9-2.3c1.5-0.5,3.3-1.2,5.3-2c7-2.6,16.5-6.1,23.1-7.5c3.7-0.8,11.3-2.2,19.3-3.7
				c10.3-1.9,20.9-3.9,25.2-4.9c3.2-0.8,6.4-1.7,9.5-2.9c3.9-1.4,7.8-2.5,11.8-3.3c4.7-0.8,9.3-1.2,13.7-1.6
				c2.9-0.3,5.6-0.5,8.3-0.8c1.9-0.2,3.8-0.4,5.5-0.6c4.5-0.5,8.8-1,10.4-1.7c0.7-0.3,1.4-0.4,2.1-0.4c0.9,0,1.8,0.1,2.7,0.3
				l0.4,0.1l0.2,0.3c1.7,2.4,3.4,9.9,3.6,11.5c0.2,1.4,1.7,6.2,2.7,9.5c0.4,1.2,0.7,2.2,0.9,3l0.2,0.6c1.1,3.7,4.5,15,4.7,22.4
				c0.4,8.4,1.3,16.7,2.7,25c1,5.5,7.3,29.2,7.6,30.2c1.2,4.4,4.9,20.4,5.5,24.6c0.3,2.2,0.4,4.3,0.5,6.5c0,3,0.3,6,0.8,9
				c0.6,2.4,4,11.2,7.6,20.4c3.3,8.6,6.8,17.5,8.9,23.6c6.7,19.4,10.2,30.9,10.4,34.1c0,0.7,0.1,1.7,0.1,2.7
				c0.2,3.6,0.5,10.4,1.1,11.6c0.8,1.5,3.6,8.4,3.8,12.7c0.1,1,0.2,2.7,0.4,4.7c0.9,7.9,1.3,15.9,1.3,23.9c0,2.2,0,4.2-0.1,6
				c0,7.6-0.1,12.1-2.4,19.5c-1.3,4.2-4.9,12.7-8.3,20.9s-7.7,18.6-7.7,20c0.1,0.8,0.1,3,0.2,5.7c0.1,5.2,0.3,12.3,0.8,15.2
				c0.2,1.4,0.5,2.7,0.7,3.9c0.6,2.6,0.9,5.3,1.1,7.9c0,2.8-0.2,5.7-0.5,8.5c-0.6,5.9-0.9,11.8-0.9,17.7c0.2,4.7,1.6,11.7,3,18.4
				s2.7,13.4,2.9,17.9c0.3,8.1-0.7,30-1.2,41.7l-0.1,3.3c-0.3,4.6-0.8,9.1-1.5,13.6c-1,5.6-1.5,11.3-1.5,17v2.1
				c0.4,13.2,1.6,53.5,1.4,69.5c-0.1,9.9-1.2,39.1-2,62.6c-0.6,16.9-1.2,31.5-1.2,34.3c0,6.5-0.6,58.6-2.6,73.4
				c-1.5,10.5-9.1,39.3-15.2,62.5c-2.4,9.1-4.7,17.8-6.2,23.8c-5.2,20.7-44.7,134.8-51.6,148.9c-6.2,12.7-19.2,45.2-21.6,54.5
				c-2,7.9-7.8,26.4-11.2,37.5c-0.7,2.1-1.2,3.9-1.7,5.3c-1.9,6-6.8,18.6-10.9,28.8c-1.7,4.3-3.1,8-4.1,10.5
				c-2.6,6.7-14.9,35.2-21.5,50.5l-4,9.2c-1.1,2.6-2.5,5.6-4,8.7c-1.7,3.6-3.4,7.3-4.9,10.7c-0.4,0.9-1,1.7-1.6,2.3
				c-0.1,0.1-0.1,0.2-0.2,0.3l-2.7,6.7c-3.3,8.1-5.3,13.2-5.8,14.6c-1.1,3.1-7.5,19.3-9,22.9c-1.3,3.3-2.3,8.5-3.4,14l-0.4,2
				c-0.7,3.2-2.3,6.1-4.6,8.3c-0.2,0.2-0.4,0.4-0.6,0.6c0.4,0.6,0.5,1.5-0.7,4.2C1028,1859.1,1025.6,1859.4,1023.6,1859.4z" fill="#98989A" fill-rule="evenodd"></path>
		</g>
	</g>
	<g id="Group_R1070_Body" link="body">
		<g id="Pattern_R1070_Body_000">
			<path id="Option_R1070_Body_000_1" d="M1193.9,1788.2c-14.1,0-30.8-2.9-38.8-4.2l-2-0.3c-2.7-0.5-9.1-0.7-19-0.7
				c-8.7,0-18.4,0.2-24.9,0.3c-3.4,0.1-6.2,0.1-7.4,0.1h-12.8c-4.1,0-7.1,0-9.3-0.1c-5-0.2-18.4-0.3-22.4-0.4l0,0
				c-0.3,0-0.6,0.1-0.8,0.4l-0.8-0.7l-0.8-0.4l0.1-0.2l0.1-0.1c0.5-0.5,0.9-1.1,1.2-1.8c1.4-3.4,3.2-7.2,4.9-10.8
				c1.5-3.1,2.9-6.1,4-8.7l4-9.2c6.6-15.3,18.9-43.8,21.4-50.4c1-2.5,2.4-6.2,4.1-10.5c4-10.1,9-22.7,10.8-28.7
				c0.4-1.4,1-3.2,1.7-5.3c3.5-11.1,9.2-29.6,11.2-37.4c2.4-9.7,15.4-42,21.7-54.9c6.6-13.4,46.5-128.6,51.4-148.5
				c1.5-6,3.8-14.7,6.2-23.8c6.1-23.1,13.7-51.9,15.2-62.3c2-14.7,2.6-67.6,2.6-73.2c0-2.8,0.5-17.4,1.2-34.4
				c0.9-23.5,2-52.7,2-62.5c0.1-16-1-56.2-1.4-69.4l-0.1-2.1c0-5.8,0.5-11.6,1.6-17.4c0.7-4.5,1.2-8.9,1.5-13.4l0.1-3.3
				c0.5-11.7,1.4-33.5,1.2-41.6c-0.2-4.3-1.5-11-2.8-17.5c-1.4-6.8-2.9-13.9-3-18.8c0-6,0.3-12,0.9-18c0.3-3.6,0.6-6.7,0.5-8.2
				c-0.1-2.6-0.5-5.1-1-7.6c-0.2-1.2-0.5-2.5-0.7-4c-0.5-3.1-0.7-10.2-0.8-15.5c-0.1-2.6-0.1-4.8-0.2-5.6c-0.1-1.4,2.3-7.5,7.9-20.9
				c3.4-8.2,6.9-16.7,8.2-20.8c2.2-7.1,2.3-11.5,2.3-18.9c0-1.8,0-3.8,0.1-6c0-7.9-0.4-15.8-1.3-23.6c-0.2-2.1-0.4-3.8-0.4-4.8
				c-0.2-3.7-2.7-10-3.6-11.9c-0.7-1.5-1-6.3-1.3-12.4c0-1-0.1-1.9-0.1-2.7c-0.1-2-2-9.5-10.3-33.5c-2.1-6-5.5-14.9-8.8-23.5
				c-3.8-9.8-7-18.2-7.6-20.7c-0.6-3.1-0.9-6.3-0.9-9.4c0-2.1-0.2-4.2-0.4-6.2c-0.7-4.1-4.3-20-5.5-24.4c-0.7-2.5-6.5-24.9-7.6-30.4
				c-1.4-8.4-2.4-16.8-2.8-25.3c-0.2-7.1-3.5-18.2-4.6-21.9l-0.2-0.6c-0.2-0.7-0.5-1.8-0.9-3c-1.1-3.2-2-6.5-2.8-9.8
				c-0.2-1.7-1.7-8-3-10.2l-0.5-0.1v-0.5l-1.2-1.8l2.5,0.5c1.8,0.3,3.6,0.5,5.4,0.5h1.4c4-0.3,8.5-0.7,15.5-1.5h0.4l0.3,0.2
				c2.6,1.6,4.9,3.9,6.5,6.5c1,1.9,1.5,4,1.7,6.2c0.1,0.7,0.2,1.4,0.4,2.2c0.8,1.2,1.6,2.5,2.3,3.8c0.2,0.5,0.5,1.1,0.8,1.6
				c13.8,25.9,46.8,89.8,55.6,122.8l1.3,4.7c10,37.3,20.3,75.8,30.8,173.7c6.5,60.5,7.5,108.1,8.1,133.6c0.2,9.8,0.3,16.9,0.7,20.5
				c1.2,12.4,5.7,79.5,7,128c0.2,8,0.7,19.5,1.2,32.8c0.9,22.9,2.1,51.3,2.7,79.7c1.2,53.3,1.1,105.5,0.9,113
				c-0.1,2.5-0.4,15.4-0.8,34.8c-0.9,36.7-2.3,98.1-4,159.7c-0.4,13.4-0.1,26.7,0.1,39.6c0.3,17.6,0.6,34.3-0.5,50.9
				c-2.1,30.6-4.4,59.2-10.1,73.9c0,1.1-0.1,5.7-3,8.4l-0.2,0.2l-0.2,0.1c-0.5,0.2-12.4,4.5-19.6,6c-3.4,0.6-6.9,0.8-10.3,0.8
				c-2,0-4,0-5.8-0.1c-1.3,0-2.6-0.1-3.5-0.1h-1.3c-0.2,1.6-0.6,3.2-1.2,4.7c-1.6,4.6-9.4,5.2-16.9,5.2c-1.7,0-3.3,0-4.8-0.1h-4.5
				c-2.8,0.1-5.9,0.3-9.9,0.6c-5.5,0.4-12.4,0.9-21.7,1.1C1195.7,1788.1,1194.8,1788.2,1193.9,1788.2z M930.4,1676.3
				c-0.1-18.6-0.4-35.2-0.6-36.4c-0.3-1.4-5.2-5.5-8.2-7.9c-1.2-1-2.3-1.9-3.2-2.6c-3.4-3-24.7-24.4-27.2-27.5s-29.4-40.1-32.5-45.8
				s-6.7-15.2-11.5-29.3s-9.6-44-10-51.7c-0.3-5.2-0.6-20.9-0.8-31.2c-0.1-4.7-0.2-8.3-0.2-9.1c0-1.1,0-2.4,0-4.2
				c0.1-2.3,0.2-5.4,0.2-10.3c0-4.2-0.4-8.4-1.2-12.5c-0.2-0.9-0.3-1.8-0.4-2.7c-0.1-1.7-2.8-5.1-4.3-6c-0.5-0.2-1-0.3-1.5-0.3h-2.3
				c-0.6,0-1.2-0.1-1.8-0.2c-1.5-0.4-2.7-1.9-3.7-3.1c-0.4-0.5-0.8-0.9-1.3-1.3c-0.5-0.3-1-0.5-1.6-0.5h-2c-0.4,0-1.5-0.2-2.9-0.3
				s-3.4-0.4-5.1-0.6l-1.1-0.1l0.2-1.1l0.2-0.8c0.1-2.2,1.5-43.9,2.8-96.9c0.8-30.8,1.6-65.1,2.3-96.9c1.3-55.4,2.4-103.2,2.8-110.6
				c1.6-30.2,5.7-87.4,15-130.2c10-45.5,28.5-104.7,37.5-133.2l1.5-4.9c4.8-15.5,12.9-39.2,20.7-62.1c9.3-27.4,18.9-55.8,19.3-59.3
				l-0.4-0.2c-1.2-0.5-3.4-1.4-4.2-5.3c-0.6-2.4,0.3-5,2.3-6.5c0.1-0.1,0.3-0.2,0.4-0.4l0.2-0.5h0.5c4.8-0.9,16.8-5.1,24-10.2
				s25-20.2,34.4-28.4c9.2-8,34.7-26.5,37.1-27.6c1.3-0.9,2.4-1.9,3.4-3.2l0.3,0.2l-0.3-0.3l0.3-0.3h1l0.6,1.1l-0.3,0.4l-0.3,1.1
				c-2.5,8-5.4,17.2-8.1,20.9c-5,6.9-18.7,24.4-27.7,35c-9.4,11-22.5,32.7-26.2,39.1c-2.9,4.9-7.7,18.1-11.5,28.7
				c-1.7,4.6-3.1,8.6-4.1,11.3c-3.4,8.7-6.3,21.4-7.4,26.9c-0.9,4.5-1.8,7.1-4.2,13.5l-1.7,4.5c-3.4,9.2-10.5,44.4-9.5,67.8
				c0.1,3.2,1.5,6.2,3,9.7l0.7,1.7c4.7,10.8,12.7,22.6,16.5,28.2l1.1,1.6c3.7,5.5,22.6,28.9,29.7,37.8l3,3.8
				c1.9,2.4,6.4,10.3,7.2,17.8c0.6,5.1,5.3,14.5,8.5,20.7c1.1,2,2,4,2.9,6.1c0.5,1.6,0.7,12.8,1,30.8c0.2,13.3,0.4,27,0.8,34.4
				c0.5,10.2,4.4,29.6,7.2,43.8c1.7,8.5,3,15.2,3.3,18.2c1,9.2,0.5,38.5,0.3,47.2c-0.3,12.9,2.8,55.9,4.3,76.6l0.4,5.8
				c0.5,7.1,1.7,14.2,3.5,21.1c1,4.2,1.8,7.4,1.6,10.3c-0.1,1.2-0.1,2.3-0.2,3.4c-0.3,4.4-0.3,8.8,0,13.2c0.5,3.9,1.2,7.9,2.2,11.7
				c1.2,4.7,2,9.5,2.5,14.4c0.4,5.6,0.5,12,0.6,18.2c0.1,3.2,0.1,6.4,0.2,9.4c0.1,4.3,2,8.3,3.7,12.1s3.3,7.3,3,10.5
				c-0.3,2.8-2.4,6.1-5.1,10.2c-3.6,5.5-8.1,12.4-9.5,20.6c-2.1,10.8-1.4,21.9,2.1,32.4c0.8,2.7,1.4,4.5,1.2,5.9
				c-0.3,2.1-2.6,4.6-5.5,7.8c-3.3,3.7-7.5,8.4-8.6,12.8s0.7,8.4,2.2,12.1c1.3,3.1,2.5,6,1.9,8.6c-0.7,3.2-4.2,7.7-7.6,12.1
				c-2.2,2.7-4.3,5.6-6,8.6c-2,4.2-3.1,25.3-3.4,35.9c-0.5,4.5-1.5,5.7-2.9,6.9s-3.2,2.9-4.7,14.8c-0.5,4.3-4.5,17-6.1,22.4
				c-0.3,0.9-0.5,1.7-0.6,2.1c-0.9,2.3-1.9,4.5-3.2,6.6c-1,1.9-2.2,4-3.2,6.1c-2.3,4.9-5.5,20.9-5.8,23.7
				c-0.3,3.3-4.1,12.5-5.7,15.8c-0.8,1.6-5.9,17.5-12.5,38.7L930.4,1676.3z" fill="#171717" fill-rule="evenodd"></path>
		</g>
	</g>
	<g id="Group_R1070_Hood" link="hood">
		<g id="Pattern_R1070_Hood_000">
			<path id="Option_R1070_Hood_000_1" d="M907.5,684.4c-1.3-2.2-2.3-4.5-2.8-7c-0.3-1.1-0.6-2.3-1-3.4
				c-2.9-8.2-5.1-15.7-7-22.3c-1.2-4.3-2.3-7.9-3.3-11.2c-5.1-15.4-16.7-37.6-16.8-37.8c-14.8-23.2-24.1-38.4-29.1-52.1
				c-1.5-4.3-2.6-8.5-3.6-12.5c-0.8-3-1.5-5.9-2.4-8.5c-0.5-1.7-2.1-5.5-4.2-10.8c-5.6-14.1-14.9-37.7-22.8-62.2
				c-9.8-30.3-13.3-40.4-21-62.6l-3-8.8c-4.5-12.9-11.3-30.3-18.6-48.7c-8.8-22.4-18-45.5-22.4-60c-4.8-15.6-12.3-24-17.8-30.1
				c-3.6-4-6.2-6.9-6.3-10.1c0-3.9,4.3-6.5,8.4-9l0.8-0.5c0.8-1,4.3-5.2,6.7-6.3c1.1-0.5,2.2-0.7,3.4-0.8c0.7,0,1.4-0.2,2-0.5
				c0.7-0.4,7-5.7,13.1-10.9c8-6.8,17-14.4,22-18.3c7.3-5.8,18.6-13.7,25.4-18.4c1.9-1.3,3.5-2.4,4.5-3.2s3.2-2.4,6.1-4.6
				c10.6-8.1,32.7-24.9,50.2-35.6s24.8-13.6,28.7-15.2c1.1-0.4,1.9-0.8,2.7-1.2c1.7-0.9,3.3-1.9,4.9-2.9c3.9-2.6,8.1-4.7,12.5-6.2
				c13.5-4.6,25.3-6.7,35.6-8.6c4.7-0.9,9.1-1.7,13.3-2.6l4.7-1.1c10-2.3,15-3.5,31.4-3.9c0.3,0,22.6,0.2,34.5,2.3
				c1.2,0.2,2.7,0.5,4.4,0.8c16.7,2.8,55.9,9.4,68.9,14.7c10.7,4.4,45.6,34.3,65.2,60.2c22,29,34.2,76.6,35.5,94.5
				s1.2,45.6-0.2,60.8c-1.5,15.8-9.3,56.8-15.6,89.7c-3.9,20.7-7.3,38.6-8,44.3c-0.1,9.4-0.8,18.9-1.6,29.1
				c-2.3,30.5-4.6,62.1,8.5,90.4l2.7,1.9l-2.6,0.3c-7,0.9-11.7,1.3-15.6,1.6c-0.6,0-1.2,0.1-1.8,0.1c-1.8,0-3.6-0.2-5.3-0.5
				c-0.8-0.2-1.6-0.3-2.4-0.3c-0.4,0-0.9,0.1-1.3,0.2c-1.9,0.9-6,1.3-11,1.9c-1.8,0.2-3.6,0.4-5.5,0.6c-2.8,0.3-5.5,0.6-8.4,0.8
				c-4.4,0.4-8.9,0.8-13.5,1.6c-3.9,0.7-7.8,1.8-11.6,3.2c-3.2,1.1-6.4,2.1-9.7,2.9c-4.3,1-15,3-25.3,4.9c-8,1.5-15.6,2.9-19.3,3.7
				c-6.4,1.3-15.9,4.9-22.8,7.4l-5.4,2c-2.4,0.9-5.1,1.6-8,2.4c-5.3,1.5-10.8,2.9-15.6,5.5c-1.4,0.8-2.6,1.9-3.6,3.1
				c-0.9,1.2-2,2.1-3.3,2.8c-2.3,1.1-27.9,19.6-36.6,27.3c-9.5,8.3-27.2,23.4-34.5,28.6s-19.9,9.6-24.8,10.5l-1.8,0.2L907.5,684.4z" fill="#98989A" fill-rule="evenodd"></path>
		</g>
	</g>
</g>
<g id="custom_badge-positions">
	<g id="Left_Sleeve_Upper">
		<rect x="1003.2" y="881" width="207" height="400" fill="none"></rect>
	</g>
</g>
<image class="background-product" width="2048" height="2048" xlink:href="https://media.reformclothing.com/design_lab/ysd-products/R1070_Zip_Hoodie/R1070_Zip_Hoodie_Left_A_2048.png"></image><image width="2048" height="2048" class="decoration__preview-image" xlink:href="https://rendering.documents.cimpress.io/v1/dcl/preview?format=png&amp;width=2048&amp;instructions_uri=https%3A%2F%2Fuds.documents.cimpress.io%2Fv3%2Finstructions%3Apreview%3FdocumentUri%3DrZJNjxMxDIb%252FS87rTj4nSY%252FAoSBxQSAkEIfEcXZG2%252BlUyXTRqup%252FJy2shAYuoL0kjl%252FHefLKZ%252FZIpY7zgW2Z3HB2x%252BrDqcWv376Hd7tXn3dvvuxaMs%252BH5QMd5zouc3n6VPatZFiWY9123VWrmzTjaaJrhON0LFTrZpy7R9GV52sj1c723jjuHKBNBnTKHpz2ATQ6r73PbY%252Fd8RT3Yx0otYef27LtmdVTyQGpsu3XMxtTQ1A894mshtxjAs15DzFpBcZbyVUW1ipqTQ5holZdBLccB6pLGe%252BHpQnfx7QMTRGaT1M7D3QTWsL8TCTCuYSl%252BfORcDjM%252B%252Fn%252Bqcn1Sjjd8uxy9wsmaGGSNhacRwItpIUYyYE15K3qE4bbj%252F6A2VN%252BeRbpopc2gZFcgnbkwQsRIGkphXBcxxxWLHVP1GZh7Yxa0cj%252FoOk5VxiNAZNUo6FeQ%252FSaIDrMGBBRy%252FhXmrU1LwFjbfOdvIQUuQcd2uIsIkhC9DpkJY1awcSAD9iGkMpvMIqvYPQ%252FwHy7XH4A&amp;scene=https://scene.products.cimpress.io/v1/scenes/c677a006-aa3f-49fc-b498-35b3539e5dbc"></image>
 <text class="svgText" x="54%" y="57%" dominant-baseline="middle" text-anchor="middle" font-size="50" fill="black"></text>

 <image class="custom-logo" href="" x="50%" y="50%" width="150" height="150" />
</svg>