<svg version="1.1" class="sleeve-right" id="R1070_Zip_Hoodie_Fleece_Right_A" xmlns="http://www.w3.org/2000/svg" xmlns:xlink="http://www.w3.org/1999/xlink" viewBox="0 0 2048 2048" width="2048" height="2048">
<g id="custom-color-swatches">
	<g id="Group_R1070_Rib" link="rib">
		<g id="Pattern_R1070_Rib_001">
			<path id="Option_R1070_Rib_001_3" d="M1059.2,1917.1l-0.4-0.1l-0.2-0.4c-4.2-7.8-9.6-16.5-13.4-22.3l-1.7-2.6
				l2.9,1.1c1.7,0.6,3.5,0.9,5.2,0.8c7.2,0,17-3,24.9-5.5c2.8-0.9,5.3-1.6,7.3-2.1c7.5-1.9,13.1-3.9,19.5-6.2
				c2.3-0.8,4.7-1.7,7.3-2.6c10.1-3.4,36.9-18.5,45.1-24.4c5.5-3.9,7.2-9,8.2-13.1l-0.1-0.2c-0.8-1.9-1.4-3.8-1.9-5.8
				c-0.1-0.3-0.1-0.6-0.2-0.9v-0.2c-0.1-0.3-0.1-0.7-0.1-1v-0.1c-0.1-0.4-0.1-0.7-0.1-1.1v-0.1c-0.1-0.4-0.1-0.8-0.1-1.2v-0.2
				c0-0.9-0.1-1.8-0.1-2.8v-3.3l0.1-5.3l0.7-0.2c4.6-1.7,8.6-3.2,11.7-4.6c9.9-4.4,22.4-12.7,27.9-16.9c4.1-3.1,10.8-6.4,18.3-9
				l1.7-0.6l-0.4,1.7c-0.4,1.9-0.7,3.5-0.9,4.7c-0.7,3.7-1.5,8.5-2.5,13.7l-0.6,3.2l-0.5,0.2c-3.2,1.1-6.3,2.8-9,4.9
				c-4,3.5-16.6,13.9-21.4,16.4l-0.6,0.3c-3.8,1.9-12.4,6.2-19.6,8.5c1.8,4.4,4.4,10.1,7.8,16.9l0.3,0.6c0.5,1.1,1.3,2.4,2.4,4.2
				l0.3,0.5l-0.3,0.5c-3.5,6.2-8.3,11.6-14.1,15.8c-9.8,7.1-36.3,21-46.1,24.6c-10.7,4-36.8,12.6-44.3,13.9
				c-2.7,0.5-5.5,0.8-8.3,0.8C1062.4,1917.6,1060.8,1917.5,1059.2,1917.1z M828.2,1847.6c-19.9-0.7-44.8-2.5-61.4-10.2l-0.4-0.2
				l-0.1-0.4c-4.2-12.2-7.8-23.6-7.8-23.7l-0.6-1.9l3.1,1c6.6,2.2,13.5,4.5,17.1,5.8c8.6,3.2,41.8,6.1,52.9,6.4h2.6
				c14.8,0,52.4-2,68.4-3c4.8-0.3,10.9-0.5,18.4-0.5s15.6,0.2,22.6,0.3c5.8,0.1,11.4,0.2,15.7,0.2h4c10.9-0.3,11.2-0.3,15.1-0.7
				l2.1-0.2c1.4-0.1,3.1-0.2,5.3-0.2c4,0,8.9,0.2,15.4,0.5h0.7l0.2,0.6c0.9,2.3,1.7,4.3,2.1,5.3c1.4,3.5,2.4,8.8,3.5,14.3l0.4,2
				c0,0.3,0.1,0.5,0.2,0.8l0.4,1.5h-1.3c-4.5-0.1-8.5-0.2-12.2-0.2c-5.9,0-11.2,0.2-15.9,0.5c-17,1.2-43.1,1.5-62.1,1.5
				c-6.5,0-15.2,0.1-25.2,0.3c-12.3,0.2-26.2,0.4-39.1,0.4C842.4,1847.8,834.6,1847.8,828.2,1847.6z" fill="#98989A" fill-rule="evenodd"></path>
			<path id="Option_R1070_Rib_001_2" d="M1067,1937.9l-0.8-0.1l-0.2-0.8c-0.5-2.7-1.1-5.1-1.6-7.2
				c-0.8-3-2.8-7.5-6-13.4l-1-1.9l2.2,0.5c1.4,0.3,2.8,0.5,4.2,0.4c2.7,0,5.4-0.3,8-0.8c7.3-1.3,33.6-9.9,44-13.8
				c9.8-3.6,35.9-17.3,45.6-24.3c5.6-4,10.2-9.2,13.5-15.2l0.8-1.4l0.9,1.4c0.6,1,1.2,1.9,1.8,2.8c0.5,0.7,0.9,1.4,1.3,2.1l0.4,0.7
				l0.4,0.6l0.4,0.6c0.1,0.2,0.2,0.3,0.2,0.5c0.8,1.5,1.8,2.9,2.9,4.2l0.2,0.2v0.2c0.6,2.6,2.6,5.7,4.5,8.4l0.4,0.6l-0.5,0.6
				c-5.1,6.1-13.9,13.4-23,19.2c-10.7,6.7-38.9,20.7-48.3,23.4c-3.2,0.9-8.2,2.6-13.5,4.3c-9.8,3.2-21,6.9-25.1,7.3l-2.2,0.3
				c-2.5,0.4-5,0.6-7.6,0.6C1068.4,1938,1067.7,1938,1067,1937.9z M1051.6,1895.6c-2,0-4.1-0.3-6-1l-0.3-0.1l-0.2-0.3
				c-2.3-3.6-3.9-6-3.9-6l0,0c0-0.1-4.3-5.7-8.6-10.9l-1.7-2l2.6,0.4c0.7,0.1,1.5,0.2,2.2,0.2c3.2-0.1,6.3-0.5,9.4-1.3
				c5.1-1.2,10.6-2.9,15.4-4.4c3.8-1.2,7-2.2,9.1-2.6c3.2-0.6,6.4-1,9.7-1.2c4.4-0.3,8.8-0.9,13.2-1.9c5.3-1.2,10.7-5.2,16.4-9.3
				c3.9-3,8-5.7,12.3-8c3.8-1.9,8.3-3.6,12.6-5.3c6.9-2.7,14.1-5.5,18.2-8.7c3.8-3.1,6.9-6.8,9.3-11.1l1.9-3.1v3.6
				c-0.2,3.5,0.1,7,0.6,10.5c0.4,1.6,0.9,3.1,1.5,4.6c7-2.2,15.7-6.6,19.4-8.4l0.6-0.3c4.7-2.3,17-12.7,21-16.1
				c2.9-2.3,6.1-4,9.6-5.2l1.7-0.6l-0.3,1.8c-1.1,6-2.8,15.7-3.6,19.8c-0.4,2.1-0.5,2.6-0.9,2.7c-4.2,4.2-9.8,8.8-14,12.2
				c-1.4,1.2-2.6,2.2-3.5,2.9c-3.9,3.3-14.4,9.9-20.9,13.3l-0.9,0.5l-1.2-2.2c-1.3-2.4-4.6-9.2-7.3-15.4c-1.4,4.7-4.3,8.8-8.3,11.7
				c-8.3,6-35,21.1-45.6,24.7c-2.7,0.9-5,1.8-7.3,2.6c-6.5,2.3-12,4.2-19.7,6.2c-1.9,0.5-4.3,1.2-7.2,2.1
				C1069.1,1892.5,1059.2,1895.6,1051.6,1895.6L1051.6,1895.6z M875.3,1869.4c-1.7,0-3.2,0-4.5,0c-2.7-0.1-5.7-0.1-9.3-0.1h-22.9
				c-14.2,0-29.8-0.3-38.9-2.7c-7.5-2-18.2-5.4-26.3-10.5l-0.3-0.2l-0.1-0.3c-2-5.2-4.2-11.4-6.8-18.9l-0.8-2.2l2.1,1
				c16.3,7.6,41,9.3,60.7,10c6.3,0.2,14.1,0.3,23.8,0.3c12.9,0,26.8-0.2,39.1-0.4c10-0.1,18.7-0.3,25.2-0.3c19,0,45.1-0.2,62-1.5
				c4.8-0.3,10.1-0.5,16.1-0.5c3.7,0,7.7,0.1,12.2,0.2h0.7l0.2,0.7c0.7,2.4,2.1,4.7,3.9,6.4l0.6,0.7c0.5,0.6,0.6,1.6,0.1,2.2
				c0.2,0.8,0.4,1.6,0.8,2.4c0.3,0.7,1,1.5,3.5,1.5h0.4l1.2,1.3l1.9,2.1c1.9,2,3.5,3.8,5,5.2l0.1,0.1l1.4,1.9l-2.2-0.2
				c-2.4-0.2-5-0.4-7.6-0.6c-7.6-0.5-18.5-1.2-27.3-1.2c-5.2,0-20.8,0.5-38.8,1.2C924.3,1868.2,891.5,1869.4,875.3,1869.4
				L875.3,1869.4z M833.5,1826.5c-1,0-1.9,0-2.7,0c-11.3-0.3-44.8-3.2-53.6-6.5c-3.5-1.3-10.4-3.6-17-5.8l-1.7-0.6l-0.2-0.5
				c-1.5-4.7-3-9.3-4.4-13.7l-2.5-7.8l1.9,0.7c1.7,0.6,3.3,1.2,4.6,1.6c0.7,0.2,1.3,0.4,1.8,0.6c3,1.1,6.3,1.2,11.4,1.5l3.4,0.2
				c5.9,0.4,11.7,1.5,17.4,3.3c4.4,1.4,8.9,2.4,13.5,3.3c2.4,0.5,10.1,0.7,22.8,0.7c8.6,0,17.9-0.1,25.3-0.2c4.9-0.1,9-0.1,11.4-0.1
				c6.2,0,19.7-1.2,31.6-2.2c8.5-0.8,15.8-1.4,19.1-1.5c6.3-0.2,24.3-0.2,34.9-0.2h9.4c2.8,0,4.9-0.1,7-0.2c1.7-0.1,3.4-0.1,5.1-0.1
				h0.6c4.1,0,7.7,0.1,10.9,1c1.7,0.4,3.4,0.5,5.1,0.6c1.1,0.1,2.3,0.2,3.7,0.3h0.6l0.2,0.6c0.5,1.2,0.8,2.1,1,2.6
				c0.7,2.1,4.1,10.6,6.8,17.6l0.6,1.4l-1.5-0.1c-6.3-0.3-11.3-0.5-15.3-0.5c-2.1,0-3.8,0.1-5.1,0.2l-2.1,0.2
				c-4,0.4-4.2,0.4-15.2,0.7h-4c-4.3,0-9.9-0.1-15.7-0.2c-7-0.1-15-0.3-22.5-0.3s-13.5,0.1-18.3,0.5
				C886.1,1824.6,848.4,1826.5,833.5,1826.5L833.5,1826.5z M1161.4,1819.5l0.1-1.5c0.1-4.1,0.4-8.9,0.8-14.3l0.1-1.8l0.1-0.2
				c0.7-1.4,1.3-2.8,1.7-4.3l0.2-0.7l0.7-0.1c10.7-1.3,12.7-3.3,15.1-6c0.5-0.5,1-1.1,1.7-1.7c2.9-2.6,6.1-4.9,9.5-6.9
				c2.5-1.6,5.3-3.3,8.6-5.7c7-5,16.6-8,24.3-10.4l0.8-0.3l0.2,0.7l1.1,0.3c-2.3,9-3.9,16.2-5,21.2l-0.1,0.6l-0.5,0.2
				c-7.3,2.5-13.8,5.7-17.8,8.7c-5.6,4.3-18.2,12.7-28.3,17.1c-3.2,1.4-7.2,3-11.8,4.6L1161.4,1819.5z" fill="#171717" fill-rule="evenodd"></path>
			<path id="Option_R1070_Rib_001_1" d="M1072.1,1958.7c-2.2-1.3-3.2-6.3-4.8-15.1c-0.4-2.1-0.8-4.2-1.2-6.4l-0.2-1.3
				l1.3,0.1c0.6,0.1,1.3,0.1,1.9,0.1c2.5-0.1,4.9-0.2,7.3-0.6c0.8-0.1,1.5-0.2,2.2-0.3c3.9-0.4,14.9-4.1,24.7-7.3
				c5.3-1.8,10.3-3.4,13.6-4.3c9.3-2.7,37.3-16.5,47.8-23.2c8.9-5.6,17.5-12.8,22.5-18.8l0.8-1l0.7,1c0.7,0.9,1.4,1.9,2.1,2.8
				c3.1,4.2,6,8.2,5.9,11.2c-0.3,12.7-34.3,36.3-51.2,43.3c-31.6,13.1-53.6,21.2-65.9,21.2
				C1077.1,1960.4,1074.5,1959.8,1072.1,1958.7z M892.5,1891.4c-21.9,0-52.5-0.6-58.6-0.9c-1.7-0.1-40.9-2.3-51.9-15.9
				c-2.2-2.7-5.1-8.9-8.9-19l-1.1-2.8l2.5,1.6c6.3,3.9,15.2,7.5,25.8,10.2c8.9,2.3,24.4,2.6,38.4,2.6h22.9c3.6,0,6.7,0.1,9.3,0.1
				h4.4c16.1,0,48.9-1.1,75.2-2.1c18.1-0.6,33.7-1.2,38.9-1.2c8.8,0,19.8,0.6,27.5,1.2c1.7,0.1,3.4,0.2,5,0.4
				c-2.4-2.5-4.7-5.1-6.1-6.6l-1.5-1.7h2.5c2-0.1,4.1-0.3,6.1-0.5l2.9-0.3c2.8-0.3,7.5-1.6,11.9-2.9c3.7-1.2,7.5-2.1,11.3-2.9
				c1.8-0.3,4.3-0.4,7.5-0.6c7.9-0.4,19.8-1,29.1-4.7c3.7-1.4,13.9-8.1,21.3-13c3.8-2.5,6.9-4.5,8-5.1c7.4-3.9,13-6.2,16.8-6.8h0.2
				c5.2-0.8,11.8-1.8,16.2-3.8c4.2-1.9,9.3-6.8,12.7-12.1c0.6-1,1.2-2,1.7-3l1.9,0.5c-0.6,8.3-1,15.1-1,20.4v0.3l-0.2,0.3
				c-2.5,4.4-5.8,8.4-9.8,11.6c-4.3,3.3-11.6,6.2-18.7,8.9c-4.3,1.7-8.7,3.4-12.4,5.2c-4.2,2.3-8.2,4.9-12,7.8
				c-5.6,4.1-11.4,8.3-17.2,9.6c-4.4,1-8.9,1.6-13.4,1.9c-3.2,0.2-6.3,0.6-9.4,1.2c-2,0.4-5.3,1.4-9,2.6c-4.9,1.5-10.4,3.2-15.6,4.4
				c-3.2,0.8-6.5,1.3-9.8,1.4h-0.1c3.7,4.6,7.2,9.1,7.2,9.1l1.2,1.6h-2c-0.4,0-39.9,0.1-49.8,0.1c-9.6,0-62.1,1.6-79.1,2.3
				C908.9,1891.3,902,1891.4,892.5,1891.4L892.5,1891.4z M1183.8,1875.5l-1.1-1.3c-1.2-1.4-2.3-3-3.1-4.6c-0.5-0.9-1.5-2.5-2.6-4.2
				c-1.2-1.9-2.6-4-3.7-5.9l-0.5-0.9l0.9-0.5c7.1-3.8,17.1-10.1,20.5-13.1c0.9-0.7,2.1-1.8,3.5-2.9c4.2-3.5,10-8.2,14.2-12.4
				l2.2-2.2l-0.5,3.1c-0.6,3.8-1.1,6.9-1.5,9.4c-1.2,8.5-12,18.5-19.9,25.8c-3.8,3.5-7.3,6.8-7.8,8.2L1183.8,1875.5z M828.4,1805.5
				c-13,0-20.6-0.2-23.2-0.7c-4.6-0.8-9.2-1.9-13.7-3.3c-5.5-1.8-11.1-2.9-16.9-3.2l-3.4-0.2c-5.3-0.3-8.8-0.5-12-1.6
				c-0.5-0.2-1.1-0.4-1.8-0.6c-1.3-0.4-2.9-0.9-4.7-1.6l-0.5-0.2l-0.1-0.5c-2.7-8.4-7.2-22.6-8.2-23.7l1-1.7
				c0.1,0,12.3,4.5,19.3,5.9c3.3,0.5,6.6,0.8,9.9,0.7c2,0,4-0.1,5.7-0.1c1.4-0.1,2.6-0.1,3.6-0.1c0.8,0,1.6,0,2.4,0.2h0.6l0.3,0.4
				c0.2,0.3,0.2,0.6,0.1,0.9c0,0-0.2,0.9,1.1,4.5c1.4,3.9,11.6,3.9,15,3.9c1.7,0,3.3-0.1,4.8-0.1h4.5c2.9,0.1,6,0.3,10,0.6
				c5.5,0.4,12.3,0.9,21.6,1.1h2.6c13.9,0,30.4-2.8,38.4-4.2l2-0.3c2.9-0.5,9.2-0.7,19.3-0.7c8.7,0,18.5,0.2,24.9,0.3
				c3.4,0.1,6.1,0.1,7.4,0.1h12.8c4.1,0,7,0,9.3-0.1c5-0.2,18.5-0.4,22.5-0.4c1.2,0,2.4,0.7,2.8,1.9c1.3,3.1,5.5,13.5,7.6,18.7
				l0.6,1.5l-1.6-0.1c-1.4-0.1-2.6-0.2-3.7-0.2c-1.9,0-3.7-0.2-5.6-0.7c-3-0.8-6.2-0.9-10.4-0.9h-0.6c-1.7,0-3.3,0.1-5,0.1
				c-2,0.1-4.2,0.2-7,0.2h-9.4c-10.5,0-28.5,0.1-34.8,0.2c-3.2,0.1-10.5,0.7-19,1.5c-11.9,1.1-25.4,2.2-31.7,2.2
				c-2.4,0-6.5,0.1-11.4,0.1C846.3,1805.4,837,1805.5,828.4,1805.5L828.4,1805.5z M1163.7,1798.8l0.3-1.4c0.2-0.7,0.3-1.4,0.2-2.1
				c-0.1-0.2-0.4-0.4-0.8-0.6c-0.6-0.3-1.1-0.7-1.5-1.3c-0.4-0.9-0.4-2.6-0.4-6.3v-2.4c0-2.9-0.4-5.8-1.3-8.5
				c-0.4-1.2-0.6-2-0.2-2.6s1-0.7,2.3-0.7h5.5l4,0.1l6.9,0.1h2.5c0.9,0,1.8,0,2.8-0.1c2.1-0.4,6.3-2.9,7-4.9
				c0.2-0.8,0.2-1.6-0.1-2.3c-0.4-0.7-0.3-1.6,0.3-2.2c0.5-0.8,0.9-1.7,1.2-2.7l0.2-0.7c0.3-0.9,0.2-3.2,0.1-5.3
				c-0.2-3.3-0.3-5.4,0.4-6.4c0.7-1.1,2.4-1.2,5.4-1.5c0.9-0.1,2-0.2,3-0.3s2.1-0.3,3.3-0.5c2.1-0.3,4.2-0.6,6.3-0.8
				c2-0.2,5.8-0.3,11.6-0.3c4.2,0,8,0.1,8,0.1h1.3l-0.3,1.2c0,0.1-2.6,9.9-5.3,20.7l-0.1,0.5l-1.4,0.4c-8,2.5-17.1,5.4-23.8,10.1
				c-3.4,2.4-6.2,4.2-8.7,5.7c-3.3,1.9-6.4,4.1-9.2,6.7c-0.6,0.6-1.1,1.1-1.6,1.6c-2.8,2.9-4.9,5.3-16.4,6.6L1163.7,1798.8z" fill="#171717" fill-rule="evenodd"></path>
		</g>
		<g id="Pattern_R1070_Rib_000">
			<path id="Option_R1070_Rib_000_1" d="M1079.2,1960.3c-1.3,0-2.6-0.2-3.8-0.4c-1.1-0.2-2.1-0.6-3.1-1.2
				c-1-0.6-1.7-1.8-2.4-4c-0.1-0.5-0.3-0.9-0.4-1.5c-0.5-2-1-4.4-1.5-7.4l-0.4-2.2c-0.4-2.1-0.8-4.4-1.2-6.7
				c-0.2-1.1-0.5-2.3-0.7-3.5s-0.5-2.3-0.8-3.4c-0.8-2.8-1.9-5.4-3.2-8c-0.7-1.6-1.5-3.2-2.5-5l-0.9-1.7c-0.7-1.2-1.3-2.3-2-3.5
				l-1-1.8c-0.7-1.2-1.4-2.3-2.1-3.5c-5-8.4-10.1-16-11.3-17.9c-4.8,0-40,0.1-49.2,0.1c-9.6,0-62.1,1.6-79.1,2.3
				c-4.3,0.2-11.2,0.3-20.7,0.3c-21.9,0-52.5-0.6-58.6-0.9c-1.7-0.1-40.9-2.3-51.9-15.9c-6.3-7.8-18.8-46.8-27.9-75.3
				c-4.6-14.5-9-28.3-10-29.5l1-1.7c0.1,0,12.3,4.5,19.3,5.9c3.3,0.5,6.6,0.8,9.9,0.7c2,0,4-0.1,5.7-0.1c1.4-0.1,2.6-0.1,3.6-0.1
				c0.8,0,1.6,0,2.4,0.2h0.6l0.3,0.4c0.2,0.3,0.2,0.6,0.1,0.9c0,0-0.2,0.9,1.1,4.5c1.4,3.9,11.6,3.9,15,3.9c1.7,0,3.3-0.1,4.8-0.1
				h4.5c2.9,0.1,6,0.3,10,0.6c5.5,0.4,12.3,0.9,21.6,1.1h2.6c13.9,0,30.4-2.8,38.4-4.2l2-0.3c2.9-0.5,9.2-0.7,19.3-0.7
				c8.7,0,18.5,0.2,24.9,0.3c3.4,0.1,6.1,0.1,7.4,0.1h12.8c4.1,0,7,0,9.3-0.1c5-0.2,18.5-0.4,22.5-0.4c0.9,0,1.7,0.4,2.3,1l0,0
				c0.2,0.3,0.4,0.6,0.5,0.9l2.7,6.7c2.3,5.7,5.2,12.8,5.8,14.6c1.1,3.1,7.5,19.2,8.9,22.9c1.4,3.5,2.4,8.8,3.5,14.3l0.4,2
				c0.6,2.8,2,5.4,4.1,7.4c0.3,0.3,0.5,0.5,0.7,0.8c0.5,0.6,0.6,1.6,0.1,2.3c0.2,0.8,0.4,1.6,0.8,2.3c0.3,0.7,1,1.5,3.5,1.5h0.2
				c2-0.1,4.1-0.3,6.1-0.5l2.9-0.3c2.8-0.3,7.5-1.6,11.9-2.9c3.7-1.2,7.5-2.1,11.3-2.9c1.8-0.3,4.3-0.4,7.5-0.6
				c7.9-0.4,19.8-1,29.1-4.7c3.7-1.4,13.9-8.1,21.3-13c3.8-2.5,6.9-4.5,8-5.1c7.4-3.9,13-6.2,16.8-6.8h0.2
				c5.2-0.8,11.8-1.8,16.2-3.8c4.2-1.9,9.3-6.8,12.7-12.1c0.3-0.5,0.6-1,0.9-1.5l0.1-0.1c0.3-0.5,0.5-0.9,0.7-1.4
				c1.9-3.8,2-6,1.9-6.5c-0.1-0.2-0.4-0.4-0.8-0.6c-0.6-0.3-1.2-0.7-1.5-1.3c-0.7-1.4-0.5-5.5-0.3-8.8c0-0.5,0-1.1,0-1.7
				c-0.1-1.4-0.3-2.8-0.6-4.1c-0.6-3.1-1.8-6-3.5-8.7l1.7-1.1c0.8,1.2,1.5,2.5,2.1,3.8c1.3-0.1,2.6-0.2,3.9-0.1
				c2.4,0,5.6,0.1,8.5,0.1s5.6,0.1,7.6,0.1c0.9,0,1.8,0,2.8-0.1c2.1-0.4,6.3-2.9,7-4.9c0.2-0.8,0.2-1.6-0.1-2.3
				c-0.4-0.7-0.3-1.6,0.3-2.2c0.5-0.8,0.9-1.7,1.2-2.7l0.2-0.7c0.3-0.9,0.2-3.2,0.1-5.3c-0.2-3.3-0.3-5.4,0.4-6.4
				c0.7-1.1,2.4-1.2,5.4-1.5c0.9-0.1,2-0.2,3-0.3s2.1-0.3,3.3-0.5c2.1-0.3,4.2-0.6,6.3-0.8c2-0.2,5.8-0.3,11.6-0.3
				c4.2,0,8,0.1,8,0.1h1.3l-0.3,1.2c-0.1,0.4-9.1,34.8-11.1,46.3c-0.6,3.7-1.5,8.4-2.5,13.7c-2.1,11.2-4.7,25.3-5.8,33.7
				c-1.2,8.5-12,18.5-19.9,25.8c-3.6,3.3-6.9,6.4-7.7,7.9c0.1,0.5,0.3,1.1,0.5,1.6c0.4,1,0.9,1.9,1.4,2.8c0.1,0.2,0.3,0.5,0.4,0.7
				c0.7,1.1,1.4,2.2,2.5,3.8l1.4,2c0,0,1,1.3,1.3,1.8c0.8,1.2,1.5,2.1,2,2.9c0.6,0.9,1.1,1.8,1.6,2.8c0.7,1.2,1,2.5,1.1,3.9
				c-0.1,2.6-1.5,5.9-4.5,9.6c-3.8,4.6-8.1,8.7-12.7,12.4c-1.2,1-2.6,2.1-3.9,3.1c-0.6,0.5-1.3,1-2,1.5c-2,1.5-4.2,3-6.2,4.4
				c-2.1,1.4-4.2,2.8-6.3,4.1c-1.4,0.9-2.8,1.7-4.2,2.5c-2,1.2-4,2.2-5.9,3.2s-3.7,1.8-5.4,2.5c-6.8,2.8-12.6,5.2-17.8,7.2
				c-3.5,1.3-6.5,2.6-9.5,3.7c-2,0.8-3.9,1.5-5.8,2.1s-3.7,1.3-5.5,1.9c-5.9,2.1-12,3.8-18.1,5.2c-1.3,0.2-2.5,0.5-3.6,0.6
				c-0.6,0.1-1.1,0.2-1.7,0.2c-1,0.1-2.1,0.2-3.1,0.2h-0.8L1079.2,1960.3z" fill="none" fill-rule="evenodd"></path>
		</g>
	</g>
	<g id="Group_R1070_Pockets_Body" link="pocket">
		<g id="Pattern_R1070_Pockets_Body_000">
			<path id="Option_R1070_Pockets_Body_000_1" d="M1160,1775l-0.3-0.6v-0.1c-0.6-1.5-1.3-3-2.2-4.3
				c-1.8-2.8-8-12.4-11.6-16.6c-1.5-1.7-5.3-5.1-9.3-8.6c-9.3-8.3-15.5-13.9-16.1-16.4c-0.5-2.7-0.7-5.5-0.8-8.3
				c0-2-0.2-3.9-0.4-5.8c-0.2-1.5-5-17.4-11.4-37.6v-0.2v-0.2c0.1-14.4,0.4-35.3,0.7-36.8c0.4-2,3.9-5,8.9-9.1
				c1.2-1,2.3-1.9,3.1-2.6c3.3-2.8,24.7-24.3,27-27.2s29.4-40,32.2-45.5s6.6-15,11.3-29c4.7-13.9,9.5-43.8,9.9-51.2
				c0.3-5.2,0.6-20.8,0.8-31.1c0.1-4.9,0.2-8.4,0.2-9.2c0.1-1.1,0-2.2,0-4.1c-0.1-2.3-0.2-5.4-0.2-10.4c0-4.3,0.4-8.6,1.3-12.9
				c0.2-0.8,0.3-1.6,0.4-2.4c0.2-2.6,3.4-6.5,5.2-7.6c0.8-0.5,1.7-0.7,2.6-0.6h2.3c0.4,0,0.8,0,1.2-0.1c0.9-0.3,1.9-1.5,2.8-2.5
				c0.5-0.6,1-1.2,1.6-1.7c0.8-0.7,1.9-1,2.9-0.9h1.8c0.4,0,1.3-0.2,2.9-0.3s3.4-0.4,5.2-0.6l0.9-0.1l0.2,0.9l0.1,0.5l0.1,0.8
				c0.1,0.1,0.1,0.3,0.1,0.4v0.7c-0.1,1-0.2,1.9-0.4,2.8l-0.8,279.8v0.8l-0.3,0.1l0.3,0.4c0,0-0.2,61.2-0.2,61.5
				c0,0.3,0.1,0.6,0.2,0.9c0.4,1,0.5,2.1,0.5,3.2c-0.1,2.5-1.2,3.4-1.4,3.5l-0.3,0.2h-0.3c-0.1,0-3.8-0.1-8-0.1
				c-5.6,0-9.5,0.1-11.4,0.3c-2.1,0.1-4.2,0.5-6.2,0.8c-1.2,0.2-2.3,0.3-3.3,0.5c-1.1,0.1-2.1,0.2-3,0.3c-1.3,0-2.6,0.2-3.9,0.6
				c-0.3,0.6-0.2,3.5-0.1,5.2c0.1,2.4,0.3,4.8-0.2,6l-0.2,0.7c-0.3,1.2-0.8,2.3-1.5,3.3c0,0.1,0.1,0.2,0.1,0.3
				c0.4,1.1,0.5,2.4,0.1,3.6c-1,2.9-5.8,5.8-8.6,6.2c-1,0.1-2.1,0.2-3.1,0.1c-2,0-4.6-0.1-7.6-0.1s-6.1-0.1-8.5-0.1
				c-1.2,0-2.5,0-3.7,0.1c-0.2,0.2-0.4,0.3-0.7,0.3L1160,1775z" fill="#171717" fill-rule="evenodd"></path>
		</g>
	</g>
	<g id="Group_R1070_Sleeves" link="sleeves">
		<g id="Pattern_R1070_Sleeves_000">
			<path id="Option_R1070_Sleeves_000_1" d="M1011.1,1856.9c-1.2-2.7-1.2-3.6-0.7-4.2c-0.2-0.2-0.4-0.4-0.6-0.6
				c-2.3-2.3-3.9-5.2-4.6-8.3l-0.4-2c-1.1-5.5-2.1-10.7-3.4-14c-1.5-3.7-7.9-19.8-9-22.9c-0.5-1.4-2.5-6.4-5.8-14.6l-2.7-6.7
				c0-0.1-0.1-0.2-0.2-0.3c-0.7-0.7-1.2-1.5-1.6-2.3c-1.4-3.4-3.2-7.1-4.9-10.7c-1.5-3.2-2.9-6.1-4-8.7l-4-9.2
				c-6.6-15.3-18.9-43.8-21.5-50.5c-0.9-2.5-2.4-6.2-4.1-10.5c-4-10.2-9-22.8-10.9-28.8c-0.4-1.4-1-3.2-1.7-5.3
				c-3.5-11.1-9.2-29.6-11.2-37.5c-2.3-9.4-15.4-41.9-21.6-54.5c-6.9-14.1-46.4-128.1-51.6-148.9c-1.5-6-3.8-14.7-6.2-23.8
				c-6.1-23.2-13.7-52-15.2-62.5c-2.1-14.9-2.6-67-2.6-73.4c0-2.8-0.5-17.4-1.2-34.3c-0.8-23.5-1.9-52.7-2-62.6
				c-0.1-16,1-56.3,1.4-69.5v-2.1c0-5.7-0.5-11.4-1.5-17c-0.7-4.5-1.3-9.1-1.5-13.6l-0.1-3.3c-0.5-11.7-1.4-33.6-1.2-41.7
				c0.1-4.5,1.5-11.1,2.9-17.9s2.8-13.8,3-18.4c0-5.9-0.3-11.8-0.9-17.7c-0.3-2.8-0.5-5.7-0.5-8.5c0.1-2.7,0.5-5.3,1.1-7.9
				c0.2-1.2,0.5-2.5,0.7-3.9c0.5-2.9,0.6-10,0.8-15.2c0.1-2.7,0.1-4.8,0.2-5.7c0-1.4-4.3-11.8-7.7-20s-7-16.8-8.3-20.9
				c-2.3-7.4-2.4-12-2.4-19.5c-0.1-1.8-0.1-3.8-0.1-6c0-8,0.4-15.9,1.3-23.9c0.2-2.1,0.4-3.7,0.4-4.7c0.2-4.3,3.1-11.1,3.8-12.7
				c0.6-1.2,0.9-8,1.1-11.6c0.1-1,0.1-1.9,0.1-2.7c0.2-3.2,3.7-14.6,10.4-34.1c2.1-6.1,5.5-15,8.9-23.6c3.6-9.3,7-18.1,7.6-20.4
				c0.5-3,0.8-6,0.8-9c0-2.2,0.2-4.3,0.5-6.5c0.7-4.2,4.4-20.2,5.5-24.6c0.3-1,6.6-24.8,7.6-30.2c1.4-8.3,2.3-16.6,2.7-25
				c0.2-7.4,3.6-18.7,4.7-22.4l0.2-0.6c0.2-0.8,0.6-1.8,0.9-3c1-3.2,2.5-8.1,2.7-9.5c0.2-1.6,1.9-9.1,3.6-11.5l0.2-0.3l0.4-0.1
				c0.9-0.2,1.8-0.3,2.7-0.3c0.7,0,1.5,0.1,2.1,0.4c1.6,0.7,5.9,1.2,10.4,1.7c1.8,0.2,3.6,0.4,5.5,0.6c2.7,0.3,5.4,0.6,8.3,0.8
				c4.4,0.4,9,0.8,13.7,1.6c4,0.8,8,1.9,11.8,3.3c3.1,1.1,6.3,2.1,9.5,2.9c4.3,1,14.9,3,25.2,4.9c8,1.5,15.7,2.9,19.3,3.7
				c6.6,1.4,16.1,4.9,23.1,7.5c2,0.8,3.8,1.5,5.3,2c2.4,0.8,5,1.6,7.9,2.3c5.2,1.4,11.1,3,16,5.6c1.2,0.7,2.4,1.6,3.3,2.6l0.2,0.2
				l0.5,1.4c2.5,7.9,5.3,16.9,7.8,20.4c5,6.9,18.6,24.3,27.6,34.9c9.5,11.2,22.7,33,26.4,39.4c3,5.1,7.8,18.3,11.6,29
				c1.7,4.6,3.1,8.6,4.1,11.2c3.5,8.8,6.4,21.7,7.5,27.2c0.8,4.3,1.7,6.7,4.1,13.2l1.7,4.5c3.9,10.5,10.6,45.4,9.6,68.6
				c-0.2,3.6-1.6,6.8-3.2,10.4c-0.2,0.5-0.5,1.1-0.7,1.6c-4.7,11-12.8,22.9-16.7,28.6l-1.1,1.6c-3.8,5.6-22,28.2-29.8,37.9l-3,3.7
				c-1.1,1.4-5.9,9-6.8,16.8c-0.6,5.4-5.5,15-8.7,21.4c-1,1.9-1.9,3.8-2.8,5.8c-0.4,1.4-0.7,16.7-0.9,30.2
				c-0.2,13.3-0.4,27-0.8,34.5c-0.6,10.3-4.2,29.1-7.2,44.1c-1.6,8.1-3,15.1-3.3,18c-1,9.1-0.5,38.3-0.3,47
				c0.3,13-2.8,56.1-4.3,76.8l-0.4,5.8c-0.5,7.2-1.7,14.4-3.5,21.5c-1,4-1.7,7.2-1.6,9.7c0.1,1.2,0.1,2.4,0.2,3.4
				c0.4,4.5,0.4,9,0,13.4c-0.5,4-1.2,8.1-2.2,12c-1.2,4.6-2,9.3-2.5,14.1c-0.4,5.6-0.5,11.9-0.6,18.1c-0.1,3.2-0.1,6.4-0.2,9.4
				c-0.2,4.7-2.1,9.1-3.9,12.9c-1.6,3.5-3.1,6.8-2.8,9.5c0.2,2.3,2.3,5.5,4.8,9.3c3.7,5.7,8.3,12.7,9.8,21.3
				c2.2,11.1,1.5,22.6-2.1,33.3c-0.7,2.3-1.2,4.1-1.1,5.1c0.2,1.5,2.6,4,5,6.8c3.5,3.9,7.8,8.7,9.1,13.6s-0.6,9.4-2.3,13.4
				c-1.2,2.9-2.2,5.4-1.8,7.4c0.6,2.8,4,7.1,7.2,11.3c2.6,3.4,5,6.5,6.2,9c2.7,5.7,3.6,35.4,3.6,36.6c0.4,4,1.2,4.7,2.2,5.6
				c1.7,1.5,3.8,3.4,5.4,16.1c0.5,4.1,4.4,16.7,6.1,22c0.3,0.9,0.5,1.7,0.6,2.1c0.8,2.2,1.9,4.2,3.1,6.2c1.1,1.9,2.3,4.1,3.3,6.3
				c2.5,5.2,5.7,21.4,5.9,24.3c0.3,2.8,3.8,11.6,5.5,15.2s23.5,73.3,24.1,76.9c0.3,2,0.4,4.1,0.5,6.1c0,2.6,0.3,5.3,0.7,7.9
				c0.5,2.1,9.5,10.1,15.5,15.3c4.2,3.8,7.9,7,9.5,8.8c3.7,4.2,10,13.9,11.8,16.8c1.8,2.9,3.1,6.1,3.8,9.4c0.3,1.5,0.5,2.9,0.6,4.4
				c0,0.6,0,1.3,0,1.9c-0.3,4.9-0.1,7.3,0.1,7.8c0.2,0.2,0.4,0.3,0.7,0.4c0.8,0.3,1.4,0.9,1.7,1.7c0.7,1.7-0.4,6-3.8,11.2
				c-3.6,5.7-8.8,10.6-13.5,12.8s-11.4,3.2-16.7,3.9h-0.2c-3.5,0.5-9,2.7-16.1,6.5c-1,0.5-4.2,2.6-7.8,5
				c-7.5,4.9-17.8,11.7-21.7,13.2c-9.6,3.8-21.7,4.4-29.7,4.8c-3,0.2-5.7,0.3-7.3,0.5c-3.7,0.7-7.4,1.7-11.1,2.8
				c-4.5,1.3-9.3,2.7-12.3,3l-2.9,0.3c-2.1,0.3-4.2,0.5-6.3,0.6C1014.7,1859.4,1012.3,1859.1,1011.1,1856.9z" fill="#98989A" fill-rule="evenodd"></path>
		</g>
	</g>
	<g id="Group_R1070_Body" link="body">
		<g id="Pattern_R1070_Body_000">
			<path id="Option_R1070_Body_000_1" d="M843.9,1788c-9.3-0.3-16.2-0.7-21.7-1.1c-4-0.3-7.1-0.5-9.9-0.6h-4.5
				c-1.5,0.1-3.1,0.1-4.8,0.1c-7.4,0-15.2-0.6-16.9-5.2c-0.6-1.5-1-3.1-1.2-4.7h-1.3c-1,0-2.2,0.1-3.5,0.1c-1.8,0.1-3.8,0.1-5.8,0.1
				c-3.5,0.1-6.9-0.2-10.3-0.8c-7.2-1.5-19.1-5.8-19.6-6l-0.2-0.1l-0.2-0.2c-2.9-2.7-3-7.4-3-8.4c-5.7-14.6-8-43.3-10.1-73.9
				c-1.1-16.6-0.8-33.2-0.5-50.9c0.2-12.9,0.4-26.2,0.1-39.6c-1.7-61.6-3.1-123-4-159.7c-0.5-19.4-0.8-32.2-0.8-34.8
				c-0.2-7.5-0.3-59.7,0.9-113c0.7-28.4,1.8-56.8,2.7-79.7c0.5-13.3,1-24.8,1.2-32.8c1.3-48.5,5.8-115.6,7-128
				c0.4-3.6,0.5-10.7,0.7-20.5c0.5-25.6,1.5-73.1,8.1-133.6c10.6-97.9,20.8-136.4,30.8-173.7l1.3-4.7c8.8-33.1,41.8-96.9,55.6-122.8
				c0.3-0.5,0.6-1,0.8-1.6c0.7-1.3,1.5-2.6,2.3-3.8c0.2-0.7,0.3-1.4,0.4-2.2c0.2-2.1,0.8-4.2,1.7-6.2c1.6-2.6,3.9-4.9,6.5-6.5
				l0.3-0.2h0.4c7,0.9,11.5,1.2,15.5,1.5h1.4c1.8,0,3.6-0.2,5.4-0.5l2.5-0.5l-1.2,1.8v0.5l-0.5,0.1c-1.3,2.2-2.8,8.6-3,10.2
				c-0.7,3.3-1.6,6.6-2.8,9.8c-0.4,1.2-0.7,2.3-0.9,3l-0.2,0.6c-1.1,3.7-4.4,14.8-4.6,21.9c-0.4,8.5-1.3,16.9-2.8,25.3
				c-1,5.5-6.9,27.8-7.6,30.4c-1.1,4.4-4.8,20.3-5.5,24.4c-0.3,2.1-0.4,4.2-0.4,6.2c0,3.2-0.3,6.3-0.9,9.4
				c-0.6,2.5-3.9,10.9-7.6,20.7c-3.3,8.6-6.8,17.5-8.8,23.5c-8.3,24-10.2,31.5-10.3,33.5c0,0.7-0.1,1.7-0.1,2.7
				c-0.3,6.1-0.6,10.9-1.3,12.4c-1,1.9-3.4,8.2-3.6,11.9c-0.1,1-0.2,2.7-0.4,4.8c-0.9,7.8-1.3,15.7-1.3,23.6c0.1,2.2,0.1,4.2,0.1,6
				c0,7.4,0.1,11.8,2.3,18.9c1.3,4.1,4.8,12.6,8.2,20.8c5.6,13.4,8,19.5,7.9,20.9c-0.1,0.8-0.1,3-0.2,5.6
				c-0.1,5.2-0.3,12.4-0.8,15.5c-0.2,1.5-0.5,2.8-0.7,4c-0.5,2.5-0.9,5.1-1,7.6c0,1.6,0.2,4.7,0.5,8.2c0.6,6,1,12,0.9,18
				c-0.1,4.8-1.6,11.9-3,18.8c-1.3,6.5-2.7,13.2-2.8,17.5c-0.3,8.1,0.7,29.9,1.2,41.6l0.1,3.3c0.3,4.5,0.8,9,1.5,13.4
				c1,5.7,1.5,11.5,1.6,17.4l-0.1,2.1c-0.4,13.2-1.5,53.4-1.4,69.4c0,9.9,1.1,39.1,2,62.5c0.6,16.9,1.2,31.5,1.2,34.4
				c0,5.6,0.6,58.5,2.6,73.2c1.5,10.4,9.1,39.2,15.2,62.3c2.4,9.1,4.7,17.8,6.2,23.8c5,19.9,44.9,135,51.4,148.5
				c6.3,12.9,19.3,45.2,21.7,54.9c2,7.8,7.8,26.3,11.2,37.4c0.7,2.1,1.2,3.9,1.7,5.3c1.8,5.9,6.8,18.5,10.8,28.7
				c1.7,4.3,3.1,8,4.1,10.5c2.5,6.7,14.8,35.1,21.4,50.4l4,9.2c1.1,2.6,2.5,5.5,4,8.7c1.7,3.6,3.5,7.3,4.9,10.8
				c0.3,0.6,0.7,1.2,1.2,1.8l0.1,0.1l0.1,0.2l-0.8,0.4l-0.8,0.7c-0.2-0.2-0.5-0.4-0.8-0.4l0,0c-4,0-17.4,0.2-22.4,0.4
				c-2.2,0.1-5.2,0.1-9.3,0.1h-12.8c-1.3,0-4,0-7.4-0.1c-6.5-0.1-16.2-0.3-24.9-0.3c-9.9,0-16.3,0.2-19,0.7l-2,0.3
				c-8,1.4-24.7,4.2-38.8,4.2C845.5,1788.2,844.6,1788.1,843.9,1788z M1108,1676.7c-6.6-21.1-11.8-37-12.5-38.7
				c-1.5-3.3-5.3-12.6-5.7-15.8c-0.3-2.8-3.4-18.7-5.8-23.7c-1-2.1-2.2-4.2-3.2-6.1c-1.3-2.1-2.4-4.3-3.2-6.6
				c-0.1-0.4-0.4-1.1-0.6-2.1c-1.7-5.4-5.6-18.1-6.1-22.4c-1.5-11.9-3.3-13.5-4.7-14.8s-2.4-2.4-2.9-6.9
				c-0.3-10.6-1.4-31.7-3.4-35.9c-1.7-3-3.8-5.9-6-8.6c-3.4-4.4-6.8-8.9-7.6-12.1c-0.6-2.6,0.6-5.6,1.9-8.6
				c1.5-3.7,3.3-7.7,2.2-12.1s-5.3-9-8.6-12.8c-2.9-3.2-5.2-5.7-5.5-7.8c-0.2-1.4,0.3-3.2,1.2-5.9c3.5-10.4,4.2-21.6,2.1-32.4
				c-1.5-8.2-5.9-15.1-9.5-20.6c-2.7-4.2-4.8-7.4-5.1-10.2c-0.3-3.3,1.3-6.7,3-10.5s3.6-7.8,3.7-12.1c0.1-3,0.2-6.2,0.2-9.4
				c0.1-6.2,0.3-12.6,0.6-18.2c0.5-4.8,1.3-9.6,2.5-14.4c1-3.8,1.7-7.8,2.2-11.7c0.3-4.4,0.3-8.8,0-13.2c-0.1-1.1-0.1-2.2-0.2-3.4
				c-0.1-2.9,0.6-6.2,1.6-10.3c1.8-6.9,2.9-14,3.5-21.1l0.4-5.8c1.5-20.7,4.5-63.7,4.3-76.6c-0.2-8.8-0.7-38.1,0.3-47.2
				c0.3-3,1.7-9.7,3.3-18.2c2.8-14.2,6.7-33.6,7.2-43.8c0.4-7.5,0.6-21.2,0.8-34.4c0.3-18,0.5-29.2,1-30.8c0.9-2.1,1.8-4.1,2.9-6.1
				c3.1-6.2,7.9-15.6,8.5-20.7c0.9-7.6,5.3-15.4,7.2-17.8l3-3.8c7.1-8.8,26-32.3,29.7-37.8l1.1-1.6c3.9-5.7,11.9-17.5,16.5-28.2
				l0.7-1.7c1.5-3.5,2.9-6.5,3-9.7c1-23.4-6.1-58.6-9.4-67.8l-1.7-4.5c-2.4-6.4-3.4-9.1-4.2-13.5c-1.1-5.5-4-18.2-7.4-26.9
				c-1.1-2.7-2.5-6.7-4.1-11.3c-3.8-10.6-8.5-23.7-11.5-28.7c-3.8-6.4-16.8-28.1-26.2-39.1c-9.1-10.6-22.7-28.1-27.7-35
				c-2.7-3.8-5.6-12.9-8.1-20.9l-0.3-1.1l-0.3-0.4l0.6-1.1h1l0.3,0.3l-0.3,0.3l0.3-0.2c1,1.2,2.1,2.3,3.4,3.2
				c2.5,1.1,28,19.6,37.1,27.6c9.4,8.2,27.3,23.3,34.4,28.4c7.2,5.1,19.2,9.2,24,10.2h0.5l0.2,0.5c0.1,0.1,0.3,0.3,0.4,0.4
				c2,1.5,2.9,4.1,2.3,6.5c-0.8,3.9-3,4.8-4.2,5.3l-0.4,0.2c0.4,3.5,10,31.8,19.3,59.3c7.8,22.9,15.8,46.6,20.7,62.1l1.6,4.9
				c8.9,28.5,27.5,87.7,37.5,133.2c9.3,42.8,13.4,99.9,15,130.2c0.4,7.3,1.5,55.2,2.8,110.6c0.7,31.8,1.6,66.2,2.3,96.9
				c1.3,53,2.7,94.7,2.8,96.9l0.2,0.8l0.2,1.1l-1.1,0.1c-1.8,0.2-3.7,0.4-5.1,0.6c-1.4,0.2-2.5,0.3-2.9,0.3h-2
				c-0.6-0.1-1.2,0.1-1.6,0.5c-0.5,0.4-0.9,0.9-1.3,1.3c-1,1.3-2.2,2.7-3.7,3.1c-0.6,0.2-1.2,0.2-1.8,0.2h-2.3c-0.5,0-1,0.1-1.5,0.3
				c-1.5,0.9-4.2,4.3-4.3,6c-0.1,0.9-0.2,1.8-0.4,2.7c-0.8,4.1-1.3,8.3-1.2,12.5c0,4.9,0.1,8,0.2,10.3c0,1.9,0,3.1,0,4.2
				c0,0.8-0.1,4.4-0.2,9.1c-0.2,10.3-0.5,25.9-0.8,31.2c-0.4,7.7-5.2,37.6-10,51.7c-4.8,14.2-8.5,23.6-11.5,29.3s-30,42.7-32.5,45.8
				c-2.5,3.1-23.8,24.5-27.2,27.5c-0.9,0.8-2,1.6-3.2,2.6c-3,2.4-8,6.5-8.2,7.9c-0.2,1.2-0.5,17.8-0.6,36.4L1108,1676.7z" fill="#171717" fill-rule="evenodd"></path>
		</g>
	</g>
	<g id="Group_R1070_Hood" link="hood">
		<g id="Pattern_R1070_Hood_000">
			<path id="Option_R1070_Hood_000_1" d="M1133.3,685.7l-1.8-0.2c-4.9-0.9-17.4-5.3-24.8-10.5
				c-7.3-5.2-25.1-20.3-34.5-28.6c-8.8-7.7-34.3-26.2-36.6-27.3c-1.3-0.7-2.4-1.6-3.3-2.8c-1-1.3-2.2-2.3-3.6-3.1
				c-4.7-2.5-10.2-4-15.6-5.5c-2.9-0.8-5.6-1.5-8-2.4l-5.4-2c-6.9-2.6-16.4-6.1-22.8-7.4c-3.7-0.8-11.3-2.2-19.3-3.7
				c-10.3-1.9-21-3.9-25.3-4.9c-3.3-0.8-6.5-1.8-9.7-2.9c-3.8-1.4-7.6-2.5-11.6-3.2c-4.6-0.8-9.2-1.2-13.5-1.6
				c-2.9-0.2-5.6-0.5-8.4-0.8c-1.9-0.2-3.7-0.4-5.5-0.6c-5-0.5-9.1-1-11-1.9c-0.4-0.2-0.9-0.3-1.3-0.2c-0.8,0-1.6,0.1-2.4,0.3
				c-1.7,0.3-3.5,0.5-5.3,0.5c-0.6,0-1.2-0.1-1.8-0.1c-3.9-0.3-8.6-0.7-15.6-1.6l-2.6-0.3l2.7-1.9c13.1-28.3,10.8-59.9,8.5-90.4
				c-0.8-10.2-1.5-19.7-1.6-29.1c-0.7-5.7-4.1-23.6-8-44.3c-6.2-32.9-14-73.9-15.6-89.7c-1.4-15.1-1.6-42.9-0.2-60.8
				s13.5-65.5,35.5-94.5c19.6-25.9,54.6-55.8,65.2-60.2c13.1-5.3,52.2-11.9,68.9-14.7c1.8-0.3,3.3-0.6,4.4-0.8
				c11.9-2,34.2-2.3,34.5-2.3c16.4,0.3,21.4,1.5,31.4,3.9l4.7,1.1c4.2,1,8.6,1.8,13.3,2.6c10.4,1.9,22.2,4,35.6,8.6
				c4.4,1.5,8.7,3.6,12.6,6.2c1.6,1,3.2,2,4.9,2.9c0.7,0.4,1.6,0.7,2.7,1.2c3.9,1.6,11.1,4.5,28.7,15.2s39.6,27.5,50.2,35.6
				c3,2.2,5.1,3.9,6.1,4.6c1.1,0.8,2.6,1.9,4.5,3.2c6.7,4.7,18,12.6,25.4,18.4c5,3.9,14,11.6,22,18.3c6.1,5.1,12.4,10.5,13.1,10.9
				c0.6,0.3,1.3,0.5,2,0.5c1.2,0.1,2.3,0.3,3.4,0.8c2.4,1.1,6,5.3,6.7,6.3l0.8,0.5c4.1,2.5,8.4,5.1,8.4,9c-0.1,3.2-2.7,6.1-6.3,10.1
				c-5.5,6.1-13,14.5-17.8,30.1c-4.4,14.5-13.6,37.6-22.4,60c-7.3,18.4-14.1,35.8-18.6,48.7l-3,8.8c-7.7,22.2-11.2,32.3-21,62.6
				c-7.9,24.5-17.3,48.1-22.8,62.2c-2.1,5.3-3.6,9.2-4.2,10.8c-0.9,2.6-1.6,5.5-2.4,8.5c-1,4-2.1,8.2-3.6,12.5
				c-4.9,13.8-14.3,28.9-29.1,52.1c-0.1,0.2-11.6,22.4-16.8,37.8c-1.1,3.2-2.1,6.9-3.3,11.2c-1.9,6.7-4.1,14.2-7,22.3
				c-0.4,1.1-0.7,2.3-1,3.4c-0.5,2.5-1.4,4.8-2.8,7L1133.3,685.7z" fill="#98989A" fill-rule="evenodd"></path>
		</g>
	</g>
</g>
<g id="custom_badge-positions">
	<g id="Left_Sleeve_Upper">
		<rect x="830" y="881" width="207" height="400" fill="none"></rect>
	</g>
</g>
<image class="background-product" width="2048" height="2048" xlink:href="https://media.reformclothing.com/design_lab/ysd-products/R1070_Zip_Hoodie/R1070_Zip_Hoodie_Right_A_2048.png"></image><image width="2048" height="2048" class="decoration__preview-image" xlink:href="https://rendering.documents.cimpress.io/v1/dcl/preview?format=png&amp;width=2048&amp;instructions_uri=https%3A%2F%2Fuds.documents.cimpress.io%2Fv3%2Finstructions%3Apreview%3FdocumentUri%3DrZJNjxMxDIb%252FS87rTj4nSY%252FAoSBxQSAkEIfEcXZG2%252BlUyXTRqup%252FJy2shAYuoL0kjl%252FHefLKZ%252FZIpY7zgW2Z3HB2x%252BrDqcWv376Hd7tXn3dvvuxaMs%252BH5QMd5zouc3n6VPatZFiWY9123VWrmzTjaaJrhON0LFTrZpy7R9GV52sj1c723jjuHKBNBnTKHpz2ATQ6r73PbY%252Fd8RT3Yx0otYef27LtmdVTyQGpsu3XMxtTQ1A894mshtxjAs15DzFpBcZbyVUW1ipqTQ5holZdBLccB6pLGe%252BHpQnfx7QMTRGaT1M7D3QTWsL8TCTCuYSl%252BfORcDjM%252B%252Fn%252Bqcn1Sjjd8uxy9wsmaGGSNhacRwItpIUYyYE15K3qE4bbj%252F6A2VN%252BeRbpopc2gZFcgnbkwQsRIGkphXBcxxxWLHVP1GZh7Yxa0cj%252FoOk5VxiNAZNUo6FeQ%252FSaIDrMGBBRy%252FhXmrU1LwFjbfOdvIQUuQcd2uIsIkhC9DpkJY1awcSAD9iGkMpvMIqvYPQ%252FwHy7XH4A&amp;scene=https://scene.products.cimpress.io/v1/scenes/d5a3b689-89c4-4cf7-85aa-d0cfd8379ab5"></image>
<text class="svgText" x="45%" y="57%" dominant-baseline="middle" text-anchor="middle" font-size="50" fill="black"></text>
<image class="custom-logo" href="" x="42%" y="50%" width="150" height="150" />

</svg>