<svg id="R1070_Zip_Hoodie_Front_A" xmlns="http://www.w3.org/2000/svg" xmlns:xlink="http://www.w3.org/1999/xlink" viewBox="0 0 2048 2048">
  
  <g id="custom-color-swatches">
    <g id="Group_R1070_Rib">
      <g id="Pattern_R1070_Rib_001">
        <path id="Option_R1070_Rib_001_3" d="M1553.911,1965.575c-12.216-8.761-42.382-20.575-82.763-32.413-15.584-4.568-28.3-6.885-37.79-6.885-7.358,0-11.21,1.41-13.145,2.591l-1.667,1.018.148-1.948a117.677,117.677,0,0,0-.031-20.511l-.076-.774.73-.264c4.337-1.572,15.438-5.226,24.818-5.226q.663,0,1.312.025c11.92.452,36.983,5.458,68.387,18.081a290.9,290.9,0,0,1,45.389,22.643l.581.364-.131.673c-.637,3.287-1.283,6.708-1.935,10.155-.751,3.972-1.507,7.978-2.262,11.85l-.3,1.529Zm-519.651-23.324c-.345-7.46-.506-16.318-.478-26.329l0-1.241,1.212.267a63.245,63.245,0,0,0,13.473,1.248l.631,0c4.672-.032,11.29-.632,21.308-1.54,14.913-1.351,37.45-3.395,73.714-5.462,47.4-2.7,107.312-4.993,183.17-7.005,37.7-1,52.06-9.367,56.485-12.917l1.377-1.1.24,1.748c.865,6.3,1.93,13.056,2.96,19.591l.81,5.163-.452.362c-4.658,3.734-19.569,12.684-57.325,15.169-21.086,1.387-41.774,1.513-65.728,1.658-21.671.132-46.232.282-77.412,1.345-47.652,1.624-90.5,5.678-116.1,8.1-10.287.972-17.719,1.677-21.991,1.905h-.06c-3.567-.025-6.426-.033-8.65-.033-3.708,0-5.65.022-6.179.03l-.968.014Zm-22.222.956a49.37,49.37,0,0,1-12.958-1.827c-2.98-.724-7.061-1.716-14.223-3.2-18.8-3.785-36.271-5.126-77.878-5.983-21.087-.434-49.727-2.237-77.425-3.981-26.994-1.7-54.908-3.456-76.7-4.024-40.381-1.052-57.8-9.169-61-10.853l-1.6.955.075-1.845c.275-6.8.482-14.846.616-23.9l.019-1.266,1.227.311c9.1,2.3,33.907,7.852,67.746,9.589,8.515.437,17.334.918,26.383,1.411,37.787,2.058,80.617,4.391,121.683,4.591,38.489.186,73.6,6.627,92.455,10.088,5.771,1.059,9.94,1.824,11.674,1.919.393.022.8.032,1.207.032h0c5.084,0,11.321-1.529,14.586-2.44l1.268-.353v1.315c.007,9.068-.006,18.115-.025,25.946v.641l-.583.267c-2.055.94-6.932,2.53-16.5,2.605h-.049Zm-528.911-3.273c-.124-1.292-.253-2.619-.393-3.991-.7-6.924-1.616-13.921-2.711-20.8l-.1-.639,1.618-1.061c2.286-1.5,4.65-3.056,6.671-4.139,1.007-.539,25.255-13.238,77.476-16.125,5.767-.32,11.569-.482,17.245-.482,30.447,0,50.836,4.623,56.36,6.04l.843.217-.1.865c-1.108,9.74-1.8,21.5-2.19,29.658l-.061,1.274-1.223-.362c-3.751-1.114-7.535-2.611-11.193-4.057-6.341-2.509-12.33-4.878-17.646-5.142-.649-.032-1.34-.048-2.069-.048-9.777,0-26.439,2.749-51.659,6.91q-8.892,1.466-19.118,3.131c-31.2,5.048-46.552,8.64-50.513,9.621l-1.125.278Z" fill="none" fill-rule="evenodd"></path>
        <path id="Option_R1070_Rib_001_2" d="M1549.642,1984.932c-4.489-3.777-18.192-13.356-48.427-20.742-9.811-2.4-18.289-4.5-25.608-6.318-22.416-5.565-33.667-8.359-39.258-8.663-.9-.049-2.009-.073-3.3-.073-4.768,0-11.275.337-15.894.62l-1.238.076.188-1.226c.382-2.483.806-5.258,1.254-8.377.592-4.317,1.041-8.455,1.333-12.291l.039-.51.437-.267c2.155-1.315,6.365-2.884,14.188-2.884,9.683,0,22.586,2.344,38.352,6.965,40.589,11.9,70.976,23.821,83.367,32.708l.522.374-.123.63c-1.731,8.878-3.034,14.88-4.223,19.463l-.4,1.535Zm-534.225-16.512a43.143,43.143,0,0,1-13.662-2.252l-1.854-.621c-13.848-4.654-24.787-8.33-82.894-8.332-54.12,0-101.4-4.08-151.463-8.4q-9.317-.8-18.751-1.609c-33.605-2.851-50-6.194-57.833-8.5l-.865-.255.164-.888c.9-4.831,1.593-13.28,2.072-25.112l.021-.542,1.479-.884.513.3c.165.1,17.053,9.734,60.564,10.867,21.827.57,49.758,2.327,76.77,4.028,27.678,1.742,56.3,3.544,77.342,3.977,41.745.86,59.293,2.21,78.236,6.023,7.2,1.488,11.3,2.484,14.3,3.211a47.914,47.914,0,0,0,12.57,1.773c9.493-.076,14.1-1.721,15.636-2.425l1.42-.65,0,1.561c-.029,12.636-.074,22.105-.08,23.382a11.6,11.6,0,0,1,.273,2.164l.078,1.388-1.291-.353A36.007,36.007,0,0,1,1015.417,1968.42Zm21.2-2.062c-.5-3.042-.981-6.869-1.509-12.043-.347-3.4-.631-7.458-.843-12.064l-.048-1.031,1.033-.015c.531-.007,2.484-.03,6.206-.03,2.228,0,5.09.008,8.664.033,4.171-.225,11.587-.927,21.85-1.9,25.621-2.424,68.5-6.482,116.215-8.108,31.207-1.064,55.783-1.214,77.467-1.346,23.922-.145,44.583-.271,65.61-1.654,37.188-2.447,51.695-11.119,56.206-14.733l1.346-1.079.267,1.7c.376,2.4.746,4.8,1.1,7.155.877,5.827,1.418,10.759,1.652,15.074l.03.555-.454.318c-6.5,4.563-24.109,12.71-69.017,16.012-29.934,2.2-53.962,2.284-79.4,2.371-26.79.091-54.492.186-92.741,2.633-79.992,4.8-95.918,5.84-98.78,6.939a49.1,49.1,0,0,1-13.846,2.042l-.868.02Zm-550.987-.971c-.585-3.97-1.015-8.874-1.559-15.084-.274-3.134-.576-6.581-.939-10.369l-.082-.86.837-.207c3.981-.985,19.4-4.594,50.675-9.653q10.228-1.654,19.113-3.131c25.317-4.177,42.042-6.937,51.983-6.937q1.149,0,2.169.051c5.644.281,11.783,2.709,18.282,5.28,3.618,1.431,7.359,2.911,11.026,4l.752.223-.037.783c-.437,9.2-.734,18.983-.794,26.177l-.013,1.66-1.461-.788c-5.2-2.8-18.773-9.322-32.494-9.322h-.308c-14.892.105-23.583,1.686-46.808,5.911-4.972.9-10.6,1.927-17.073,3.078-24.788,4.407-42.788,7.871-52.054,10.017l-1.057.244Zm1072.535-21.782a289.066,289.066,0,0,0-45.072-22.481c-31.167-12.526-55.957-17.492-67.717-17.938q-.612-.024-1.236-.023c-9.064,0-19.9,3.57-24.136,5.107l-1.21.437-.126-1.28a76.392,76.392,0,0,0-2.172-12.22l-.075-.283.09-.279c.528-1.64,5.8-16.02,28.022-16.02a60.987,60.987,0,0,1,8.018.559l.923.122c29.534,3.923,45.8,6.084,86.486,28,8.761,4.72,16.64,8.921,24.086,12.842l.736.388-.247.794c-1.565,5.03-3.334,13.75-4.857,21.616l-.277,1.433ZM1048.472,1918.2a65.3,65.3,0,0,1-13.906-1.295l-.786-.173,0-.806c.018-6.764.124-14.086.315-21.765q.078-3.129.166-6l.031-1.03,1.029.062c.372.023.941.128,1.885.3a97.287,97.287,0,0,0,18.836,1.761c1.329,0,2.687-.024,4.036-.072,3.02-.109,8.91-.367,17.062-.725,33.372-1.465,102.815-4.513,179.1-6.28,94.18-2.182,115.5-6.542,125.484-14.9l1.61-1.347.031,2.1a187.415,187.415,0,0,0,2.028,21.882l.077.562-.442.354c-4.584,3.678-19.381,12.341-57.684,13.357-75.831,2.011-135.727,4.3-183.11,7-36.23,2.066-58.747,4.108-73.647,5.458-10.067.913-16.719,1.516-21.475,1.548Zm-35.13-.969c-.448,0-.888-.012-1.317-.036-1.861-.1-5.865-.836-11.927-1.948-18.8-3.449-53.791-9.87-92.1-10.055-41.118-.2-83.975-2.535-121.787-4.6-9.045-.492-17.86-.973-26.372-1.409-34.018-1.746-58.981-7.33-68.134-9.648l-.766-.194.011-.79c.107-7.2.17-15.258.188-23.941l0-1.382,1.311.435c7.316,2.423,47.722,14.51,124.9,14.51l6.691,0c80.605,0,110.652,1.236,146.137,6.015a231.369,231.369,0,0,0,29.7,2.406c9.824,0,12.736-1.3,12.765-1.317l.153-.071.181-.022c.072-.007,7.209-.712,12.529-.712,1,0,1.894.025,2.65.074l.926.06.008.93c.062,7.586.1,17.079.1,28.214v.76l-.732.2C1025.1,1915.651,1018.665,1917.227,1013.342,1917.227Zm-533.319-2.079c-1.294-8.109-2.846-16.085-4.612-23.706l-.137-.588.458-.395c4.081-3.514,14.795-10.427,40.716-17.254,18.138-4.778,28.5-6.472,39.579-6.472,5.6,0,11.353.414,18.638.939,6.556.472,14.715,1.059,25.143,1.5,24.556,1.033,37.718,3.487,44.436,5.364l.89.249-.178.907c-.627,3.187-1.49,6.656-2.563,10.311a90.44,90.44,0,0,0-2.358,13.823l-.13,1.141-1.112-.285c-5.467-1.4-25.652-5.978-55.863-5.978-5.639,0-11.4.161-17.135.478-51.783,2.864-75.651,15.361-76.642,15.892-1.942,1.04-4.269,2.57-6.519,4.049l-2.368,1.553Z" fill="none" fill-rule="evenodd"></path>
        <path id="Option_R1070_Rib_001_1" d="M1537.12,2000c-5.6,0-12.763-2.5-23.977-6.583-22.6-8.224-75.721-18.9-88.736-21.193-11.622-2.045-11.2-4.807-8.429-22.777l.252-1.638.8-.049c4.647-.285,11.2-.624,16.016-.624,1.326,0,2.473.025,3.407.076,5.781.314,17.094,3.123,39.631,8.719,7.316,1.816,15.793,3.921,25.6,6.316,30.646,7.486,44.644,17.287,49.24,21.153l.482.407-.158.61c-.189.73-.378,1.436-.565,2.1C1548,1996.1,1544.064,2000,1537.12,2000Zm-492.368-9.919c-3.547,0-5.2-3.3-5.756-5.735l-1.287.3,1.1-1.969a10.566,10.566,0,0,1,1.39-2.125,8.578,8.578,0,0,0-.982-4.857c-1.069-2.024-1.872-4.9-2.6-9.334l-.187-1.136,1.152-.027a47.176,47.176,0,0,0,13.238-1.931c3.105-1.2,16.612-2.081,99.31-7.046,38.305-2.451,66.037-2.546,92.856-2.638,25.4-.086,49.4-.168,79.261-2.364,46.087-3.389,62.918-12.076,68.016-15.654l1.474-1.036.1,1.8c.8,14.729-2.057,21.8-6.932,28.427-6.262,8.517-41.064,18.043-78.266,18.043-5.7,0-11.384-.218-16.9-.648-11.571-.9-23.326-1.339-35.935-1.339-16.665,0-33.325.76-50.964,1.564-14.887.68-30.28,1.382-47.773,1.76-12.118.262-23.718.384-36.508.384-5.363,0-10.209-.022-14.591-.04-3.613-.016-6.91-.03-9.92-.03-12.7,0-19.972.251-24.5,1.625a100.01,100.01,0,0,1-24.611,4.008Zm-29.935-.562a10.435,10.435,0,0,1-5.211-1.087,55.512,55.512,0,0,0-9.964-3.2c-10.744-2.641-28.962-2.8-50.056-2.992-3.107-.027-6.267-.055-9.458-.093-24-.278-86.475-2.513-129.73-5.382l-9.769-.646c-41.159-2.711-87.81-5.784-101.4-9.3-15.672-4.048-14.467-13.309-11.2-28.086.081-.364.159-.761.235-1.173l.2-1.09,1.064.312c7.747,2.277,24,5.588,57.438,8.425q9.442.8,18.752,1.608c50.016,4.316,97.258,8.392,151.293,8.393,58.434,0,69.51,3.723,83.532,8.436l1.849.62a41.14,41.14,0,0,0,13.029,2.149,33.452,33.452,0,0,0,12.271-2.115l.338-.149.6.177.695.189.041.719a71,71,0,0,1-.277,9.064l-.007.085-.021.083c-.759,2.963-1.424,6.129-1.752,7.752l-.017.085-.032.08a.455.455,0,0,0,0,.131l.13,1.862-.493-.281c-1.161,3.39-5.145,5.3-11.424,5.411Q1015.126,1989.519,1014.817,1989.519Zm-514.936-9.2c-9.353,0-12.551-3.348-14.256-14.927l-.134-.912.9-.208c9.3-2.153,27.331-5.623,52.155-10.037,6.475-1.151,12.1-2.173,17.065-3.077,22.693-4.128,32.086-5.837,47.152-5.943h.322c14.177,0,28.11,6.687,33.443,9.562l.53.286,0,.6c-.014,1.717-.012,3.153,0,4.237a6.362,6.362,0,0,1-1.773,4.7c-3.977,4.092-14.22,4.232-29.726,4.446-9.1.125-19.417.267-31.144,1.212a427.086,427.086,0,0,0-46.9,6.419,215.563,215.563,0,0,1-23.89,3.492C502.218,1980.266,501,1980.314,499.881,1980.314Zm1063.228-58.393c-7.446-3.921-15.33-8.124-24.1-12.852-40.359-21.745-56.5-23.888-85.8-27.78l-.924-.123a59.211,59.211,0,0,0-7.754-.541c-20.8,0-25.635,13.135-26.118,14.633l-1.045,3.244-.874-3.295a73.282,73.282,0,0,0-4.287-11.88,10.811,10.811,0,0,1-2.3-1.794l-.474-.475.26-.62a34.839,34.839,0,0,1,1.827-3.762c1.611-2.81,6.817-5.789,11.852-8.67a66.01,66.01,0,0,0,7.4-4.621c3.952-3.157,10.585-4.692,20.282-4.692,3.119,0,6.633.16,10.447.475,13.38,1.1,34.336,6.506,62.288,16.059,19.406,6.63,33.895,16.041,42.552,21.663l.7.456c3.549,2.3,5.4,4.233,5.66,5.9a2.414,2.414,0,0,1-.517,1.951l-.171.209-.253.095a9,9,0,0,1-1.189.354c-.5,1.379-1.989,5.384-5.2,13.094-.259.62-.542,1.421-.841,2.382l-.357,1.146Zm-1087.7-30.479c-2.244-9.68-4.176-15.9-4.678-17.475-.236-.121-.566-.3-.968-.529l-.384-.221-.094-.432c-.837-3.818-.585-6.306.749-7.392,1.88-1.535,11.32-7.093,18.49-8.218,6.578-1.031,12.146-2.017,33.959-6.99,12.178-2.778,18.444-4.113,27.728-4.113,6.792,0,14.967.674,29.634,2.091,32.56,3.145,37.565,4.572,52.423,8.812l.8.226c8.674,2.473,13.188,4.758,13.8,6.987a1.742,1.742,0,0,1-.338,1.664l-.407-.383a48.033,48.033,0,0,1-1.166,10.221l-.209,1.061-1.041-.291c-6.616-1.848-19.616-4.267-43.982-5.292-10.456-.439-18.632-1.028-25.2-1.5-7.246-.521-12.968-.934-18.5-.934-10.892,0-21.116,1.676-39.069,6.406-25.533,6.724-35.971,13.434-39.92,16.836l-1.254,1.079Zm580.633-.189a99.191,99.191,0,0,1-19.2-1.794c-.777-.145-1.391-.26-1.639-.274l-.97-.059.03-.97c.7-23.029,1.829-33.992,1.841-34.1l.137-1.318,1.23.494c.214.086,5.273,2.12,7.085,3.039.131.066.767.283,3.457.283,1.985,0,4.484-.116,6.689-.219,1.937-.091,3.766-.176,5.048-.176l.381,0c.494.008,1.245.025,2.228.047,3.852.085,11.866.264,21.994.264,7.782,0,15.443-.1,22.77-.311,6.779-.19,11.969-.426,16.139-.615,4.653-.211,8.328-.377,11.885-.377a123.55,123.55,0,0,1,15.154,1c11.66,1.367,30.123,1.949,46.412,2.463,5.636.178,10.958.345,15.56.533s8.573.4,12.788.634c11.992.652,24.392,1.328,52.221,1.366h.058l.056.007c3.011.347,5.633.658,7.981.937a222.134,222.134,0,0,0,34.539,2.115c3.279,0,7.024-.021,11.4-.058,27.439-.23,34.044-5.847,41.038-11.793.774-.659,1.556-1.324,2.372-1.989l.374-.305.471.1a1.921,1.921,0,0,0,.387.034,9.508,9.508,0,0,0,7.5-5.473,41.166,41.166,0,0,0,2.347-6.995,5.343,5.343,0,0,1,.849-2.294c.483-.514,1.36-1.448,3.869-1.448a14.661,14.661,0,0,1,1.991.153,5.76,5.76,0,0,1,2.457.792l.831.572-.58.827c-1.961,2.79-8.549,12.612-11.006,21.873a38.066,38.066,0,0,0-.842,9.808l.007.476-.365.305c-10.345,8.66-31.945,13.166-126.72,15.363-76.261,1.766-145.689,4.814-179.055,6.278-8.159.358-14.054.617-17.083.725C1058.778,1891.229,1057.4,1891.253,1056.044,1891.253Zm-56.162-2.66a233.139,233.139,0,0,1-29.968-2.424c-35.38-4.765-65.371-6-145.868-6l-6.694,0c-77.486,0-118.164-12.171-125.532-14.612l-.687-.227,0-.724c.015-7.327,0-13.9-.016-18.994l0-1.419,1.338.474a55.068,55.068,0,0,0,20.562,3.529q1.348,0,2.809-.043l.36-.01.284.221c1.7,1.325,9.036,2.793,17.528,4.493,6.059,1.213,12.927,2.588,20.122,4.329a92.6,92.6,0,0,0,21.669,2.371,173.142,173.142,0,0,0,31.954-3.383c15.519-2.891,28.165-2.932,53.36-3.013l1.861-.006c18.816-.061,28.685-.317,40.112-.615,4.736-.123,9.791-.254,15.913-.385,5.369-.114,9.493-.328,13.13-.516,3.438-.178,6.407-.332,9.317-.332,6.476,0,12.391.779,21.824,2.873a86.329,86.329,0,0,0,18.278,2.079,70.327,70.327,0,0,0,26.049-4.988,6.435,6.435,0,0,1,3.656-.759c5.65,0,15.676,2.566,16.1,2.674l.457.119.2.426c.531,1.135.941,12.886,1.1,31.433l.011,1.442-1.074-.07c-.713-.047-1.56-.07-2.52-.07-4.787,0-11.107.585-12.174.687C1012.5,1887.5,1009.1,1888.593,999.882,1888.593Z" fill="none" fill-rule="evenodd"></path>
      </g>
      <g id="Pattern_R1070_Rib_000">
        <path id="Option_R1070_Rib_000_1" d="M1537.12,2000c-5.6,0-12.763-2.5-23.977-6.583-22.6-8.224-75.721-18.9-88.736-21.193-11.622-2.044-11.2-4.806-8.43-22.771.415-2.691.885-5.748,1.384-9.224,3.417-24.924,1.925-41.447-5.157-56.9a10.811,10.811,0,0,1-2.3-1.794l-.474-.475.26-.62a34.839,34.839,0,0,1,1.827-3.762c1.611-2.81,6.817-5.789,11.852-8.67a66.01,66.01,0,0,0,7.4-4.621c3.952-3.157,10.585-4.692,20.283-4.692,3.118,0,6.632.16,10.446.475,13.379,1.1,34.336,6.506,62.289,16.059,19.4,6.63,33.894,16.041,42.551,21.663l.7.456c3.549,2.3,5.4,4.233,5.66,5.9a2.414,2.414,0,0,1-.517,1.951l-.171.209-.253.095a9,9,0,0,1-1.189.354c-.5,1.379-1.989,5.384-5.2,13.094-2.155,5.168-4.815,19.242-7.631,34.143-2.362,12.5-4.805,25.43-7.052,33.424C1548,1996.1,1544.064,2000,1537.12,2000Zm-492.369-9.919c-3.546,0-5.2-3.3-5.755-5.735l-1.287.3,1.1-1.969a10.566,10.566,0,0,1,1.39-2.125,8.566,8.566,0,0,0-.982-4.856c-1.745-3.3-2.86-9.1-4.113-21.378-1.3-12.717-1.655-34.082-1.006-60.158.676-27.136,1.994-39.973,2.007-40.1l.138-1.318,1.229.494c.215.086,5.273,2.119,7.085,3.038.132.066.768.283,3.46.283,1.987,0,4.488-.116,6.695-.219,1.936-.091,3.764-.176,5.045-.176l.375,0c.494.008,1.245.025,2.228.047,3.852.085,11.866.264,21.994.264,7.782,0,15.443-.1,22.77-.311,6.779-.19,11.969-.426,16.139-.615,4.653-.211,8.328-.377,11.885-.377a123.55,123.55,0,0,1,15.154,1c11.66,1.367,30.123,1.949,46.412,2.463,5.636.178,10.958.345,15.56.533,4.586.188,8.562.4,12.771.633,11.994.653,24.4,1.329,52.238,1.367h.058l.056.007c3.012.347,5.634.659,7.983.938a222.318,222.318,0,0,0,34.562,2.114c3.274,0,7.011-.02,11.373-.057,27.439-.231,34.044-5.848,41.038-11.794.774-.659,1.556-1.324,2.372-1.989l.374-.305.471.1a1.921,1.921,0,0,0,.387.034,9.5,9.5,0,0,0,7.5-5.473,41.274,41.274,0,0,0,2.347-6.993c.352-1.367.5-1.933.849-2.3.482-.514,1.359-1.448,3.869-1.448a14.649,14.649,0,0,1,1.991.152,5.76,5.76,0,0,1,2.457.792l.831.572-.58.827c-1.961,2.79-8.549,12.613-11,21.872-2.469,9.306.892,30.637,4.142,51.266.623,3.954,1.245,7.9,1.826,11.762,3.837,25.484,1.232,34.644-5.28,43.5-6.262,8.517-41.064,18.043-78.266,18.043-5.7,0-11.384-.218-16.9-.648-11.571-.9-23.326-1.339-35.935-1.339-16.665,0-33.325.76-50.964,1.564-14.887.68-30.28,1.382-47.773,1.76-12.121.262-23.726.384-36.52.384-5.359,0-10.2-.021-14.582-.039-3.612-.016-6.908-.031-9.917-.031-12.7,0-19.972.251-24.5,1.626a100.067,100.067,0,0,1-24.612,4.007Zm-29.933-.562a10.439,10.439,0,0,1-5.212-1.087,55.512,55.512,0,0,0-9.964-3.2c-10.744-2.641-28.962-2.8-50.056-2.992-3.107-.027-6.267-.055-9.458-.093-24-.278-86.475-2.513-129.73-5.382l-9.769-.646c-41.159-2.711-87.81-5.784-101.4-9.3-15.671-4.048-14.466-13.309-11.2-28.086,3.314-15,3.155-71.758,3.1-93.123l0-1.419,1.338.474a55.068,55.068,0,0,0,20.562,3.529q1.348,0,2.809-.043l.36-.01.284.221c1.7,1.325,9.036,2.793,17.528,4.493,6.059,1.213,12.927,2.588,20.122,4.329a92.545,92.545,0,0,0,21.669,2.372,173.091,173.091,0,0,0,31.954-3.384c15.521-2.892,28.171-2.932,53.372-3.012l1.849-.006c18.833-.061,28.709-.318,40.145-.616,4.727-.123,9.772-.254,15.88-.385,5.369-.114,9.493-.328,13.13-.516,3.438-.178,6.408-.332,9.317-.332,6.476,0,12.391.779,21.825,2.873a86.319,86.319,0,0,0,18.277,2.079,70.329,70.329,0,0,0,26.049-4.987,6.427,6.427,0,0,1,3.657-.76c5.65,0,15.675,2.567,16.1,2.675l.456.119.2.426c.531,1.134.941,12.885,1.1,31.432.234,28.265.015,74.89,0,77.9.2.768.623,3.408,0,11.232l-.007.085-.021.083c-.756,2.952-1.422,6.124-1.752,7.752l-.017.085-.032.08a.455.455,0,0,0,0,.131l.13,1.862-.493-.281c-1.161,3.39-5.145,5.3-11.424,5.411Q1015.126,1989.519,1014.818,1989.519Zm-514.941-9.2c-13.184,0-13.792-6.952-15.809-29.987-.368-4.21-.785-8.981-1.334-14.385-3.5-34.473-10.94-58.648-12-61.975-.235-.121-.565-.3-.967-.529l-.384-.221-.094-.432c-.837-3.818-.585-6.306.749-7.392,1.88-1.535,11.32-7.093,18.49-8.218,6.578-1.031,12.146-2.017,33.959-6.99,12.178-2.778,18.444-4.113,27.728-4.113,6.792,0,14.967.674,29.634,2.091,32.56,3.145,37.565,4.572,52.423,8.812l.8.226c8.674,2.474,13.188,4.759,13.8,6.987a1.744,1.744,0,0,1-.338,1.665l-.406-.383c.043,1.23.044,7.677-3.729,20.53-4.155,14.151-5.5,63.4-5.339,73.9a6.362,6.362,0,0,1-1.773,4.7c-3.977,4.092-14.22,4.232-29.726,4.446-9.1.125-19.417.267-31.144,1.212a427.086,427.086,0,0,0-46.9,6.419,215.581,215.581,0,0,1-23.889,3.492C502.216,1980.266,500.992,1980.314,499.877,1980.314Z" fill="#000" fill-rule="evenodd"></path>
      </g>
    </g>
    <g id="Group_R1070_Zip_Center">
      <g id="Pattern_R1070_Zip_Center_000">
        <path id="Option_R1070_Zip_Center_000_1" d="M1032.706,1984.976a13.522,13.522,0,0,1-6.963-1.529l-.444-.268-.036-.518a2.291,2.291,0,0,1,.1-.9c.333-1.644.987-4.753,1.738-7.7.673-8.451.074-10.426.048-10.506l-.049-.153-.009-.187c0-.486.242-48.97,0-78.028-.186-22.442-.679-28.622-.874-30.212l-2.919-.719,2.928-1.239c2.4-1.013,2.4-1.013,2.639-15.113.054-3.185.118-7.058.228-11.781.266-11.478.262-34.37.256-60.878-.008-37.742-.017-80.519.745-105.218,1.246-40.376,2.348-121.559,2-178.057-.156-25.589.633-45.756,1.469-67.108.913-23.331,1.857-47.457,1.534-79.966-.481-48.243-.261-109.058-.1-153.462.044-12.206.083-22.988.1-31.649.029-15.261-.264-36.259-.575-58.488-.488-35.019-1.042-74.71-.426-100.618.546-22.957.582-43.822.616-64,.028-16.72.058-34.01.385-52.056.676-37.341,1.855-104.71,1.989-112.349-2.465-.928-8.947-3.6-9.937-6.359-.648-2,.042-4.267,1.086-7.7.56-1.842,1.258-4.135,1.883-6.869,1.144-4.434.242-7.16-.8-10.317a34.628,34.628,0,0,1-1.2-4.276c-.553-2.576.135-5.327,2.046-8.16l1.25-1.852s.613,2.4.625,2.444c1.256-1.278,3.768-3.59,6.521-3.59a4.9,4.9,0,0,1,3.186,1.191c1.613,1.267,2.747,2.171,3.524,2.795q.038-.3.088-.637l.436-2.843,1.422,2.5a19.8,19.8,0,0,0,1.1,1.694,19.276,19.276,0,0,1,1.7,2.821c.981,1.991.6,3.332.107,5.029a23.65,23.65,0,0,0-1.006,5.486c-.242,3.547,1.082,7.076,2.482,10.814a53.262,53.262,0,0,1,2.5,7.926,6.488,6.488,0,0,1-.94,5.074c-2.011,3.038-6.263,4.447-8.045,4.922,0,7.774-.062,71.105-1,121.295-.469,25.027-1,42.007-1.5,58.428-.579,18.708-1.126,36.379-1.5,63.632-.523,38.1.292,66.433,1.153,96.429.29,10.085.59,20.515.848,31.6,1.1,47.39,1.1,116.967,0,173.134-.832,42.393-.457,87.474-.184,120.391.111,13.356.207,24.891.184,32.674-.035,12.146-.576,40.311-1.2,72.923-.73,38.029-1.558,81.133-1.8,110.179-.222,26.684-.922,50.926-1.6,74.371-.687,23.781-1.337,46.244-1.4,68.7-.029,9.913-.084,18.545-.131,26.051-.157,25.092-.236,37.686.974,43.2l.033.15-.014.153c-.379,4.309-1.32,16.689-1.864,38.526-.647,25.993-.293,47.269,1,59.906,1.225,12,2.28,17.594,3.893,20.647a10.139,10.139,0,0,1,1.087,6.71l-.995-.125-.025.818a.828.828,0,0,0,.556-.194,9.742,9.742,0,0,0-1.054,1.68l-.216.387-.432.1A34.9,34.9,0,0,1,1032.706,1984.976Zm2.6-1232.074c-1.29.518-2.273,1.2-2.222,1.517.187,1.18,1.135,1.88,2.824,2.091Zm10,3.566a5.208,5.208,0,0,0,3.809-2.154,10.4,10.4,0,0,0-3.206-1.468Z" fill="none" fill-rule="evenodd"></path>
      </g>
    </g>
    <g id="Group_R1070_Sleeves">
      <g id="Pattern_R1070_Sleeves_000">
        <path id="Option_R1070_Sleeves_000_1" d="M1570.648,1903.937a.427.427,0,0,0,.083-.377c-.077-.483-.7-1.891-4.774-4.537l-.7-.456c-8.579-5.572-22.938-14.9-42.108-21.448-27.8-9.5-48.593-14.869-61.807-15.958-3.759-.31-7.218-.468-10.282-.468-9.226,0-15.451,1.392-19.034,4.254a67.07,67.07,0,0,1-7.661,4.8c-4.579,2.62-9.769,5.59-11.111,7.928a32.779,32.779,0,0,0-1.717,3.544l-.577,1.373-1.053-1.055c-7.09-7.1-11.443-27.109-6.109-47.045l.6.16-.48-.483c3.551-4.012,8.991-14.068,8.475-23.975l0-.081.009-.082c.856-7.659.835-29.9.817-47.775-.011-11.264-.02-20.991.179-25.2.152-3.235.543-6.454,1-10.184,1.091-9,2.585-21.32,2.006-44.774-.75-30.412-3.5-89.324-8-126.973-3.465-29-3.538-35.063-3.753-53.068-.056-4.672-.121-10.161-.257-17.069-.662-33.792-1.17-122.037-1-154.106.167-31.779,1.78-82.8,5.007-125.138.623-8.175,1.132-15.479,1.58-21.924,1.848-26.537,2.963-42.554,8.447-68.256,6.954-32.6,18.406-99.006,25.006-145.011,6.767-47.152,8.988-60.916,9.01-61.05l.034-.208.115-.177c.193-.3,19.245-29.645,20.869-38.653.116-.639.243-1.295.372-1.973,1.8-9.371,4.275-22.206-9.306-52.469-11.9-24.734-15.525-29.669-19.718-35.383-1-1.357-2.025-2.761-3.21-4.481-1.547-2.245-2.689-4.283-3.794-6.255-3.488-6.223-7.1-12.658-24.064-27.579-21-18.468-43.752-34.876-60.854-43.89-3.934-2.075-8.44-4.309-13.21-6.675-14.8-7.341-33.219-16.477-49.952-28.414-19.318-13.528-23.711-14.715-24.311-14.819l-.411.12-.417-.411c-.052-.051-5.347-5.193-10.515-5.193a6.945,6.945,0,0,0-1.712.207l-1.116.281-.123-1.144c-.5-4.658.538-7.124,1.089-8.068a50.17,50.17,0,0,0-7.739-17.214c-3.222-5.115-5.262-8.721-6.414-10.857l-.89-1.648,1.865.178c2.393.228,8.965,1.967,18.5,13.106,1.835.514,4.867,2.241,10.559,5.484,8.68,4.945,23.207,13.22,48.226,25.663,9.541,4.774,21.661,10.417,35.695,16.951,46.993,21.878,111.354,51.841,142.612,79.477,58.381,53.131,71.5,123.716,84.186,191.977q1.8,9.667,3.622,19.269c14.378,74.8,20.249,176.908,20.687,227.289.469,53.929.481,160.219.283,212.681-.088,23.332-.876,40.725-1.571,56.069-.969,21.429-1.67,36.91.15,55.687,2.854,29.427-3.345,44.969-4.681,47.911.918,1.714,3.717,7.859,3.837,19.288.105,9.459-.166,14.784-1.462,40.374-.43,8.481-.973,19.194-1.653,33.029-1.939,52.171-14.6,85.957-15.584,88.52-.059.977-.415,6.4-2.539,36.384-2.521,35.586-7.412,76.993-8.5,83.63-.554,3.369.486,6.882,2.21,12.7,1.229,4.153,2.76,9.322,4.293,16.374,3.008,13.837-3.268,17.8-6.105,18.859l-3.412,1.275Zm-1100.883-30.5a30.035,30.035,0,0,1-9.509-8.672c-4.577-6.618-3.915-10.761-2.713-18.284.677-4.241,2.457-7.629,4.178-10.907a32.838,32.838,0,0,0,3.475-8.4c1.373-6.457,2.219-28.313-.57-43.218-2.533-13.529-2.824-22.781-3.909-57.205l-.355-11.193c-1.341-41.828,5.391-101.465,5.92-106.064-1.054-2.432-2.662-11.629-4.5-25.8-1.679-12.974-.854-34.373.019-57.027.761-19.745,1.548-40.161.542-54.6-2.154-30.913-4.043-118.164-3.967-124.4.086-6.976-1.751-11.843-8.138-27.646-6.515-16.126-7.649-25.252-2.606-54.632,1.744-10.161,3.56-29.011,5.861-52.875,4.483-46.522,10.624-110.235,21.887-173.392,4.432-24.855,8.466-48.366,12.026-69.108C498.028,908.118,505.7,863.4,514.487,835.67c14.053-44.752,39.71-80.846,78.438-110.342,33.745-25.7,73.059-43.067,107.745-58.389l6.612-2.922c57.576-25.5,76.5-38.068,90.311-47.243,3.374-2.241,6.564-4.359,9.919-6.4,1.846-2.45,4.489-4,7.538-5.782,1.212-.71,2.465-1.444,3.8-2.3l2.261-1.457-.76,2.58c-.859,2.915-1.7,5.422-2.489,7.453a14.557,14.557,0,0,0-1.067,7.975c.958.553,3.268,2.068,4.035,4.2a5.9,5.9,0,0,1,1.288,3.607l-.028.844-.836.114a10.735,10.735,0,0,0-9.368,8.186l-.184.64-.662.076c-2.306.265-7.138,3.616-13.825,8.253a336.1,336.1,0,0,1-32.849,20.648c-25.975,14.066-50.511,27.352-86.925,55.937-16.656,14.322-30.809,30.824-49.761,68.7-19.435,38.838-26.406,65.966-21.937,85.375,1.471,6.389,2.3,11.017,2.97,14.735,1.461,8.139,2.344,13.052,7.982,26.114l.049.113.02.121c1.679,10.165,2.439,19.806,3.32,30.968,1.1,13.912,2.34,29.679,5.689,52.091,2.886,19.319,6.278,39.239,9.869,60.329,3.873,22.749,7.879,46.273,11.148,68.744,3.5,24.08,6.729,41.815,9.32,56.065,2.019,11.1,3.613,19.863,4.692,27.991,2.449,18.456,11.918,120.08,12.013,121.1l.015.157-.035.155c-.1.458-10.274,46.6-8.982,109.819q.233,11.418.435,22.015c1.027,52.813,1.77,90.971,5.564,127.983,1.88,14.283,1.867,20.993,1.859,25a30.858,30.858,0,0,0,.139,3.981c.237,1.76-.538,10.564-2.046,27.279-1.174,13.02-2.635,29.224-3.841,45.533l-1.938-.072a83.253,83.253,0,0,0-3.74,12.746c-3.436,14.933-3.881,29.7-5.071,69.184a336.817,336.817,0,0,0,2.328,54.514c.672,5.833,1.253,10.87,1.353,15.948.268,13.688-9.71,17.317-12.774,18.1l-.166.042-2.224-.2,1.222-1.331c-.193-.421-1.659-2.467-12.4-5.529l-.8-.228c-14.727-4.2-19.688-5.617-52.066-8.744-14.293-1.38-22.771-2.081-29.441-2.081-9.068,0-15.253,1.319-27.284,4.062-21.877,4.989-27.474,5.979-34.093,7.017-6.484,1.017-15.569,6.187-17.537,7.791-.487.4-.795,2.054-.058,5.415l.483,2.209Z" fill="none" fill-rule="evenodd"></path>
      </g>
    </g>
    <g id="Group_R1070_Pockets_Body">
      <g id="Pattern_R1070_Pockets_Body_000">
        <path id="Option_R1070_Pockets_Body_000_1" d="M1319.942,1866.224a223.8,223.8,0,0,1-34.794-2.127c-2.334-.278-4.937-.587-7.925-.932-27.857-.039-40.277-.716-52.288-1.37-4.2-.229-8.171-.445-12.745-.632-4.59-.187-9.908-.354-15.538-.532-16.33-.515-34.838-1.1-46.584-2.476a121.748,121.748,0,0,0-14.921-.985c-3.512,0-7.166.165-11.792.375-4.178.189-9.377.426-16.175.617-7.345.206-15.026.311-22.828.311-10.153,0-18.182-.179-22.039-.265-.978-.021-1.723-.038-2.213-.046l-.344,0c-1.233,0-3.04.084-4.951.173-2.229.1-4.755.222-6.789.222-2.977,0-3.877-.253-4.364-.5-1.2-.609-4.038-1.787-5.684-2.46l-.008.086-1.972.127c-1.258-5.731-1.179-18.4-1.021-43.638.048-7.505.1-16.136.131-26.047.065-22.482.715-44.957,1.4-68.75.677-23.435,1.377-47.668,1.6-74.331.241-29.058,1.069-72.167,1.8-110.2.626-32.606,1.167-60.764,1.2-72.893.01-3.479,0-7.679-.031-12.458l0-.8.783-.178a175.832,175.832,0,0,1,20.172-3.562c.768-.075,1.729-.113,2.856-.113,14.9,0,60.137,6.619,96.482,11.938,5.2.76,10.227,1.5,14.989,2.188a294.187,294.187,0,0,0,42.573,3.239c9.255,0,16.449-.5,21.7-.866,3.084-.215,5.521-.384,7.368-.384h.277c8.667.086,10,.51,13.875,7.52,1.294,2.34,3.867,8.959,7.761,18.979,7,18,18.714,48.142,33.3,79.131,17.944,38.126,36.9,68.7,55.242,98.267,4.429,7.141,8.613,13.886,12.759,20.7,19.494,32.045,21.04,41.717,21.153,43.329.337.953.831,3.971.005,13.308-1.2,11.247-6.739,50.166-9.028,60.166-.557,2.433-1.153,4.354-1.681,6.049-1.653,5.322-2.747,8.839-.324,21.5,3.669,11.726,1.136,19.211-.7,22.632l-.14.26-.257.142a9.4,9.4,0,0,1-4.277,1.281c-.1,0-.2,0-.3-.01-.684.564-1.348,1.129-2.007,1.689-7.277,6.188-14.151,12.033-42.316,12.271C1326.964,1866.2,1323.22,1866.224,1319.942,1866.224Zm-544.155-4.661a94.59,94.59,0,0,1-22.139-2.428c-7.156-1.732-14-3.1-20.044-4.312-9.363-1.874-15.693-3.14-18.054-4.657l-1.312.023-.3-.506c-.791-1.355-1.752-3-2.951-5.017-5.266-8.865-7.112-13.4-7.145-29.524.348-13.928-1.554-22.981-6.151-44.852l-.833-3.971c-2.359-11.249-4.856-20.381-6.862-27.719-2.578-9.43-4-14.624-3.1-16.88,1.477-3.7,2.693-6.491,16.04-34.083,8-16.448,25.083-45.183,44.858-78.455,13.579-22.847,27.621-46.472,40.238-68.682,27.845-49.015,31.1-63.672,32.491-69.931.157-.7.293-1.314.436-1.865,1.512-5.814,4.631-8.909,9.816-9.74,4.612-.738,41.247-1.679,91.953-2.982l1.25-.032c47.292-1.215,76.146-3.427,90.784-6.957a18.583,18.583,0,0,1,6.713-.9,81.619,81.619,0,0,1,10.552.831c.214-.058,2.387-.627,2.387-.627l-.031,1.326c-.264,11.155-.361,21.731-.3,32.331.347,56.519-.755,137.736-2,178.132-.761,24.669-.752,67.437-.744,105.17.006,26.512.01,49.41-.256,60.91-.11,4.717-.174,8.586-.228,11.769-.255,15.112-.259,15.4-3.862,16.92l-.46.2-.323-.08c-2.342-.577-10.343-2.457-14.976-2.457-1.936,0-2.445.342-2.527.411l-.128.106-.155.06a73.362,73.362,0,0,1-26.9,5.17,88.292,88.292,0,0,1-18.707-2.125c-10.6-2.355-16.046-2.827-21.395-2.827-2.858,0-5.8.152-9.214.33-3.651.188-7.79.4-13.19.518-6.107.13-11.15.261-15.875.384-11.447.3-21.332.556-40.186.617l-1.848.006c-25.081.08-37.67.12-53.014,2.979A175.006,175.006,0,0,1,775.787,1861.563Z" fill="none" fill-rule="evenodd"></path>
      </g>
    </g>
    <g id="Group_R1070_Body">
      <g id="Pattern_R1070_Body_000">
        <path id="Option_R1070_Body_000_1" d="M990.232,650.74c-5.389-6.917-10.976-13.865-14.945-18.585-8.688-10.332-43.6-42.607-43.947-42.932l.7-.932.1-.793.132,0c.641,0,3.254-.1,13.668-1.008,12.249-1.071,38.02-2.64,43.061-2.944l1.029-.062,2.08,69.666Zm90.911-4.432c1.476-26.973,1.854-45.52,1.011-49.614a117.806,117.806,0,0,0-3.579-11.84l-.468-1.284,1.982-.083,55.8,3.1-.867,1.425a59.888,59.888,0,0,1-9.176,11.216l-1.289,1.205a213.375,213.375,0,0,0-16.108,16.72l-.056.062-.065.053a68.507,68.507,0,0,0-12.391,12.849c-1.34,1.78-2.543,3.387-3.64,4.853-4.01,5.36-6.66,8.9-9.4,12.054l-1.913,2.2Zm297.723,1203.279c1.694-3.149,4.014-10.082.539-21.14l-.028-.111c-2.53-13.2-1.377-16.909.368-22.526.517-1.662,1.1-3.544,1.642-5.9,2.276-9.947,7.8-48.72,8.987-59.914.87-9.839.215-12.137.115-12.418l-.131-.2.011-.313c0-.317-.256-8.581-20.872-42.47-4.141-6.809-8.322-13.55-12.749-20.687-18.367-29.616-37.359-60.24-55.352-98.47-14.616-31.052-26.346-61.229-33.355-79.258-3.727-9.588-6.419-16.515-7.647-18.736-3.409-6.164-3.863-6.406-12.145-6.488h-.257c-1.777,0-4.182.167-7.228.379-5.283.367-12.519.871-21.843.871a296.049,296.049,0,0,1-42.86-3.261c-4.767-.691-9.8-1.427-15-2.189-36.276-5.309-81.421-11.915-96.181-11.915-1.063,0-1.958.035-2.662.1a174.225,174.225,0,0,0-19.922,3.521l-1.215.277-.008-1.246c-.034-5.9-.09-12.709-.152-20.22-.274-32.919-.648-78,.184-120.419,1.1-56.142,1.1-125.684,0-173.049-.258-11.08-.558-21.5-.848-31.585-.862-30.02-1.677-58.373-1.154-96.521.373-27.27.921-44.949,1.5-63.667.508-16.414,1.034-33.387,1.5-58.4,1-53.274,1-121.364,1-122.046v-.819l.8-.161c.054-.012,5.514-1.14,7.577-4.261a4.5,4.5,0,0,0,.646-3.56,51.978,51.978,0,0,0-2.416-7.631c-1.479-3.945-2.876-7.672-2.606-11.65a25.708,25.708,0,0,1,1.08-5.9c.467-1.624.66-2.3.021-3.593a17.286,17.286,0,0,0-1.545-2.559,21.859,21.859,0,0,1-1.194-1.852l-.172-.3.053-.344c.564-3.683,1.855-6.1,3.754-7.065a4.313,4.313,0,0,1,1.013-2.963,3.468,3.468,0,0,1,2.644-.966,21.761,21.761,0,0,1,5.2,1.038,36.865,36.865,0,0,0,8.121,1.562c3.6-.432,7.928-.736,12.932-1.089,13.039-.917,30.9-2.174,51.937-6.889,34.2-7.661,58.767-16.618,84.8-30.916,27.069-14.866,36.364-22.192,35.52-28-.069-.439-.124-.867-.168-1.279l-.094-.864.843-.213a9.022,9.022,0,0,1,2.2-.267c5.333,0,10.422,4.38,11.647,5.512,1.677.291,7.193,2.574,25.161,15.158,16.611,11.85,34.951,20.946,49.688,28.256,4.78,2.371,9.3,4.611,13.253,6.7,17.232,9.084,40.127,25.591,61.241,44.157,17.226,15.147,20.918,21.734,24.488,28.1,1.133,2.02,2.2,3.929,3.7,6.1,1.167,1.7,2.188,3.086,3.175,4.432,4.252,5.794,7.924,10.8,19.919,35.722,13.851,30.864,11.207,44.6,9.457,53.691-.129.67-.254,1.319-.367,1.95-1.645,9.126-19.284,36.493-21.046,39.21-.3,1.873-2.653,16.772-8.971,60.807-6.605,46.042-18.068,112.51-25.03,145.145-5.455,25.564-6.566,41.528-8.408,67.977-.449,6.448-.958,13.756-1.581,21.938-3.223,42.292-4.834,93.252-5,124.995-.169,32.061.339,120.277,1,154.057.135,6.913.2,12.408.257,17.083.22,18.409.286,23.964,3.739,52.855,4.508,37.717,7.261,96.711,8.013,127.162.582,23.6-.922,36-2.021,45.062-.447,3.691-.833,6.877-.982,10.039-.2,4.161-.188,13.866-.177,25.105.018,17.86.038,40.074-.82,47.916.517,10.547-5.08,20.916-8.979,25.322l-.044.05-.05.044a9,9,0,0,1-5.784,2.563,6.264,6.264,0,0,1-4.319-1.792l-.566.807-.817-.562a3.884,3.884,0,0,0-1.6-.458,12.543,12.543,0,0,0-1.715-.134c-1.644,0-2.069.453-2.35.753l-.014.015c-.1.224-.265.886-.418,1.475a42.921,42.921,0,0,1-2.461,7.318,11.766,11.766,0,0,1-5.042,5.369l-2.971,1.638Zm-665.84.608a56.851,56.851,0,0,1-21.241-3.638l-.663-.235,0-1.346c-6.378-3.6-7.82-11.8-8.131-14.611h-5.877c-5.541,0-11.85-9.958-12.608-31.832-.653-18.838-.6-83.517-.574-102.892,1.209-16.4,2.672-32.612,3.846-45.64,1.271-14.086,2.274-25.211,2.056-26.829a32.092,32.092,0,0,1-.157-4.252c.008-3.96.021-10.587-1.845-24.767-3.807-37.126-4.55-75.324-5.578-128.193q-.207-10.6-.435-22c-1.259-61.628,8.34-107.118,9-110.142-.423-4.538-9.59-102.788-11.99-120.87-1.072-8.083-2.663-16.828-4.677-27.9-2.6-14.266-5.824-32.02-9.332-56.134-3.266-22.449-7.269-45.966-11.142-68.707-3.434-20.168-6.984-41.022-9.874-60.357-3.358-22.479-4.6-38.282-5.7-52.226-.874-11.074-1.628-20.644-3.28-30.683-5.686-13.191-6.582-18.183-8.065-26.44-.7-3.889-1.491-8.3-2.952-14.64-4.578-19.888,2.444-47.443,22.1-86.718,19.1-38.173,33.4-54.836,50.28-69.348,36.582-28.717,61.19-42.043,87.242-56.151a334.586,334.586,0,0,0,32.663-20.532c6.879-4.772,11.237-7.794,14.072-8.477a12.747,12.747,0,0,1,10.835-9.016l1.173-.161-.038,1.183a3.985,3.985,0,0,1-.077.658c1.806,2.36,2.092,3.436,2.08,3.967,4.28,4.077,38.35,35.243,88.153,49.3,45.566,13.736,53.733,17.27,59.136,19.61l1.031.444c5.019,2.149,15.858,5.815,24.638,5.923,2.781.034,5.531.045,8.145.045,2.924,0,5.679-.014,8.124-.027,1.953-.009,3.708-.019,5.193-.019h.544c5.192.008,11.206,5.781,12.87,12.356l.109.434-.25.371c-1.618,2.4-2.189,4.569-1.745,6.639a33.047,33.047,0,0,0,1.145,4.05c1.048,3.166,2.132,6.441.847,11.418-.634,2.776-1.343,5.106-1.913,6.978-.933,3.07-1.55,5.1-1.106,6.471.568,1.585,5.836,4.1,9.392,5.369l.676.241-.012.719s-1.283,73.437-2,113.06c-.327,18.032-.357,35.315-.385,52.029-.034,20.187-.07,41.062-.617,64.039-.615,25.871-.061,65.543.427,100.544.311,22.237.6,43.242.575,58.518-.017,8.657-.056,19.433-.1,31.631-.161,44.4-.38,105.219.1,153.456.323,32.56-.621,56.713-1.535,80.07-.457,11.664-.888,22.682-1.172,34.681l-.018.754-.729.19c-.818.213-1.283.34-1.286.341l-.2.056-.21-.032a81.819,81.819,0,0,0-10.461-.839c-3.476,0-5.187.419-6.009.77l-.076.032-.082.02c-14.753,3.576-43.758,5.811-91.278,7.032l-1.288.033c-48.7,1.251-87.172,2.239-91.65,2.955-4.364.7-6.892,3.25-8.2,8.27-.137.53-.268,1.118-.419,1.8-1.41,6.348-4.713,21.212-32.7,70.484-12.626,22.226-26.673,45.86-40.256,68.714-18.932,31.852-36.813,61.937-44.779,78.308-13.293,27.477-14.564,30.4-15.983,33.951-.653,1.634,1.033,7.8,3.168,15.611,2.013,7.365,4.519,16.53,6.89,27.837l.834,3.969c4.63,22.033,6.547,31.152,6.192,45.287.035,16.331,2.008,20.3,6.866,28.48,1.2,2.024,2.165,3.671,2.958,5.028l.86,1.473-1.7.032Q713.9,1850.195,713.026,1850.2ZM1044.3,750.334l1.057.273c1.469.378,4.963,1.428,5.671,3a1.616,1.616,0,0,1-.025,1.426c-1.08,2.13-3.647,3.457-6.867,3.549l-1.215.034Zm-7.2,8.244c-4.682,0-5.764-2.409-5.992-3.845-.4-2.546,3.861-3.879,4.72-4.121l1.074-.3,1.378,8.267Z" fill="none" fill-rule="evenodd"></path>
      </g>
    </g>
    <g id="Group_R1070_Hood_Lining">
      <g id="Pattern_R1070_Hood_Lining_000">
        <path id="Option_R1070_Hood_Lining_000_1" d="M992.528,654.875c-3.251-3.711-7.36-8.317-12.214-13.689-9.658-10.687-19.962-18.878-30.871-27.55-9.971-7.926-20.281-16.122-30.157-26.458-16.456-17.222-24.7-33.28-33.422-50.281-2.15-4.189-4.373-8.52-6.766-12.97-11.772-21.89-21.731-36.711-34.955-54.915-8-11.006-13.143-21.292-17.685-30.368-2.651-5.3-4.94-9.869-7.37-13.708-6.772-10.7-18.708-46.985-20.146-53.342-1.128-4.994-1.464-19.145-1.024-43.262.2-11.054,1.251-13.652,3.159-18.368.557-1.376,1.188-2.937,1.9-4.958l.02-.057.027-.054c15.583-31.49,31.425-43.46,53.523-53.5A243.864,243.864,0,0,1,935.928,230.3c24.435-2.284,56.441-3.479,75.428-3.479,7.084,0,12.221.166,14.853.48a61.569,61.569,0,0,0,7.294.486,49.769,49.769,0,0,0,5.185-.295c1.172-.114,2.278-.222,3.475-.222.322,0,.651.008.991.025s.656.026.94.026a6.347,6.347,0,0,0,1.916-.209l-.264-.9,1.42.085c.056,0,5.722.348,11.07,1.006a272.005,272.005,0,0,0,27.974,2l1.125-.006c8.628,0,29.536,4.7,56.007,10.658,4.874,1.1,9.913,2.229,15.065,3.376,31.845,7.084,47.413,17.938,63.543,34.292,15.093,15.3,20.538,22.9,27.286,54.522,5.416,25.371,4.969,39.966,4.4,58.444-.152,4.941-.308,10.051-.377,15.816-.338,28.057-2.875,45.047-10.055,67.329-7.077,21.958-20.778,55.8-29.125,69.257-5.634,9.085-19.34,17.683-36.69,28.568-8.777,5.5-18.723,11.745-28.632,18.747-9.679,6.84-17.541,11.777-23.859,15.744a177.711,177.711,0,0,0-16.569,11.214l-1.371-1.448a215.357,215.357,0,0,1,16.235-16.85l1.285-1.2a58.665,58.665,0,0,0,7.906-9.375l-52.311-2.9-1.25.057s-.346-.947-.387-1.057c-4.627-.008-31.614-.054-52.688-.054-13.424,0-21.724.019-24.668.055-6.834.083-9.836.516-11,.76l0,.18-.961.118c-5.037.3-30.782,1.872-43.008,2.94-6.185.541-9.673.8-11.638.92,7.336,6.811,34.609,32.27,42.339,41.464,3.984,4.736,9.588,11.706,14.994,18.643l.2.258.041,1.371c.341.4,1.038,1.235,2.01,2.453Z" fill="none" fill-rule="evenodd"></path>
      </g>
    </g>
    <g id="Group_R1070_Hood">
      <g id="Pattern_R1070_Hood_000">
        <path id="Option_R1070_Hood_000_1" d="M1066.081,712.553a38.281,38.281,0,0,1-8.622-1.619,20.923,20.923,0,0,0-4.663-.958c-1.015,0-1.4.289-1.585,1.188l-1.978-.146c-.22-3.99.667-7.844,2.968-12.886,3.4-7.445,22.727-44.562,28.952-52.007l.234-.419c2.7-3.1,5.326-6.611,9.308-11.932,1.1-1.469,2.305-3.08,3.649-4.865,8.618-11.451,16.474-16.383,29.49-24.554,6.3-3.953,14.136-8.874,23.772-15.683,9.954-7.034,19.926-13.29,28.724-18.809,17.132-10.747,30.662-19.236,36.053-27.926,8.269-13.334,21.879-46.969,28.92-68.816,7.111-22.068,9.624-38.909,9.959-66.742.07-5.784.226-10.9.379-15.854.584-19.06,1.006-32.83-4.36-57.964-6.845-32.071-12.22-38.8-26.755-53.535-15.869-16.088-31.191-26.768-62.552-33.744-5.157-1.147-10.2-2.282-15.076-3.379-25.3-5.691-47.154-10.606-55.562-10.606l-1.121,0a274.8,274.8,0,0,1-28.223-2.012c-4.2-.518-8.6-.839-10.258-.951-.579.671-1.741.985-3.638.985-.316,0-.662-.009-1.044-.029q-.456-.022-.889-.022c-1.1,0-2.111.1-3.282.212a51.261,51.261,0,0,1-5.377.3,63.668,63.668,0,0,1-7.533-.5c-2.554-.3-7.608-.466-14.615-.466-18.94,0-50.867,1.192-75.241,3.47a241.856,241.856,0,0,0-78.74,20.926c-22.2,10.079-37.144,21.433-52.531,52.508-.719,2.036-1.353,3.6-1.912,4.985-1.878,4.641-2.82,6.971-3.014,17.655-.161,8.805-.649,35.6.975,42.784,1.424,6.293,13.213,42.17,19.885,52.715,2.484,3.924,4.794,8.539,7.468,13.883,4.508,9.006,9.617,19.214,17.515,30.086,13.274,18.273,23.272,33.154,35.1,55.144,2.4,4.467,4.63,8.808,6.785,13.006,9.032,17.6,16.832,32.8,33.087,49.81,9.782,10.238,20.038,18.391,29.956,26.275,10.975,8.725,21.341,16.965,31.109,27.775,4.864,5.382,8.981,10,12.236,13.712,3.8,4.753,13.285,17.269,19.953,31.559,8.918,17.5,8.982,19.215,9.1,22.326.008.229.011.412.014.594l.029,1.709-1.416-.6a6.824,6.824,0,0,0-2.627-.594h-.541c-1.482,0-3.234.01-5.183.019-2.448.013-5.207.027-8.134.027-2.623,0-5.38-.011-8.17-.045-9.094-.112-20.245-3.877-25.4-6.084l-1.038-.448c-5.363-2.321-13.466-5.829-58.9-19.525-53.568-15.124-89.2-49.963-89.511-50.3l-1.08-1.159.81-.256a19.062,19.062,0,0,0-1.784-2.649l-.417-.525.33-.585c0-.011.455-1.049-.933-2.915l-.1-.135-.051-.16c-.515-1.622-2.7-3.011-3.5-3.409l-.371-.186-.132-.393c-.051-.156-1.247-3.887,1.019-9.685.773-1.978,1.591-4.43,2.433-7.29l.105-.357.313-.2a48.756,48.756,0,0,0,4.847-3.54l.138-.116.083-.029c.4-.381,4.229-4.852,16.939-46.135-6.606-29.7-7.786-78.115-7.885-82.829-1.366-1.556-5.07-7.361-16.324-29.669-14.573-28.89-26.084-51.709-28.7-92.7-2.6-40.729,11.833-60.466,25.839-79.5,4.163-16.887,37.743-84.883,78.29-135.273,34.988-43.48,64.773-59.963,82.569-69.811,2.719-1.5,5.066-2.8,7.171-4.05,10.5-6.212,18.19-7.516,22.795-7.516a17.9,17.9,0,0,1,2.76.194c.9-1.073,3.3-3.153,8.8-3.853a49.138,49.138,0,0,1,6.315-.456c6.483,0,13.713,1.678,24.175,5.61,16.353,6.145,70.889,43.7,112.517,90.606,37.12,41.828,53.535,80.524,70.914,121.491q2.67,6.3,5.378,12.625c30.574,43.175,28.132,113.832,27.884,119.419a23.95,23.95,0,0,1,2.5,6.249c1.335,4.7,3.876,29.192-3.416,50.158l-.8,2.3c-6.708,19.3-13.044,37.532-23.292,61.48-9.569,22.362-18.569,32.019-20.533,33.962.165,1.217.781,5.5,3.047,19.859,2.694,15.762,15.771,31.536,17.877,33.992.082,0,.175.012.279.022l.529.052.253.468c1.642,3.042,3.822,6.734,6.3,10.678a51.276,51.276,0,0,1,8.139,18.344l.094.467-.3.367c-.007.01-1.713,2.307-.784,8.213,1.019,7-7.859,14.3-36.534,30.048-26.211,14.395-50.933,23.409-85.327,31.115-21.188,4.747-39.13,6.01-52.232,6.933-5.016.353-9.348.658-12.917,1.088l-.079.01Z" fill="none" fill-rule="evenodd"></path>
      </g>
    </g>
  </g>
  <g id="custom_badge-positions">
    <g id="Front_Chest_Left">
      <rect x="1101.931" y="841.314" width="295.425" height="316.527" fill="none"></rect>
    </g>
    <g id="Front_Chest_Right">
      <rect x="679.281" y="841.314" width="295.425" height="316.527" fill="none"></rect>
    </g>
  </g>
<image class="background-product" width="2048" height="2048" xlink:href="https://media.reformclothing.com/design_lab/ysd-products/R1070_Zip_Hoodie/R1070_Zip_Hoodie_Front_A_50.png"></image></svg>