<svg xmlns="http://www.w3.org/2000/svg" xmlns:xlink="http://www.w3.org/1999/xlink" id="R1070_Zip_Hoodie_Back_A" class="back-center" viewBox="0 0 2048 2048" width="2048" height="2048">
  <g id="custom-color-swatches">
    <g id="Group_R1070_Rib" link="rib">
      <g id="Pattern_R1070_Rib_001">
        <path id="Option_R1070_Rib_001_3" d="M572.611,1960.484c-18.98,0-30.594-8.153-34.707-11.659l-.216-.183-.086-.269c-2.831-8.741-5.691-16.913-7.592-22.229l1.657-1.035c6.867,7.049,13.366,9.459,40.624,10.81,1.509.075,3,.113,4.446.113,20.82,0,32.437-7.919,45.889-17.087,3.769-2.569,7.666-5.224,11.987-7.88,14.811-9.1,23.515-16.208,27.386-19.637l1.329-1.179.318,1.748c.856,4.709,1.977,10.074,3.328,15.944l.093.407-.222.352c-3.783,5.983-11.01,12.278-24.165,21.05-5.1,3.4-8.972,6.491-12.717,9.48-10.209,8.15-18.273,14.586-42.541,19.666A72.54,72.54,0,0,1,572.611,1960.484Zm942.477-5.461c-3.263,0-6.789-.023-10.628-.048-3.34-.022-6.916-.046-10.76-.057-32.814-.1-40.2-9.817-46.717-18.395-3.433-4.52-8.643-7.822-15.488-9.814l-.659-.191-.058-.684q-.138-1.622-.25-3.278c-.433-6.524-.988-12.808-1.65-18.677l-.154-1.368,1.349.276c5.665,1.162,11.107,3.185,19.225,9.271a34.458,34.458,0,0,1,12.27,9.541c2.676,3.02,4.988,5.629,10.473,7.366,10.235,3.24,24.149,3.453,49.408,3.841l7.212.112c.427.007.851.011,1.268.011,18.515,0,26.425-6.769,29.8-12.446l1.858.552c-.276,6.817-.163,14.61-.012,22.663l.01.522-.423.306a57.616,57.616,0,0,1-9.128,5.295C1542.64,1954.272,1533.044,1955.023,1515.088,1955.023Zm-308.933-12.095c-43.346,0-81.276-.662-121.433-1.365-46.339-.809-94.255-1.645-157.409-1.645H923.22c-122.217,0-149.064-5.776-189.6-21.064-38.1-14.367-43.065-28.927-43.506-30.541l-.047-.168.015-.175c.474-5.918.857-12.523,1.174-20.192l.091-2.223,2.261,2.185c2.775,2.7,7.419,7.231,17.9,13.314,1.584.919,3.048,1.806,4.476,2.673,11.847,7.184,21.2,12.858,78.063,23.208,36.1,6.571,58.46,7.917,80.928,7.917,8.429,0,17.12-.2,26.321-.4,10.8-.242,23.044-.517,37.329-.532,8.278-.009,16.937-.017,25.9-.017,57.377,0,124.556.359,187.781,3.018,14.345.6,27.407.9,39.932.9,42.094,0,69.284-3.337,100.769-7.2,4.536-.557,9.144-1.123,13.88-1.688,39.452-4.708,56.94-21.529,61.36-26.573l2-2.278-.247,3.019a186.137,186.137,0,0,0-.1,26.567l.023.37-.225.3a34.437,34.437,0,0,1-15.417,11.531c-1.468.542-3.059,1.192-4.9,1.944-16.212,6.616-46.388,18.93-134.211,19.118Q1210.627,1942.929,1206.155,1942.928Z" fill="#98989A" fill-rule="evenodd"></path>
        <path id="Option_R1070_Rib_001_2" d="M580.031,1981.758a45.61,45.61,0,0,1-8.985-.861,121.61,121.61,0,0,1-25.718-8.336l-.393-.182-.137-.411c-.957-2.879-1.87-5.984-2.946-9.76-1.13-3.959-2.56-8.614-4.25-13.836l-1.089-3.36,2.689,2.292c3.944,3.361,15.094,11.18,33.409,11.18a70.534,70.534,0,0,0,14.4-1.546c23.8-4.981,31.7-11.287,41.7-19.27,3.6-2.876,7.685-6.135,12.855-9.582,12.908-8.607,19.961-14.724,23.584-20.454l1.28-2.025.833,3.6c3.738,16.045,2.99,22.5.169,29.443l-.258.633-.683-.01c-1.939,0-8.321,1.6-26.738,16.422C612.988,1977.236,592.5,1981.758,580.031,1981.758Zm926.1-3.579c-25.885,0-42.957-2.792-59.022-17.525a117.19,117.19,0,0,1-12.907-13.57l-.138-.176-.05-.218a149,149,0,0,1-3.231-20.855l-.125-1.453,1.4.407c7.265,2.114,12.824,5.655,16.522,10.524,6.236,8.208,13.305,17.511,45.13,17.6,3.846.012,7.425.035,10.768.057,3.834.025,7.356.048,10.613.048,17.645,0,27.044-.723,36.092-5.008a55.865,55.865,0,0,0,8.809-5.108l1.551-1.125.131,6.8c.107,5.47.044,9.486-.206,13.023l-.021.29-.172.233c-6.69,9.063-15.813,15.217-38.591,15.794C1517.3,1978.053,1511.572,1978.179,1506.126,1978.179Zm-280.695-11.085c-4.3,0-8.769-.06-13.285-.177-43.329-1.129-131.486-1.843-195.856-2.365-31.245-.253-55.924-.453-67.692-.635-2.009-.031-4.195-.044-6.539-.044-6.075,0-13.057.086-21.142.187-9.774.121-20.853.257-32.484.257-35.81,0-87.192-1.186-119.82-11.445-43.925-13.811-71.4-22.924-82.231-35.7l-.315-.371.1-.478a216.248,216.248,0,0,0,3.915-28.353l1.961-.184c.413,1.512,5.114,15.18,42.283,29.2,40.289,15.195,67.012,20.936,188.9,20.936h4.094c63.178,0,111.1.837,157.452,1.646,40.144.7,78.062,1.364,121.387,1.364,2.981,0,5.976,0,9.011-.01,87.433-.187,117.374-12.4,133.459-18.97,1.859-.759,3.466-1.414,4.965-1.968a32.453,32.453,0,0,0,14.518-10.864l1.631-2.147.163,2.691c.516,8.483,1.423,16.891,2.224,24.309l.046.427-.279.329c-4.978,5.843-16.766,16.106-39.788,19.184-8.22,1.1-16.131,2.7-24.507,4.388C1287.186,1962.42,1264.051,1967.093,1225.431,1967.094Zm-648.694-29.062c-1.474,0-3-.039-4.545-.115-26.347-1.306-34.19-3.438-41.957-11.412l-.152-.156-.073-.2c-2.087-5.833-4.107-11.27-5.689-15.309l-.952-2.432,2.333,1.174c5.581,2.81,20.088,9.342,34.224,9.342h.328c18.816-.134,46.2-9.823,62.415-18.873a126.329,126.329,0,0,0,31.684-24.787c1.491-1.693,3.319-3.607,5.434-5.69l1.9-1.871-.2,2.658c-.346,4.589.38,11.871,2.16,21.641l.1.555-.422.373c-3.919,3.473-12.724,10.671-27.665,19.847-4.281,2.628-8.157,5.27-11.906,7.825C610.027,1929.952,598.171,1938.032,576.737,1938.032Zm953.191-3.1q-.642,0-1.3-.011l-7.2-.113c-25.45-.39-39.47-.605-49.986-3.934-6.012-1.9-8.613-4.839-11.366-7.946a32.362,32.362,0,0,0-11.72-9.1l-.092-.044-.081-.06c-7.891-5.929-12.932-7.828-18.507-8.972l-.711-.145-.082-.722c-.819-7.276-1.8-13.919-2.911-19.742l-.288-1.508,1.5.346c.718.166,4.762,1.138,13.914,3.989,6.656,2.073,16.848,8.677,25.84,14.5,4.78,3.1,9.3,6.023,12.26,7.563,6.629,3.445,13.037,6.079,29.857,6.079,2.611,0,5.5-.063,8.576-.19,18.377-.756,22.8-2.385,28.391-4.447,1.313-.485,2.672-.985,4.289-1.506a41.54,41.54,0,0,0,11.981-6.7l2.332-1.808-.753,2.853a82.687,82.687,0,0,0-2.275,17.725l-.01.253-.13.218C1557.808,1927.629,1549.385,1934.928,1529.928,1934.929Zm-337.682-15.114c-12.553,0-25.642-.294-40.015-.9-63.188-2.657-130.342-3.016-187.7-3.016-8.97,0-17.619.008-25.9.017-14.264.015-26.5.289-37.29.532-9.213.206-17.914.4-26.362.4-22.575,0-45.037-1.352-81.287-7.95-57.22-10.415-66.717-16.174-78.74-23.464-1.419-.861-2.871-1.742-4.444-2.654-10.7-6.209-15.455-10.843-18.3-13.612l-.975-.944.113-2.814a51.588,51.588,0,0,0-2.23-17.855l-.5-1.546,1.605.25a40.644,40.644,0,0,1,22.5,11.955c8.413,8.553,12.726,9.171,20.557,10.293a116.279,116.279,0,0,1,12.919,2.438c5.9,1.49,13.336,3.694,21.212,6.026,16.186,4.794,34.532,10.226,47.559,11.953,21.849,2.894,67.292,5.078,124.676,5.991,4.883.078,9.478.117,13.655.117h0c18.876,0,28.147-.783,37.964-1.612,11.039-.932,22.454-1.9,48.458-1.9,9.548,0,20.244.128,32.7.391,30.462.643,52.19,1.4,69.648,2,19.788.685,34.085,1.182,50.354,1.182,13.89,0,28.279-.366,46.655-1.183,16.727-.744,29.634-1.064,40-1.32,29.093-.72,37.872-.937,54.463-8.589,19.59-9.035,29.208-16.386,37.622-24.644l2.067-2.028-.376,2.872c-.49,3.753-1.162,8.8-2.087,15.592-.3,2.208-.546,4.524-.772,7.29l-.027.329-.218.248c-4.539,5.179-22.469,22.448-62.627,27.241-4.73.565-9.333,1.13-13.865,1.686C1261.713,1916.471,1234.46,1919.815,1192.246,1919.815Z" fill="#171717" fill-rule="evenodd"></path>
        <path id="Option_R1070_Rib_001_1" d="M585.848,2000c-1.548,0-3.095-.06-4.6-.179-23.479-1.86-30.925-11.224-36.452-27.853l-.728-2.189,2.095.965a119.433,119.433,0,0,0,25.275,8.193,43.74,43.74,0,0,0,8.591.821c17.174,0,37.939-9.1,58.472-25.619,13.709-11.033,23.372-16.864,27.943-16.864h1.486l-.5,1.377c-.49,1.2-1.035,2.421-1.611,3.71-.644,1.44-1.31,2.928-2.006,4.626-3.851,9.411-9.092,15.847-14.161,22.072-1.35,1.658-2.747,3.373-4.1,5.12C638.784,1982.943,611.566,2000,585.848,2000Zm917.4-.33c-19.011,0-36.267-3.348-43.961-8.53-11.282-7.6-20.5-23.8-25.28-44.45l1.759-.844a115.266,115.266,0,0,0,12.687,13.334c15.584,14.29,32.291,17,57.672,17,5.424,0,11.137-.125,16.5-.262,24.423-.618,31.922-8.058,37.033-14.981l2.044-2.769-.242,3.433c-.906,12.887-4.4,25.812-23.665,33.051C1529.189,1997.888,1516.919,1999.67,1503.25,1999.67Zm-351.963-9.308c-15.1,0-31.357-.154-49.717-.47-34.034-.587-64.651-1.286-94.258-1.961-47.4-1.081-96.409-2.2-160.058-2.864-93.6-4.108-118.332-18.088-136.389-28.3-2.243-1.269-4.363-2.467-6.52-3.6-20.1-10.552-22.167-18.408-19.205-32.029.351-1.614.693-3.205,1.026-4.819l.414-2.011,1.328,1.567c10.479,12.355,37.722,21.382,81.3,35.085,32.366,10.177,83.542,11.353,119.222,11.353,11.618,0,22.689-.136,32.456-.257,8.09-.1,15.078-.187,21.166-.187q3.539,0,6.572.044c11.761.182,36.435.382,67.674.635,64.379.522,152.549,1.237,195.9,2.365,4.494.117,8.946.177,13.232.177,38.424,0,61.453-4.653,81.77-8.756,8.409-1.7,16.353-3.3,24.639-4.411,22.361-2.989,33.738-12.873,38.531-18.5l1.506-1.769.249,2.31c.474,4.388.863,8.037,1.2,11.7.48,5.136-1.307,10.064-5.309,14.65-12.666,14.516-46.293,24.3-89.953,26.169-9.106.391-17.536.782-25.631,1.157C1220.965,1989.1,1193.783,1990.362,1151.287,1990.362Zm-591.361-69.443c-14.566,0-29.415-6.682-35.123-9.555l-.342-.172-.14-.357a67.066,67.066,0,0,0-2.734-6.446,8.948,8.948,0,0,1-2.267-1.128l.833-1.8a125.174,125.174,0,0,0,20.272,4.466,96.818,96.818,0,0,0,12.569,1.03A52.889,52.889,0,0,0,567,1904.949c7.339-1.88,11.006-2.517,20.808-4.223,2.816-.491,6.143-1.07,10.214-1.792,17.206-3.054,22.941-7.18,38.269-18.206l2.254-1.622c14.14-10.152,21.379-17.328,23.261-19.285l2.346-2.439-.643,3.323c-.164.845-.593,2.874-1.629,6.979a16.132,16.132,0,0,0-.395,2.671l-.028.374-.268.263c-2.08,2.05-3.876,3.93-5.336,5.588a128.476,128.476,0,0,1-32.21,25.211c-16.431,9.171-44.227,18.991-63.375,19.127Zm949.119-3.81c-15.762,0-22.731-2.123-30.777-6.3-3.051-1.585-7.4-4.4-12.427-7.66-8.444-5.472-18.952-12.281-25.347-14.272-9.085-2.83-13.064-3.787-13.77-3.95l-.635-.148-.122-.639c-1.022-5.35-1.915-8.729-2.358-10.266l-.462-1.605,1.633.351a128.17,128.17,0,0,0,18.075,2.3c1.414.1,2.617.167,3.658.228,6.847.409,6.968.443,12.9,3.692,2.57,1.408,6.091,3.336,11.774,6.182,19.755,9.9,34.953,12.592,54.527,13.9,1.084.072,2.188.109,3.282.109,14.981,0,27.439-6.756,34.881-10.793.805-.435,1.551-.84,2.235-1.2,1.541-.813,3.075-1.672,4.691-2.624l1.283,1.493c-1.566,1.921-4.6,6.358-7.356,14.489-.308.915-.593,1.869-.87,2.917l-.086.328-.268.207a43.521,43.521,0,0,1-12.593,7.026c-1.578.508-2.916,1-4.211,1.479-5.759,2.123-10.308,3.8-29,4.568C1514.6,1917.045,1511.684,1917.109,1509.045,1917.109ZM1192.429,1897.1c-16.306,0-30.616-.5-50.421-1.184-17.452-.605-39.172-1.357-69.623-2-12.27-.26-23.258-.391-32.658-.391-25.928,0-37.3.96-48.3,1.889-9.858.833-19.17,1.619-38.126,1.619-4.186,0-8.791-.039-13.688-.117-57.457-.914-102.984-3.105-124.908-6.009-13.182-1.747-31.607-7.2-47.864-12.017-7.857-2.327-15.277-4.525-21.134-6a112.886,112.886,0,0,0-12.712-2.4c-7.991-1.144-12.814-1.835-21.7-10.87a38.631,38.631,0,0,0-21.378-11.381l-.609-.094-.189-.586c-4.564-14.128-14.543-19.8-17.492-21.2l-.59-.28.012-.4-.082-.023.063-.895a1.048,1.048,0,0,1,1.162-.888c.161,0,.451.012.959.052,1.418.11,19.074,3.617,21.082,4.016l.516.1.208.483a61.875,61.875,0,0,0,8.83,13.748c4.567,5.325,20.89,5.812,35.291,6.241,3.653.109,7.43.221,10.919.406l.375.02.269.261c1.228,1.193,5.132,1.687,7.305,1.718l3.591.052-2.359,1.378a28.1,28.1,0,0,0,5.26,3.713c7.03,4.048,20.7,8.94,27.57,9.866,6.184.833,9.188,1.476,17.216,3.195l3.824.817a85.353,85.353,0,0,0,20.724,2.031c1.6,0,3.207-.016,4.828-.032l2.185-.02c5.1-.041,24.336-.055,39.262-.055,16.345,0,35.244.017,40.62.055a66.246,66.246,0,0,1,11.272,1.3,171.139,171.139,0,0,0,32.759,2.7h.884a147.049,147.049,0,0,0,49.541-8.925l.281-.114.3.06c.191.039,19.241,3.888,35.746,3.98l.785,0c7.437,0,17.193-.566,26.627-1.111,9.382-.544,18.243-1.057,24.977-1.057,2.218,0,4.043.055,5.583.169,3.526.4,8.471,1.139,14.2,1.988,6.944,1.031,14.813,2.2,21.785,3.016,4.954.579,8.723,1.27,12.713,2a180.249,180.249,0,0,0,23.179,2.993c2.417.163,4.929.246,7.465.246a145.057,145.057,0,0,0,22.77-1.946,23.131,23.131,0,0,1,2.513-.331,1.254,1.254,0,0,1,.587.132h.082c.532,0,1.586-.083,3.181-.209,2.75-.216,7.352-.58,14.2-.895,8.146-.376,14.693-1.051,19.024-1.5,2.769-.285,4.769-.491,5.971-.5,2.077-.02,6.381-.686,12.789-1.981.674-.135,1.333-.311,2-.489a20.768,20.768,0,0,1,5.683-.911,17.875,17.875,0,0,1,3.7.4,22.43,22.43,0,0,0,5.316.707,5.633,5.633,0,0,0,2.748-.426,1.751,1.751,0,0,1,1.312-.594,4.009,4.009,0,0,1,1.324.324,17.087,17.087,0,0,0,4.188.975,87.429,87.429,0,0,0,15.97,1.348c2.882,0,5.84-.119,8.791-.352,12.919-1.207,20.343-8.041,24.33-11.712,3.12-2.87,4.137-3.119,7.506-3.947,1.237-.3,2.777-.682,4.9-1.3,5.611-1.7,9.277-3.076,13.724-5.886.445-.27.866-.5,1.28-.7l1.628-.8-.194,1.8c-.133,1.229-.452,3.932-1.222,9.83l-.044.343-.247.242c-7.409,7.271-17.163,15.336-38.184,25.032-16.966,7.825-25.842,8.044-55.252,8.772-10.362.256-23.258.575-39.964,1.319C1220.766,1896.737,1206.35,1897.1,1192.429,1897.1Zm22.714-19.415" fill="#171717" fill-rule="evenodd"></path>
      </g>
      <g id="Pattern_R1070_Rib_000">
        <path id="Option_R1070_Rib_000_1" d="M585.848,2000c-1.549,0-3.1-.06-4.6-.179-27.974-2.215-32.972-15.075-39.4-37.613-6.007-21.064-18.357-54.457-20.259-57.817a8.977,8.977,0,0,1-2.273-1.13l.833-1.8a125.343,125.343,0,0,0,20.272,4.466,96.817,96.817,0,0,0,12.57,1.03A52.882,52.882,0,0,0,567,1904.949c7.339-1.88,11.006-2.517,20.809-4.223,2.815-.491,6.142-1.07,10.213-1.792,17.206-3.054,22.941-7.179,38.267-18.2l2.257-1.623c14.146-10.157,21.38-17.329,23.26-19.285l2.346-2.44-.643,3.324c-.165.848-.594,2.883-1.628,6.979-1.019,4.032-.911,14.509,5.385,41.526,4.587,19.682,2.318,24.75-1.44,33.148-.645,1.441-1.311,2.931-2.008,4.631-3.851,9.41-9.092,15.847-14.161,22.071-1.35,1.658-2.747,3.373-4.1,5.12C638.785,1982.943,611.567,2000,585.848,2000Zm917.4-.33c-19.011,0-36.267-3.348-43.961-8.53-12.247-8.248-26.234-30.6-28.761-68.584-1.976-29.736-5.8-44.782-6.919-48.685l-.462-1.605,1.633.351a128.17,128.17,0,0,0,18.075,2.3c1.414.1,2.617.167,3.658.228,6.847.409,6.968.443,12.9,3.693,2.57,1.407,6.091,3.335,11.774,6.182,19.756,9.9,34.953,12.591,54.527,13.9,1.084.072,2.188.109,3.282.109,14.981,0,27.439-6.756,34.882-10.793.8-.435,1.55-.84,2.234-1.2,1.541-.813,3.075-1.672,4.691-2.624l1.283,1.493c-1.566,1.921-4.6,6.358-7.356,14.489-3.785,11.186-3.493,26.129-3.089,46.811l.027,1.374c.406,20.869-1.094,37.514-23.871,46.074C1529.188,1997.888,1516.919,1999.67,1503.25,1999.67Zm-351.963-9.308c-15.092,0-31.354-.154-49.717-.47-34.034-.587-64.651-1.286-94.258-1.961-47.4-1.081-96.409-2.2-160.058-2.864-93.6-4.108-118.332-18.088-136.389-28.3-2.243-1.269-4.363-2.467-6.52-3.6-20.1-10.552-22.167-18.408-19.205-32.029,2.988-13.734,5.034-25.032,6.209-55.728,1.062-27.751-16.242-37.4-19.722-39.057l-.59-.28.012-.4-.082-.023.063-.895a1.048,1.048,0,0,1,1.162-.888c.161,0,.451.012.959.052,1.418.11,19.074,3.617,21.082,4.016l.516.1.208.483a61.875,61.875,0,0,0,8.83,13.748c4.567,5.325,20.89,5.812,35.292,6.241,3.652.109,7.429.221,10.919.406l.375.02.269.261c1.23,1.195,5.132,1.688,7.3,1.718l3.6.05-2.364,1.38a28.184,28.184,0,0,0,5.26,3.713c7.031,4.048,20.7,8.941,27.57,9.866,6.184.833,9.188,1.476,17.216,3.195l3.824.817a85.353,85.353,0,0,0,20.724,2.031c1.6,0,3.207-.016,4.828-.032l2.185-.02c5.1-.041,24.336-.055,39.262-.055,16.345,0,35.244.017,40.62.055a66.235,66.235,0,0,1,11.272,1.3,171.111,171.111,0,0,0,32.768,2.7h.875a147.064,147.064,0,0,0,49.541-8.926l.281-.114.3.06c.191.039,19.241,3.888,35.746,3.98l.785,0c7.437,0,17.193-.566,26.627-1.111,9.382-.544,18.243-1.057,24.977-1.057,2.218,0,4.043.055,5.583.169,3.523.4,8.463,1.138,14.182,1.986,6.948,1.032,14.823,2.2,21.8,3.018,4.953.579,8.722,1.27,12.711,2a180.449,180.449,0,0,0,23.18,2.993c2.417.163,4.929.246,7.465.246a145.057,145.057,0,0,0,22.77-1.946,23.131,23.131,0,0,1,2.513-.331,1.254,1.254,0,0,1,.587.132h.083c.531,0,1.584-.083,3.178-.209,2.75-.216,7.352-.58,14.206-.894,8.144-.377,14.69-1.052,19.021-1.5,2.771-.286,4.772-.492,5.974-.5,2.077-.02,6.381-.686,12.789-1.981.674-.135,1.333-.311,2-.489a20.768,20.768,0,0,1,5.683-.911,17.875,17.875,0,0,1,3.7.4,22.43,22.43,0,0,0,5.316.707,5.633,5.633,0,0,0,2.748-.426,1.754,1.754,0,0,1,1.311-.594,4,4,0,0,1,1.324.324,17.087,17.087,0,0,0,4.188.975,87.451,87.451,0,0,0,15.971,1.348c2.882,0,5.84-.119,8.791-.352,12.917-1.207,20.341-8.039,24.33-11.71,3.12-2.872,4.137-3.121,7.506-3.949,1.237-.3,2.777-.682,4.9-1.3,5.611-1.7,9.277-3.076,13.724-5.886.445-.27.866-.5,1.28-.7l1.628-.8-.194,1.8c-.217,2.01-.935,7.986-3.309,25.423-2.749,20.191-.585,40.241,1.324,57.931.446,4.139.868,8.048,1.231,11.932.479,5.136-1.308,10.064-5.31,14.65-12.666,14.516-46.293,24.3-89.953,26.169-9.105.391-17.534.782-25.629,1.157C1220.967,1989.1,1193.784,1990.361,1151.287,1990.362Z" fill="rgb(118, 188, 33)" fill-rule="evenodd"></path>
      </g>
    </g>
    <g id="Group_R1070_Sleeves" link="sleeves">
      <g id="Pattern_R1070_Sleeves_000">
        <path id="Option_R1070_Sleeves_000_1" d="M553,1908.957a98.281,98.281,0,0,1-12.83-1.048,127.272,127.272,0,0,1-20.611-4.54l-.124-.039-.11-.069c-2.986-1.883-7.888-5.955-14.568-12.1l-.247-.26c-8.1-8.675-12.992-13.912-12.252-26.639.079-.989.154-1.826.222-2.584.56-6.246.619-6.9-3.043-29.835-5.562-25.893-7.159-44.507-8.85-64.214-.993-11.569-2.019-23.532-3.9-37.686q-1.124-8.454-2.615-19.288c-5.674-41.505-15.17-110.97-24.012-207.484-7.772-84.836-5.8-144.416-3.506-213.4.779-23.455,1.583-47.709,2.086-74.733C450.6,1109.422,458.4,1018.407,474.7,910.7c13.637-90.081,33.97-113.824,57.515-141.315,3.828-4.47,7.787-9.093,11.8-14.1,22.9-28.6,74.667-53.917,120.336-76.255,11.924-5.833,23.187-11.342,33.77-16.8,56.013-28.9,89.866-57.942,93.542-61.158,1.8-1.774,5.125-3.88,9.337-6.545,2.874-1.819,6.112-3.868,9.48-6.209l-.049-.293.633-.4c6.512-3.4,22.946-11.614,35.323-14.62,4.64-2.938,8.738-4.49,11.858-4.49a6.8,6.8,0,0,1,3.213.717l2.773,1.471-3.113.4a9.871,9.871,0,0,0-4.73,1.616c-2.464,1.947-4.686,6.6-4.708,6.644l-.1.206-.178.144A181.621,181.621,0,0,1,832.317,592.8c-6.962,4.116-25.079,20.262-42.6,35.877-9.007,8.028-18.321,16.329-26.144,23.021-22.216,19-37.638,35.573-68.759,73.869-4.924,6.326-8.429,10.99-11.246,14.738-6.081,8.092-8.13,10.819-11.921,13.453-12.751,8.858-43.978,32.979-58.559,65.586-10.687,26.161-8.78,37.466-7.941,40.307.794,2.688,1.779,8.233,3.026,15.252,1.327,7.469,2.978,16.763,4.978,25.815a154.085,154.085,0,0,0,4.621,16.693,63.044,63.044,0,0,1,3.383,14.408c.671,5.829,3.525,12.576,7.137,21.118a295.147,295.147,0,0,1,11.8,31.708c8.183,27.254,8.8,32.911,10.019,44.178.312,2.875.445,5.049.551,6.795.312,5.123.417,6.85,4.32,13.825,5.259,9.4,6.929,11.907,6.945,11.931l.315.469-.239.512c-.035.077-3.687,8.555-1.9,39.518,1.183,20.536,3.812,30.725,6.856,42.521,1.676,6.5,3.41,13.212,5.109,22.353,2.535,9.557,4.949,16.653,6.888,22.356,3.153,9.271,5.235,15.4,5.109,23.84-.1,6.48.842,21.927,1.93,39.813,1.19,19.557,2.538,41.724,3.061,60.142.709,25.026,1.324,30.815,2.035,37.519.3,2.851.614,5.8.958,10.436,1.182,15.971-.072,20.112-5.053,33.423-4.962,13.263-5.086,22.089-2.935,45.557.565,6.169,1.161,11.01,1.687,15.281,1.519,12.331,2.437,19.774.308,39.915l-.008.074-.019.074c-.418,1.6-.792,3.007-1.127,4.267-2.588,9.741-2.8,10.536-2.834,22.483-.008,2.962-.047,5.9-.084,8.756-.13,10-.253,19.439,1.056,25.011.162.692.338,1.4.519,2.131,1.7,6.853,4.028,16.239.485,33.3-1.6,7.683-2.771,10.33-3.907,12.891-1.648,3.71-3.2,7.215-6.067,26.055a168.031,168.031,0,0,1-4.668,20.058c-1.229,4.425-2.391,8.6-3.33,13-1.613,7.554-3,15.026-4.234,21.618-1.746,9.367-3.253,17.456-4.771,22.462-2.88,9.5-2.862,14.255-2.821,24.68.016,4.163.036,9.342-.132,16.054-.573,22.942,1.956,37.655,1.982,37.8l.027.153-.021.155c-.026.192-2.572,19.348.941,28.507,2.788,7.267,6.577,10.8,11.584,10.8a12.7,12.7,0,0,0,2.631-.292l1.128-.239.078,1.15c.209,3.082.672,13.675-2.122,20.55a116.825,116.825,0,0,1-6.769,13.881l-.111.582-.2.214c-1.911,1.986-9.253,9.268-23.536,19.523l-2.255,1.622c-15.157,10.9-21.431,15.417-39.085,18.549-4.073.724-7.4,1.3-10.218,1.793-9.747,1.7-13.394,2.331-20.657,4.192A54.752,54.752,0,0,1,553,1908.957Zm976-7.928c-1.139,0-2.288-.038-3.416-.113-19.829-1.322-35.232-4.054-55.29-14.1-5.716-2.863-9.255-4.8-11.839-6.216-5.6-3.065-5.6-3.065-12.06-3.45-1.045-.062-2.254-.134-3.673-.229a130.2,130.2,0,0,1-18.361-2.345l-.585-.126-.166-.574c-.138-.483-.246-.829-.312-1.04a40.331,40.331,0,0,1-12.025-33.007c1.807-20.5,1.892-31.716-4.244-76.963-5.284-38.983-12.681-77.334-14.823-88.159l-.012-.063,0-.065c-.182-2.741-.316-5.283-.445-7.713-.6-11.329-1.071-20.277-5.816-35.644-1.114-3.6-2.182-6.975-3.195-10.171-5.166-16.3-8.9-28.082-9.827-43.062-1.134-18.288-2.191-31.006-3.991-50.97a196.368,196.368,0,0,1,.482-37.9c.216-2.377.4-4.429.514-6.25.236-3.882-.549-11.949-1.459-21.291-1.109-11.4-2.491-25.585-2.536-37.643-.077-20.618.511-77.159,2-93.1.474-5.064.911-11.37,1.374-18.046.935-13.459,1.992-28.713,3.633-37.054,2.4-12.2,6.387-32.469,6.971-46.845.554-13.7,6.461-90.9,10.988-126.086,1.075-8.357,2.139-15.933,3.077-22.618,2.958-21.084,5.1-36.318,4.9-55.243-.039-3.79-.12-7.529-.2-11.259-.445-20.6-.907-41.909,6.222-70,4.114-16.209,7.947-28.924,11.026-39.141,3.159-10.481,5.655-18.76,6.929-25.79l.023-.127.055-.118c4.522-9.678,4.277-14.863,4.019-20.352-.078-1.656-.159-3.368-.119-5.245.17-7.928-8.317-28.43-24.7-46.3-15.383-16.788-46.787-51.481-66.91-75.025-5.135-6.006-9.446-11.363-13.615-16.544-11.853-14.729-21.215-26.362-40.155-41.319-27.287-21.55-81.337-65.06-91.914-75.057-9.226-8.719-14.878-12.106-17.006-13.381-.379-.227-.659-.395-.839-.519-1.215-.826-2.984-1.992-2.984-1.992l-.174-.115-.114-.176c-.034-.051-3.4-5.189-7.687-7.729l-.209-.124-.129-.207a1.749,1.749,0,0,1-.142-1.8,2.144,2.144,0,0,1,2.053-.914c1.985,0,5.687,1.082,11.313,3.3,32.944,9.543,49.877,16.329,57.032,19.522l.694.309-.09.6c1.161.963,4.486,3.986,13.48,13.311,13.8,11.244,79.05,39.156,144.712,66.785,79.7,41.482,130.945,103.657,152.379,184.833,24.886,94.25,43.894,197.235,54.97,297.82,8.25,74.926,7.164,105.323,5.66,147.392-.4,11.25-.818,22.883-1.123,36.623-1.2,53.937-1.01,175.461-.9,248.068.027,18.073.051,33.355.049,44.193,0,12.663.1,26.329.2,40.8.357,48.34.725,98.325-2.777,114.634-.754,3.516-1.473,6.544-2.107,9.217-3.2,13.47-4.52,19.046-.153,42.032,5.171,27.212-20.632,42.629-22.744,43.838-.13.135-.415.439-.806.919l-.113.14-.155.091c-1.64.968-3.2,1.842-4.772,2.671-.679.357-1.418.758-2.214,1.19C1557.224,1894.121,1544.485,1901.029,1529,1901.029Z" fill="rgb(23, 23, 23)" fill-rule="evenodd"></path>
      </g>
    </g>
    <g id="Group_R1070_Body" link="body">
      <g id="Pattern_R1070_Body_000">
        <path id="Option_R1070_Body_000_1" d="M1188.757,1881.167c-2.58,0-5.137-.084-7.6-.25a181.848,181.848,0,0,1-23.406-3.022c-3.957-.726-7.694-1.412-12.582-1.983-7.009-.819-14.9-1.991-21.862-3.025-5.7-.847-10.626-1.578-14.077-1.975-1.428-.1-3.256-.159-5.393-.159-6.676,0-15.509.512-24.861,1.053-9.463.548-19.248,1.115-26.745,1.115l-.8,0c-15.577-.087-33.354-3.473-35.841-3.962a150.094,150.094,0,0,1-50.007,8.962h-.88a172.814,172.814,0,0,1-33.109-2.728,64.718,64.718,0,0,0-10.946-1.273c-5.376-.038-24.28-.055-40.63-.055-14.914,0-34.135.014-39.222.055l-2.18.02c-1.628.016-3.242.032-4.849.032a88.945,88.945,0,0,1-21.163-2.079l-3.806-.814c-7.972-1.707-10.955-2.346-17.061-3.168-7.2-.97-20.965-5.889-28.32-10.125-4.291-2.588-5.831-3.98-6.337-4.9-1.746-.093-5.61-.47-7.535-1.99-3.371-.172-7.008-.281-10.53-.386-15.54-.463-31.609-.942-36.755-6.943a64.249,64.249,0,0,1-8.927-13.77c-7.733-1.536-19.058-3.746-20.3-3.879l-.033,1.092-.5-.237,0,.071-.849.18a14.778,14.778,0,0,1-3.046.335c-5.851,0-10.377-4.065-13.452-12.084-3.566-9.3-1.336-27.357-1.076-29.341-.271-1.649-2.532-16.151-1.985-38.041.167-6.683.147-11.847.131-16-.042-10.63-.06-15.482,2.907-25.267,1.485-4.9,2.984-12.939,4.718-22.247,1.231-6.605,2.627-14.091,4.245-21.671.953-4.456,2.176-8.86,3.358-13.119a166.126,166.126,0,0,0,4.618-19.823c2.905-19.105,4.514-22.729,6.217-26.566,1.094-2.464,2.225-5.013,3.777-12.485,3.45-16.617,1.277-25.376-.468-32.413-.184-.741-.361-1.456-.526-2.156-1.364-5.81-1.246-14.932-1.108-25.5.037-2.849.075-5.779.084-8.734.035-12.2.306-13.225,2.9-22.989.33-1.24.7-2.621,1.106-4.188,2.1-19.858,1.189-27.211-.311-39.385-.527-4.286-1.126-9.144-1.694-15.343-2.183-23.821-2.047-32.806,3.054-46.441,4.859-12.985,6.082-17.023,4.931-32.574-.341-4.606-.651-7.537-.953-10.373-.715-6.745-1.333-12.57-2.044-37.673-.522-18.386-1.869-40.535-3.058-60.077-1.091-17.927-2.033-33.409-1.934-39.964.121-8.1-1.917-14.094-5-23.167-1.95-5.731-4.375-12.865-6.945-22.561-1.7-9.146-3.428-15.83-5.1-22.292-3.071-11.9-5.723-22.174-6.917-42.906-1.6-27.737,1.078-37.665,1.879-39.942-.665-1.052-2.576-4.174-6.745-11.626-4.126-7.375-4.247-9.364-4.57-14.68-.105-1.725-.236-3.873-.543-6.7-1.21-11.147-1.817-16.742-9.947-43.82a293.577,293.577,0,0,0-11.722-31.5c-3.675-8.69-6.578-15.553-7.282-21.668a60.707,60.707,0,0,0-3.295-14.012,155.725,155.725,0,0,1-4.675-16.886c-2.009-9.092-3.664-18.409-4.994-25.9-1.236-6.959-2.212-12.455-2.975-15.036-1.135-3.844-2.627-15.6,8.02-41.66,14.8-33.1,46.369-57.489,59.255-66.441,3.529-2.452,5.529-5.114,11.466-13.014,2.821-3.754,6.332-8.425,11.279-14.78,31.222-38.421,46.7-55.048,69.024-74.145,7.807-6.679,17.113-14.972,26.113-22.993,18.4-16.4,35.783-31.892,42.913-36.107a180.7,180.7,0,0,0,18.677-12.78c.494-1,2.638-5.14,5.172-7.143a11.6,11.6,0,0,1,5.712-2.03l.316-.041.282.149a5.011,5.011,0,0,1,1.775,1.551l.243-.063c11.881-3.067,21.267-5.49,79.125-6.782,9.889-.22,18.36-.447,25.924-.65,14.172-.381,25.366-.681,36.626-.681,19.33,0,38.931.9,72.32,3.334,41.151,5.266,55.437,5.991,64.753,5.991.853,0,1.653,0,2.425-.01.726,0,1.428-.008,2.129-.008.83,0,1.659,0,2.523.024,9.27.075,11.755.757,12.418,1.113l.019-.019c4.28,2.534,7.563,7.2,8.228,8.184.473.313,1.84,1.218,2.837,1.9.16.109.407.256.742.456,2.179,1.3,7.968,4.774,17.351,13.643,10.533,9.954,64.518,53.411,91.781,74.941,19.117,15.1,28.541,26.808,40.472,41.635,4.161,5.169,8.463,10.515,13.578,16.5,20.109,23.526,51.492,58.2,66.865,74.973,16.732,18.259,25.4,39.432,25.221,47.7-.039,1.808.041,3.485.117,5.108.269,5.72.523,11.125-4.15,21.175-1.3,7.113-3.8,15.4-6.959,25.884-3.074,10.2-6.9,22.89-11,39.055-7.062,27.823-6.625,48.047-6.161,69.459.081,3.738.162,7.486.2,11.284.2,19.075-1.95,34.371-4.921,55.541-.937,6.68-2,14.251-3.073,22.6-4.521,35.138-10.421,112.236-10.974,125.91-.59,14.531-4.6,34.894-6.989,47.06-1.633,8.309-2.687,23.5-3.617,36.9-.465,6.688-.9,13.006-1.378,18.093-1.484,15.874-2.069,72.314-1.992,92.9.045,11.966,1.421,26.1,2.527,37.457.955,9.815,1.71,17.567,1.464,21.606-.113,1.851-.3,3.917-.518,6.31a194.513,194.513,0,0,0-.482,37.539c1.8,19.982,2.86,32.715,4,51.027.913,14.734,4.615,26.414,9.738,42.58,1.014,3.2,2.084,6.578,3.2,10.186,4.818,15.6,5.3,24.661,5.9,36.129.128,2.421.262,4.954.445,7.685l-.345.045c.683,14.124,4.2,88.6,4.135,124.565-.063,36.817-20.214,48.983-23.841,50.872-.013.126-.107,1.005-.107,1.005l-.5.242c-.361.177-.728.374-1.1.6-4.626,2.923-8.416,4.35-14.206,6.1-2.175.637-3.739,1.02-4.994,1.329-3.218.79-3.887.955-6.6,3.449-4.192,3.86-11.939,10.99-25.543,12.26-3.018.239-6.029.36-8.964.36a89.043,89.043,0,0,1-16.271-1.373,18.847,18.847,0,0,1-4.562-1.067c-.2-.072-.422-.151-.557-.188-.714.674-2.1,1-4.151,1a24.367,24.367,0,0,1-5.767-.758,15.78,15.78,0,0,0-3.247-.351,19.121,19.121,0,0,0-5.169.844c-.711.188-1.409.373-2.122.517-6.532,1.32-10.962,2-13.167,2.02-1.108.01-3.07.212-5.784.492-4.354.449-10.934,1.127-19.137,1.507-6.821.312-11.4.675-14.14.891-1.7.133-2.726.214-3.336.214a2.4,2.4,0,0,1-.841-.122c-.376.038-1.184.163-2.033.295A146.872,146.872,0,0,1,1188.757,1881.167Z" fill="rgb(118, 188, 33)" fill-rule="evenodd"></path>
      </g>
    </g>
    <g id="Group_R1070_Hood" link="hood">
      <g id="Pattern_R1070_Hood_000">
        <path id="Option_R1070_Hood_000_1" d="M1229.822,596.358c-7.107-3.172-23.945-9.918-56.862-19.457-6.708-2.647-9.5-3.2-10.667-3.2a1.342,1.342,0,0,0-.465.052.473.473,0,0,0,.218-.455l-1.066,1.142-.2.372c-.069-.033-1.822-.8-11.505-.876-.864-.019-1.679-.024-2.495-.024-.7,0-1.394,0-2.116.008-.775,0-1.578.01-2.436.01-9.382,0-23.745-.727-64.953-6-33.282-2.421-52.843-3.323-72.12-3.323-11.234,0-22.415.3-36.57.68-7.566.2-16.041.43-25.935.651-57.627,1.286-66.913,3.684-78.67,6.719l-1.761.453-.358-.734c-.605-1.242-1.813-1.872-3.592-1.872-1.933,0-5.4.743-10.944,4.278l-.141.09-.164.039c-12.177,2.92-28.551,11.1-35.025,14.487l-1.205.63-.242-1.339c-.372-2.056.3-8.631.54-10.782a56.424,56.424,0,0,1-11.911-11.515c-5.173-6.776-5.82-8.627-12.008-26.335-.692-1.982-1.455-4.163-2.3-6.575-8.239-23.47-22.112-91.8-23.561-116.049-1.3-21.817,1.885-31.409,3.6-36.563.151-.453.289-.87.411-1.256.531-1.677.924-5.128,1.575-10.846,1.121-9.842,3-26.313,7.739-53.722,14.447-62.386,37.419-107.511,69.8-160.117,30.007-48.742,90.959-77.459,116.987-89.723,2.885-1.359,5.376-2.533,7.179-3.438,16.16-8.12,27.626-10.282,29.276-10.564.983-.559,5.911-3.206,11.03-3.206a12.132,12.132,0,0,1,4.094.668c.64.229,1.3.443,2,.669,6.133,1.994,15.4,5.007,39.135,27.354,8.105,7.63,15.269,12.639,23.563,18.437,17.811,12.452,39.976,27.948,82.443,79.27,60.628,73.27,70.263,125.668,70.45,126.737.535,1.374,2.765,7.465,13.266,36.157,15.47,42.271,18.718,80.094,9.653,112.419-9.465,33.746-40.558,60.3-45.552,64.389,1.014,1.739,4.362,7.374,14.855,24.49,13.233,21.587,8.947,53.442,8.415,57l-.2,1.3Z" fill="rgb(118, 188, 33)" fill-rule="evenodd"></path>
      </g>
    </g>
  </g>
  <g id="custom_badge-positions">
    <g id="Back_Center">
      <rect x="711.204" y="804.736" width="618.768" height="928.151" fill="none"></rect>
    </g>
  </g>
<image class="background-product" width="2048" height="2048" xlink:href="https://media.reformclothing.com/design_lab/ysd-products/R1070_Zip_Hoodie/R1070_Zip_Hoodie_Back_A_2048.png"></image><image width="2048" height="2048" class="decoration__preview-image" xlink:href="https://rendering.documents.cimpress.io/v1/dcl/preview?format=png&amp;width=2048&amp;instructions_uri=https%3A%2F%2Fuds.documents.cimpress.io%2Fv3%2Finstructions%3Apreview%3FdocumentUri%3DrZJNjxMxDIb%252FS87rTj4nSY%252FAoSBxQSAkEIfEcXZG2%252BlUyXTRqup%252FJy2shAYuoL0kjl%252FHefLKZ%252FZIpY7zgW2Z3HB2x%252BrDqcWv376Hd7tXn3dvvuxaMs%252BH5QMd5zouc3n6VPatZFiWY9123VWrmzTjaaJrhON0LFTrZpy7R9GV52sj1c723jjuHKBNBnTKHpz2ATQ6r73PbY%252Fd8RT3Yx0otYef27LtmdVTyQGpsu3XMxtTQ1A894mshtxjAs15DzFpBcZbyVUW1ipqTQ5holZdBLccB6pLGe%252BHpQnfx7QMTRGaT1M7D3QTWsL8TCTCuYSl%252BfORcDjM%252B%252Fn%252Bqcn1Sjjd8uxy9wsmaGGSNhacRwItpIUYyYE15K3qE4bbj%252F6A2VN%252BeRbpopc2gZFcgnbkwQsRIGkphXBcxxxWLHVP1GZh7Yxa0cj%252FoOk5VxiNAZNUo6FeQ%252FSaIDrMGBBRy%252FhXmrU1LwFjbfOdvIQUuQcd2uIsIkhC9DpkJY1awcSAD9iGkMpvMIqvYPQ%252FwHy7XH4A&amp;scene=https://scene.products.cimpress.io/v1/scenes/0c6059fd-5d05-4124-9684-5d3127a52792"></image>
 <text class="svgText" x="51%" y="57%" dominant-baseline="middle" text-anchor="middle" font-size="60" fill="#c82d2d"></text>
 <image class="custom-logo" href="" x="46%" y="45%" width="200" height="200"></image></svg>