<svg id="C1005_T_Shirt_Back_A" class="back-center" xmlns="http://www.w3.org/2000/svg" xmlns:xlink="http://www.w3.org/1999/xlink" viewBox="0 0 2048 2048" width="2048" height="2048">
  <g id="custom-color-swatches">
    <g id="Group_C1005_Collar">
      <g id="Pattern_C1005_Collar_000" link="collar">
        <path id="Option_C1005_Collar_000_1" d="M815.377,98.516c.7-.53,3.136-2.438,10.658-8.694a216.217,216.217,0,0,1,21.517-15.28c.6-.315,13.7-6.987,58.376-13.265,45.894-6.45,121.744-7.277,182.7-7.277,4.27,0,8.535,0,12.82.013,64.861.13,90.564,6.252,107.572,10.3,2.931.7,5.462,1.3,7.92,1.808,14.5,2.985,17.718,5.967,33.207,20.294,2.665,2.465,5.7,5.27,9.218,8.473.631.211,1.243.423,1.851.637l-.479,1.933c-1.919-.285-3.893-.586-6-.909-3.086-.471-6.46-.987-10.369-1.558-6.284-.918-16.949-1.384-31.7-1.384-15.143,0-34.248.521-51.106,1.393-4.294.222-9.609.545-15.763.919-23.689,1.44-59.487,3.616-95.907,3.616-10.363,0-20.261-.18-29.421-.534-19.892-.771-38.616-1.079-55.137-1.351-29.449-.485-54.882-.9-75.954-3.657a129.525,129.525,0,0,0-15.5-.867c-21.114,0-43.035,4.088-57.688,7.162Z" fill="#FFFFFF" fill-rule="evenodd"></path>
      </g>
    </g>
    <g id="Group_C1005_Sleeves">
      <g id="Pattern_C1005_Sleeves_000" link="sleeves">
        <path id="Option_C1005_Sleeves_000_1" d="M1514.619,900.456a84.433,84.433,0,0,1-16.754-1.629c-22.893-4.577-22.221-22.38-21.443-42.994.108-2.85.22-5.8.273-8.781.415-22.922-3.6-52.052-4.085-55.467l-.141-.011c-.484-9.152-4.921-44.823-6.94-54.355-1.633-7.714-2.45-9.869-2.709-10.418-1.86-.839-11.662-5.466-13.264-10.485-1.766-5.532-.219-25.838,2-32.616.693-2.117,1.721-4.6,2.912-7.473a155.12,155.12,0,0,0,9.061-27.43c1.587-7.241,6.329-20.828,11.349-35.214,6.453-18.489,13.766-39.445,13.628-45.55l-.006-.26.121-.23c3.888-7.363,10.46-18.114,17.417-29.5,9.439-15.441,20.137-32.942,25.564-44.463,9.054-19.224,15.8-47.982,21.927-75.79,2.908-13.188,6.823-24.717,10.61-35.866,3.721-10.959,7.236-21.31,9.387-32.114,2.631-13.223,6.191-23.387,9.632-33.216,2.309-6.594,4.488-12.822,6.383-19.85,1.872-6.947,3.416-13.393,4.59-19.16l.285-1.4,1.219.752c2.791,1.721,14.18,11.38,59.55,63.779,50.818,57.265,66.292,150.477,77.592,218.537,1.9,11.437,3.693,22.241,5.479,31.674,11.449,60.455,36.206,195.616,40.739,227.68,4.12,29.133-17.221,34.615-49.524,42.914-3.4.874-6.935,1.781-10.58,2.752-32.374,8.625-87.518,17.551-124.006,23.458-6.447,1.043-12.283,1.988-17.27,2.814-8.5,1.409-16.1,2.952-23.456,4.443C1539.7,897.921,1527.208,900.456,1514.619,900.456Zm-944.558-4.467c-4.038,0-8.317-.2-12.721-.6-42.871-3.878-148.265-32.767-172.52-42.205-3.177-1.237-6.521-2.475-10.062-3.785-23.126-8.56-49.339-18.261-49.258-34.8.074-15.1,11.469-114.066,24.665-228.666,2.885-25.056,5.859-50.888,8.825-76.8,6.526-57,26.361-111.412,58.956-161.716a409.778,409.778,0,0,1,61.5-74.218c1.433-1.38,2.469-2.378,3.042-2.983,7.105-7.49,19.937-14.326,23.7-16.243l.637-.325.513.5c4.281,4.151,11.424,12.126,11.166,18.9-.377,9.92-2.231,12.994-5.6,18.573l-.5.833a48.4,48.4,0,0,0-2.351,9.637,49.92,49.92,0,0,1-1.6,7.234c-1.743,5.254.04,12.6,4.892,20.145,3.892,6.054,6.522,17.133,11.3,37.246,2.063,8.692,4.63,19.508,7.832,32.048,10.454,40.949,11.9,49.493,11.03,65.3-.851,15.487,2.678,25.854,18.878,55.467,8.647,15.8,16.513,28.422,22.257,37.635,5.221,8.376,8.373,13.431,8.844,15.636.323,1.512,1.536,8.232,3.373,18.4,3.512,19.449,8.82,48.84,13.631,73.616,7.25,37.338,9.959,47.837,9.986,47.939l.134.513-.35.4a48.057,48.057,0,0,1-3.577,3.671c2.23,6.581,3.194,15.351,2.948,26.775l-.914.087c-.574,2.656-1.672,8.217-3,17.344-1.385,8.919-1.863,58.621-.684,70.919,1.047,5.929,2.318,42.319.98,46.03C614.38,883.035,602.425,895.989,570.061,895.989Z" fill="#FFFFFF" fill-rule="evenodd"></path>
      </g>
    </g>
    <g id="Group_C1005_Body" link="body">
      <g id="Pattern_C1005_Body_000">
        <path id="Option_C1005_Body_000_1" d="M981.473,2000c-59.7,0-110.127-.885-154.15-2.706-128.656-5.321-203.77-9.933-232.228-19.045a39.981,39.981,0,0,1-12.442-6.078c-9.876-6.212-14.186-20.856-12.141-41.243.724-7.21,1.766-14.805,3.086-24.421,2.835-20.66,6.718-48.956,10.913-98.566,2.37-28.033,4.792-54.207,7.357-81.918,4.118-44.492,8.784-94.919,14.642-168.081,6.839-85.417,5.191-161.494,3.866-222.623-.529-24.4-.985-45.471-.869-64.306q.063-10.219.121-20.844c.356-63.422.76-135.307,3.88-218.191,2.886-76.665,7.056-142.4,13.521-213.136a478.637,478.637,0,0,0-9.377-74.537l-.025-.115,0-.116c.25-11.565-.753-20.306-3.064-26.723l-.249-.694.588-.444a33.984,33.984,0,0,0,3.5-3.472c-.62-2.517-3.493-14.631-9.884-47.538-4.813-24.79-10.122-54.19-13.635-73.645-1.768-9.787-3.045-16.859-3.361-18.339-.4-1.862-3.832-7.371-8.585-15-5.756-9.233-13.64-21.879-22.314-37.734-16.423-30.019-20-40.586-19.121-56.535.853-15.542-.583-24.007-10.971-64.7-3.205-12.556-5.775-23.381-7.84-32.08-4.568-19.244-7.325-30.86-11.032-36.627-5.181-8.059-7.042-16.026-5.108-21.856a48.479,48.479,0,0,0,1.526-6.942,49.626,49.626,0,0,1,2.493-10.111l.03-.076.59-.98c3.3-5.467,4.953-8.21,5.31-17.614.229-6-6.518-13.47-10.56-17.389l-1-.975,1.248-.634c.7-.357,1.1-.549,1.1-.549.035-.016,5.442-2.4,77.353-34.211,69.339-30.674,192.34-96.49,199.478-100.315.511-1.135,2.423-4.589,8.721-10.713,7.288-7.086,20.355-9.263,22.4-9.566l.312-.237.221-.047c14.741-3.092,36.8-7.2,58.1-7.2a131.676,131.676,0,0,1,15.751.882c20.969,2.741,46.35,3.159,75.739,3.643,16.53.272,35.265.58,55.179,1.351,9.133.353,19,.533,29.34.533,36.363,0,72.125-2.174,95.79-3.612,6.158-.375,11.477-.7,15.78-.92,16.892-.874,36.035-1.4,51.21-1.4,14.845,0,25.606.473,31.986,1.405,3.933.574,7.325,1.092,10.426,1.567,2.09.319,4.047.618,5.949.9l.1.015.091.031c24.009,8.447,29.354,19.18,29.927,20.486.677.924,9.526,11.752,73.811,46.582,65.894,35.7,223.733,111.05,229.687,113.89a3.16,3.16,0,0,1,1,.449l.594.366-.138.684c-1.18,5.8-2.734,12.283-4.618,19.282-1.914,7.1-4.107,13.362-6.428,19.992-3.418,9.763-6.953,19.86-9.558,32.944-2.176,10.933-5.712,21.344-9.455,32.367-3.768,11.1-7.666,22.573-10.55,35.653-6.154,27.919-12.928,56.8-22.072,76.212-5.473,11.62-16.2,29.172-25.667,44.657-6.87,11.239-13.363,21.861-17.235,29.163-.045,6.743-7.006,26.689-13.741,45.987-5,14.327-9.723,27.86-11.285,34.983a156.863,156.863,0,0,1-9.167,27.767c-1.174,2.836-2.189,5.286-2.859,7.331-2.274,6.945-3.525,26.6-2,31.385,1.212,3.793,9.394,8.062,12.446,9.387l.072.031.067.042c.338.215,1.13.719,3.441,11.637,2.031,9.588,6.494,45.462,6.98,54.664l.007.129-.027.127c-.118.564-.356,1.735-.693,3.472.323,11.54-2.363,45.3-6.077,91.976-3.612,45.391-8.106,101.881-12.17,165.907-8.224,129.562-6.692,288.908,4,415.858,7.772,92.3,26.462,261.762,36.5,352.8,2.482,22.514,4.444,40.3,5.495,50.18,4.467,41.989.394,50.148-7.21,60.79-11.418,25.1-43.521,42.231-98.137,52.367-47.24,8.768-103.59,10.747-152.48,11.526-16.828.269-34.885.6-53.873.939C1126.148,1998.694,1054,2000,981.473,2000Z" fill="#FFFFFF" fill-rule="evenodd"></path>
      </g>
    </g>
  </g>
  <g id="custom_badge-positions">
    <g id="Back_Center" link="back-center">
      <rect x="643.889" y="268.147" width="789.06" height="1183.591" fill="none"></rect>
    </g>
  </g>
<image class="background-product" width="2048" height="2048" xlink:href="https://media.reformclothing.com/design_lab/ysd-products/C1005_T-Shirt/C1005_T_Shirt_Back_A_2048.png"></image><image width="2048" height="2048" class="decoration__preview-image" xlink:href="https://rendering.documents.cimpress.io/v1/dcl/preview?format=png&amp;width=2048&amp;instructions_uri=https%3A%2F%2Fuds.documents.cimpress.io%2Fv3%2Finstructions%3Apreview%3FdocumentUri%3DlZAxb8IwEIX%252Fi2dMHLCTOCNISB1YqjJUVYfkfCYWJI5shwoh%252FnsvbVm6VJ18fu%252F87jvf2AVDdH5gNVstBVuweJqo3j7t%252BUHsdvvDqyLR%252BiE94%252BijSz5cD%252BFMLV1KY6yzbPbi0niYepwrcP0YMMal89klz8LjmcOYlYVWlagqDqVRXBqreSV1wyVUWmpt6WyzcWrPLnZoaPAjltU3FqdgG8DI6rcbc4YQdGnArEvBWwE5lwgV14ia4nKBCkRrsKCQoelx3ikXQu0C4W4pEQM5H86kjqy1EH1P9w7dsUuzoL4Fg%252BBDk%252BiDXhC6wZ%252F98Up2nBH7L53dFz80ApS0YAxHoSSXeg28razlZalbtMWqEFL%252Fotk0cPobRv4D5v1%252B%252FwQ%253D&amp;scene=https://scene.products.cimpress.io/v1/scenes/35a365ea-df0f-4db5-9e8b-966eaf94b38b"></image>
<text class="svgText" x="51%" y="57%" dominant-baseline="middle" text-anchor="middle" font-size="60" fill="#c82d2d"></text>
 <image class="custom-logo" href="" x="60%" y="45%" width="100" height="100"></image></svg>