<svg xmlns="http://www.w3.org/2000/svg" xmlns:xlink="http://www.w3.org/1999/xlink" id="R1071_Hoodie_Side_A" class="sleeve-right" viewBox="0 0 2048 2048" width="2048" height="2048"><g id="custom-color-swatches"><g id="Group_R1071_Rib" link="rib"><g id="Pattern_R1071_Rib_001"><path id="Option_R1071_Rib_001_3" d="M1064.21,1918.25c-1.58,.02-3.16-.14-4.7-.48l.19-.82-.84,.32c-4.24-7.85-9.64-16.49-13.43-22.35l-1.69-2.62,2.9,1.14c1.68,.59,3.45,.87,5.23,.81,7.22,0,17-3,24.92-5.49,2.83-.88,5.27-1.64,7.25-2.15,7.54-1.94,13.09-3.9,19.51-6.18,2.28-.81,4.68-1.66,7.34-2.58,10.13-3.47,36.91-18.51,45.11-24.44,5.45-4,7.28-9,8.23-13.11l-.08-.2c-.77-1.88-1.41-3.81-1.92-5.78-.06-.27-.12-.57-.18-.88v-.2c0-.31-.1-.64-.14-1v-.13c0-.33-.07-.67-.1-1v-.18c0-.39-.06-.79-.08-1.22v-.16c-.05-.89-.08-1.83-.1-2.83v-3.33l.12-5.36,.64-.23c4.65-1.67,8.59-3.21,11.73-4.59,9.93-4.36,22.38-12.65,27.9-16.85,4.11-3.14,10.8-6.42,18.34-9l1.67-.57-.37,1.73c-.4,1.89-.71,3.48-.93,4.72-.63,3.61-1.5,8.32-2.45,13.47l-.63,3.42-.53,.2c-3.25,1.1-6.3,2.74-9,4.86-4,3.47-16.56,13.94-21.43,16.38l-.58,.29c-3.79,1.9-12.43,6.23-19.6,8.53,1.77,4.39,4.39,10.08,7.8,16.9l-.83,.58,.89-.45,.25,.5c.75,1.44,1.57,2.84,2.46,4.19l.33,.52-.32,.53c-3.5,6.21-8.3,11.59-14.08,15.77-9.8,7.13-36.25,21-46.12,24.61-10.74,4-36.84,12.56-44.29,13.87-2.77,.53-5.57,.81-8.39,.84h0Zm-211.91-69.73c-9.67,0-17.47-.11-23.85-.33-19.86-.69-44.79-2.46-61.43-10.16l-.39-.18-.14-.4c-4.16-12.21-7.79-23.58-7.82-23.69l-.6-1.88,3.09,1c6.64,2.21,13.51,4.49,17,5.83,8.58,3.25,41.79,6.1,52.94,6.38h2.64c14.83,0,52.41-1.93,68.4-3,4.83-.31,10.85-.46,18.4-.46s15.51,.15,22.55,.28c5.86,.11,11.38,.22,15.7,.22h4c10.89-.25,11.21-.28,15.11-.67l2.09-.2c1.39-.14,3.13-.2,5.3-.2,4,0,8.88,.21,15.36,.5h.65l.24,.6c.92,2.34,1.7,4.29,2.12,5.32,1.41,3.5,2.43,8.76,3.51,14.33l.38,2c.05,.26,.12,.51,.19,.75l.42,1.52h-1.35c-4.53-.13-8.51-.2-12.17-.2-5.95,0-11.17,.17-15.95,.51-17,1.21-43.14,1.47-62.12,1.47-6.51,0-15.15,.12-25.15,.26-12.29,.2-26.23,.4-39.12,.4h0Z" fill="none"></path><path id="Option_R1071_Rib_001_2" d="M1069.37,1938.68c-.71,0-1.39,0-2-.07h-.77l-.14-.75c-.54-2.75-1.06-5.09-1.59-7.16-.77-3-2.78-7.46-6-13.38l-1-2,2.16,.5c1.4,.3,2.82,.45,4.25,.43,2.67-.04,5.32-.32,7.94-.83,7.23-1.27,33.54-9.93,43.95-13.78,9.76-3.6,35.94-17.29,45.64-24.34,5.55-4.03,10.16-9.21,13.53-15.18l.83-1.4,.88,1.37c.61,1,1.24,1.92,1.83,2.82l1.34,2,.46,.73,.39,.65,.28,.48c.11,.19,.2,.35,.27,.49,.81,1.5,1.77,2.92,2.87,4.23l.16,.19,.05,.25c.57,2.64,2.58,5.72,4.47,8.4l.44,.63-.49,.59c-5.12,6.08-13.94,13.43-23,19.17-10.65,6.73-38.92,20.69-48.33,23.38-3.23,.92-8.22,2.57-13.51,4.31-9.84,3.25-21,6.92-25.07,7.36-.71,.07-1.44,.16-2.19,.26-2.53,.37-5.09,.59-7.65,.65Zm-17.5-42.43c-2.04,.04-4.08-.3-6-1l-.3-.11-.17-.27c-2.34-3.63-4-6-4-6.05s-4.3-5.64-8.53-10.82l-1.67-2,2.6,.42c.73,.11,1.46,.16,2.2,.15,3.18-.1,6.33-.55,9.41-1.33,5.13-1.17,10.6-2.88,15.43-4.39,3.78-1.18,7-2.19,9.14-2.62,3.19-.61,6.41-1.01,9.65-1.22,4.43-.27,8.82-.89,13.15-1.85,5.33-1.24,10.72-5.16,16.43-9.3,3.88-3.01,8-5.69,12.33-8,3.79-1.85,8.27-3.59,12.59-5.28,6.93-2.69,14.09-5.48,18.19-8.66,3.76-3.09,6.91-6.85,9.31-11.09l1.88-3.1v3.63c-.15,3.5,.07,7,.64,10.46,.4,1.58,.91,3.13,1.5,4.64,7-2.24,15.67-6.56,19.44-8.45l.57-.29c4.69-2.34,17.06-12.67,21-16.11,2.89-2.27,6.14-4.03,9.61-5.21l1.66-.64-.32,1.75c-1.11,6-2.83,15.73-3.56,19.87-.35,2-.44,2.49-.88,2.6-4.23,4.17-9.89,8.81-14,12.22-1.43,1.17-2.64,2.17-3.5,2.9-3.86,3.32-14.41,9.9-20.9,13.36l-.88,.47-1.15-2.15c-1.23-2.46-4.61-9.21-7.27-15.48-1.39,4.71-4.31,8.82-8.31,11.68-8.33,6-35,21.09-45.63,24.73-2.65,.91-5,1.76-7.32,2.56-6.47,2.3-12,4.28-19.68,6.24-1.93,.49-4.36,1.25-7.16,2.12-8,2.53-17.97,5.62-25.5,5.62h0Zm-176.33-26.25h-4.42c-2.65-.06-5.68-.08-9.27-.08h-22.93c-14.16,0-29.85-.32-38.93-2.69-7.51-2-18.18-5.37-26.32-10.46l-.29-.18-.12-.31c-2-5.26-4.22-11.45-6.77-18.93l-.75-2.21,2.12,1c16.31,7.54,41,9.29,60.66,10,6.36,.22,14.14,.33,23.79,.33,12.86,0,26.8-.2,39.09-.36,10-.14,18.66-.26,25.18-.26,18.94,0,45.07-.26,62-1.46,4.83-.35,10.09-.52,16.09-.52,3.68,0,7.68,.07,12.23,.2h.74l.19,.71c.73,2.44,2.08,4.66,3.91,6.44l.65,.72c.5,.66,.55,1.55,.12,2.26,.16,.82,.44,1.61,.82,2.35,.33,.74,1,1.43,3.5,1.46h.45l2.14,2.39,1,1c1.85,2,3.51,3.76,4.95,5.2h.06l1.49,2-2.22-.18c-2.43-.2-5-.39-7.64-.57-7.62-.53-18.54-1.16-27.31-1.16-5.21,0-20.79,.54-38.83,1.17-26.43,1.03-59.25,2.14-75.38,2.14h0Zm-41.76-42.88h-2.69c-11.25-.29-44.83-3.18-53.59-6.51-3.5-1.32-10.34-3.6-17-5.8l-1.72-.57-.15-.48c-1.55-4.79-3-9.48-4.46-13.89l-2.43-7.6,1.93,.72c1.74,.65,3.34,1.16,4.63,1.58,.73,.23,1.35,.43,1.84,.6,3,1,6.34,1.23,11.45,1.51l3.43,.2c5.9,.41,11.73,1.52,17.36,3.33,4.43,1.37,8.94,2.46,13.5,3.27,2.42,.47,10.09,.7,22.79,.7,8.55,0,17.86-.1,25.33-.18,4.9-.06,9-.1,11.4-.1,6.24,0,19.68-1.19,31.54-2.24,8.49-.75,15.82-1.4,19.13-1.49,6.32-.18,24.33-.24,34.89-.24h9.42c2.73,0,4.89-.09,7-.17,1.75-.07,3.39-.13,5.13-.13h.59c4.13,0,7.69,.07,10.92,1,1.68,.36,3.4,.55,5.12,.58,1.07,.07,2.3,.14,3.72,.25h.62l.23,.58c.47,1.19,.82,2.11,1,2.61,.75,2.11,4.07,10.58,6.83,17.54l.57,1.44-1.55-.07c-6.24-.28-11.33-.5-15.27-.5-2.11,0-3.78,.06-5.11,.19l-2.09,.2c-4,.39-4.29,.42-15.25,.68h-4c-4.34,0-9.87-.11-15.73-.22-7-.13-15-.28-22.52-.28s-13.49,.15-18.28,.46c-16.01,1.13-53.65,3.06-68.53,3.06v-.03h0Zm327.86-8.45c.13-4.11,.39-8.9,.76-14.23l.13-1.86,.09-.18c.72-1.37,1.28-2.82,1.67-4.32l.17-.67,.69-.08c10.74-1.25,12.68-3.34,15.15-6,.5-.55,1-1.1,1.64-1.69,2.93-2.63,6.12-4.95,9.53-6.93,2.47-1.55,5.26-3.32,8.58-5.68,7-4.95,16.6-8,24.33-10.41l2.55-.81-.43,1.74c-2.22,8.92-3.88,16-4.93,20.9l-.11,.55-.54,.19c-7.35,2.51-13.83,5.69-17.78,8.7-5.59,4.25-18.21,12.66-28.3,17.09-3.18,1.4-7.17,3-11.86,4.64l-1.38,.5,.04-1.45h0Z" fill="none"></path><path id="Option_R1071_Rib_001_1" d="M1079.92,1960.9c-2.61,.13-5.21-.43-7.54-1.62-2.23-1.28-3.22-6.3-4.79-15.08-.36-2-.75-4.21-1.17-6.39l-.25-1.28,1.3,.09c.6,0,1.24,.06,1.9,.06,2.45-.05,4.89-.24,7.32-.59l2.22-.26c3.88-.42,14.92-4.06,24.66-7.27,5.31-1.75,10.32-3.4,13.59-4.33,9.29-2.65,37.26-16.48,47.81-23.15,8.91-5.64,17.55-12.83,22.54-18.77l.84-1,.75,1.06c.67,.94,1.36,1.89,2,2.82,3.1,4.23,6,8.22,5.95,11.26-.32,12.66-34.34,36.27-51.25,43.26-31.56,13.09-53.61,21.19-65.88,21.19h0Zm-187.16-68.82c-21.88,0-52.53-.54-58.62-.87-1.67-.09-40.88-2.33-51.94-15.88-2.15-2.63-5.08-8.83-8.94-18.95l-1.06-2.79,2.53,1.58c6.27,3.93,15.18,7.46,25.76,10.22,8.87,2.32,24.4,2.63,38.43,2.63h22.93c3.58,0,6.65,0,9.31,.08h4.38c16.1,0,48.9-1.14,75.25-2,18.05-.63,33.65-1.17,38.89-1.17,8.83,0,19.8,.63,27.45,1.16l5,.37c-2.38-2.49-4.72-5.08-6.06-6.59l-1.51-1.69h2.44c2.03-.07,4.05-.25,6.06-.54l2.88-.33c4.04-.72,8.03-1.72,11.93-3,3.72-1.16,7.5-2.12,11.32-2.88,1.76-.28,4.3-.4,7.53-.56,7.88-.39,19.79-1,29.08-4.65,3.69-1.46,13.87-8.16,21.3-13.05,3.85-2.53,6.89-4.53,8-5.12,7.35-3.93,13-6.2,16.75-6.75h.24c5.24-.76,11.76-1.71,16.17-3.76,4.19-2,9.29-6.8,12.67-12.07,.62-.97,1.19-1.97,1.69-3l1.89,.52c-.6,8.27-.92,15.15-1,20.45v.28l-.14,.23c-2.52,4.44-5.84,8.39-9.79,11.63-4.34,3.36-11.64,6.2-18.7,9-4.28,1.67-8.71,3.39-12.43,5.21-4.21,2.25-8.22,4.86-12,7.78-5.62,4.08-11.44,8.31-17.15,9.64-4.43,.99-8.92,1.62-13.45,1.9-3.16,.2-6.3,.59-9.41,1.17-2,.41-5.21,1.42-8.94,2.58-4.87,1.52-10.38,3.24-15.58,4.43-3.23,.82-6.53,1.28-9.86,1.38h-.12c3.72,4.63,7.11,9.08,7.14,9.13l1.22,1.59h-2c-.4,0-39.92,.15-49.76,.15s-62.13,1.59-79.12,2.34c-4.28,.12-11.23,.2-20.66,.2h0Zm290.13-17.24c-1.2-1.43-2.25-2.98-3.13-4.63-.45-.9-1.51-2.5-2.62-4.2-1.24-1.88-2.64-4-3.7-5.9l-.5-.89,.9-.49c7.12-3.79,17.1-10.16,20.54-13.1,.87-.75,2.09-1.75,3.53-2.94,4.22-3.46,10-8.19,14.18-12.37l2.21-2.2-.51,3.07c-.65,3.83-1.13,6.9-1.49,9.41-1.19,8.44-12,18.45-19.9,25.76-3.76,3.49-7.32,6.78-7.8,8.16l-.58,1.65-1.13-1.33h0Zm-354.18-68.66c-13,0-20.59-.24-23.17-.74-4.64-.82-9.22-1.93-13.72-3.32-5.48-1.76-11.14-2.85-16.88-3.25l-3.42-.19c-5.28-.29-8.77-.48-12-1.62-.48-.17-1.09-.36-1.79-.59-1.31-.42-2.94-.94-4.72-1.61l-.45-.17-.15-.46c-2.7-8.44-7.22-22.55-8.2-23.76l1-1.64c.13,.05,12.31,4.46,19.33,5.89,3.27,.56,6.59,.8,9.91,.72,2,0,4,0,5.7-.09,1.36,0,2.58-.06,3.56-.06,.78-.02,1.55,.02,2.32,.13h.49l.41,.43,.28,.42-.18,.51s-.19,.88,1.08,4.48c1.38,3.9,11.62,3.9,15,3.9,1.67,0,3.29,0,4.79-.06,1.29,0,2.49-.06,3.54-.06h1c2.88,.06,6,.28,10,.56,5.51,.39,12.36,.87,21.59,1.13h2.58c13.92,0,30.46-2.84,38.41-4.21l2-.35c2.88-.48,9.21-.71,19.35-.71,8.71,0,18.48,.17,24.94,.29,3.43,.07,6.14,.12,7.39,.12h12.8c4.05,0,7.08,0,9.26-.12,5-.18,18.48-.31,22.49-.35,1.25-.03,2.39,.73,2.85,1.89,1.26,3.08,5.53,13.53,7.57,18.69l.59,1.5-1.6-.13c-1.4-.11-2.62-.19-3.69-.25-1.86-.03-3.72-.25-5.54-.65-3-.85-6.24-.88-10.38-.92h-.58c-1.7,0-3.33,.06-5,.13-2,.08-4.28,.17-7.05,.17h-9.42c-10.55,0-28.53,.06-34.83,.24-3.25,.09-10.56,.73-19,1.48-11.9,1-25.39,2.25-31.72,2.25-2.44,0-6.49,0-11.37,.1-7.5,.18-16.81,.28-25.37,.28h0Zm335.58-8.07c.23-.69,.3-1.42,.22-2.14-.1-.23-.38-.39-.82-.63-.62-.26-1.15-.72-1.49-1.3-.44-.88-.43-2.58-.36-6.32v-2.44c.05-2.91-.4-5.8-1.34-8.55-.39-1.2-.62-1.93-.24-2.58s1-.68,2.34-.75h5.47l4,.07,5.27,.12h4.19c.92,.03,1.84,0,2.76-.1,2.13-.39,6.3-2.86,7-4.94,.23-.77,.19-1.59-.12-2.33-.38-.71-.28-1.59,.26-2.19,.53-.83,.93-1.73,1.16-2.69l.24-.69c.24-1.75,.27-3.52,.07-5.27-.18-3.32-.26-5.41,.4-6.43s2.44-1.22,5.36-1.48c.91-.08,1.91-.17,3-.29s2.13-.29,3.28-.47c2-.31,4.17-.63,6.36-.78,1.9-.23,5.79-.35,11.51-.35,4.24,0,8,.07,8,.07h1.27l-.32,1.23c0,.09-2.6,9.88-5.28,20.67l-.13,.54-1.39,.44c-8,2.51-17.06,5.36-23.77,10.13-3.37,2.39-6.18,4.17-8.67,5.74-3.29,1.91-6.38,4.15-9.22,6.68-.58,.55-1.08,1.09-1.56,1.61-2.75,3-4.91,5.27-16.38,6.6l-1.43,.17,.36-1.35h0Z" fill="none"></path></g><g id="Pattern_R1071_Rib_000"><path id="Option_R1071_Rib_000_1" d="M1079.3,1960.89c-1.28-.02-2.56-.16-3.81-.44-1.09-.23-2.14-.63-3.11-1.17-1-.56-1.72-1.78-2.42-4-.15-.45-.29-.94-.43-1.47-.56-2.12-1.07-4.8-1.53-7.39l-.41-2.27c-.38-2.13-.78-4.37-1.22-6.64-.23-1.15-.47-2.31-.73-3.46s-.52-2.29-.81-3.42c-.83-2.78-1.91-5.47-3.23-8.05-.74-1.52-1.59-3.19-2.54-4.95-.3-.57-.62-1.14-.93-1.72-.64-1.16-1.3-2.33-2-3.5-.33-.59-.67-1.17-1-1.76-.67-1.17-1.36-2.33-2.07-3.48-5-8.41-10.07-16-11.32-17.88-4.79,0-40,.15-49.23,.15s-62.13,1.59-79.12,2.34c-4.27,.19-11.22,.28-20.66,.28-21.87,0-52.52-.54-58.61-.87-1.67-.09-40.88-2.33-51.94-15.88-6.35-7.76-18.83-46.81-27.94-75.32-4.65-14.55-9-28.3-10-29.54l1-1.63c.13,0,12.31,4.45,19.33,5.88,3.27,.56,6.59,.8,9.91,.72,2,0,4,0,5.7-.09,1.36,0,2.58-.06,3.56-.06,.78-.02,1.55,.02,2.32,.13h.49l.41,.43,.28,.42-.18,.51s-.19,.88,1.08,4.48c1.38,3.9,11.62,3.9,15,3.9,1.67,0,3.29,0,4.79-.06,1.29,0,2.49-.06,3.54-.06h1c2.88,.06,6,.28,10,.56,5.51,.39,12.36,.87,21.59,1.13h2.58c13.92,0,30.46-2.84,38.41-4.21l2-.35c2.88-.48,9.21-.71,19.35-.71,8.71,0,18.48,.17,24.94,.29,3.43,.07,6.14,.12,7.39,.12h12.8c4.1,0,7.05,0,9.26-.12,5-.18,18.48-.31,22.49-.35,.88-.01,1.72,.35,2.31,1h0c.23,.26,.41,.55,.54,.86,.59,1.43,1.6,3.9,2.72,6.67,3.37,8.29,5.34,13.21,5.85,14.63,1.1,3.08,7.48,19.22,8.95,22.86s2.43,8.76,3.51,14.33l.38,2c.6,2.82,2.04,5.38,4.13,7.37l.68,.76c.53,.64,.58,1.55,.12,2.25,.17,.82,.44,1.61,.82,2.35,.33,.74,1,1.43,3.5,1.46h.18c2.03-.07,4.05-.25,6.06-.54l2.88-.33c4.04-.72,8.03-1.72,11.93-3,3.72-1.16,7.5-2.12,11.32-2.88,1.76-.28,4.3-.4,7.53-.56,7.88-.39,19.79-1,29.08-4.65,3.69-1.46,13.87-8.16,21.3-13.05,3.85-2.53,6.89-4.53,8-5.12,7.35-3.93,13-6.2,16.75-6.75h.24c5.24-.76,11.76-1.71,16.17-3.76,4.19-2,9.29-6.8,12.67-12.07,.32-.48,.6-1,.86-1.42l.1-.16c.27-.47,.51-.93,.73-1.37,1.89-3.75,2-6,1.89-6.46-.1-.23-.38-.39-.82-.63-.62-.26-1.15-.72-1.49-1.3-.68-1.35-.55-5.54-.32-8.82,.03-.55,.03-1.11,0-1.66-.11-1.38-.3-2.75-.59-4.11-.61-3.09-1.8-6.04-3.5-8.7l1.69-1.08c.82,1.2,1.53,2.48,2.11,3.82,1.29-.12,2.59-.17,3.88-.14,2.41,0,5.51,.07,8.52,.14,2.86,.06,5.57,.12,7.58,.12,.92,.03,1.84,0,2.75-.1,2.13-.39,6.3-2.86,7-4.94,.23-.77,.19-1.59-.12-2.33-.38-.71-.28-1.59,.26-2.19,.53-.83,.93-1.73,1.16-2.69l.24-.69c.24-1.75,.27-3.52,.07-5.27-.18-3.32-.26-5.41,.4-6.43s2.44-1.22,5.36-1.48c.91-.08,1.91-.17,3-.29s2.13-.29,3.28-.47c2-.31,4.17-.63,6.36-.78,1.9-.23,5.79-.35,11.51-.35,4.24,0,8,.07,8,.07h1.27l-.32,1.23c-.09,.34-9.12,34.75-11.14,46.29-.64,3.65-1.52,8.44-2.49,13.66-2.07,11.22-4.64,25.18-5.85,33.72s-12,18.45-19.9,25.76c-3.56,3.3-6.94,6.43-7.7,7.92,.15,.55,.33,1.09,.54,1.61,.41,.96,.89,1.9,1.43,2.8l.44,.73c.67,1.07,1.46,2.23,2.55,3.74,.49,.69,1,1.37,1.49,2l1.25,1.71c.83,1.15,1.47,2.08,2,2.91,.59,.89,1.13,1.81,1.61,2.76,.66,1.18,1.03,2.51,1.07,3.87-.06,2.64-1.59,5.88-4.55,9.62-3.77,4.56-8.02,8.71-12.67,12.38-1.25,1-2.57,2.06-3.92,3.1l-2,1.52c-2,1.5-4.13,3-6.26,4.42s-4.22,2.78-6.33,4.07c-1.39,.86-2.79,1.69-4.14,2.46-2.06,1.18-4.06,2.25-5.94,3.2s-3.75,1.81-5.41,2.49c-6.74,2.79-12.57,5.15-17.81,7.22-3.45,1.36-6.56,2.56-9.5,3.66-2,.76-4,1.47-5.84,2.15s-3.7,1.31-5.46,1.91c-5.92,2.09-11.96,3.81-18.09,5.15-1.26,.26-2.48,.47-3.62,.64l-1.68,.21c-1.1,.13-2.15,.2-3.11,.23h-1.43v.25h0Z" fill="#FFFFFF"></path></g></g><g id="Group_R1071_Pockets_Body" link="pocket"><g id="Pattern_R1071_Pockets_Body_000"><path id="Option_R1071_Pockets_Body_000_1" d="M1160.48,1775.75l-.36-.56v-.16c-.56-1.52-1.32-2.96-2.25-4.28-1.81-2.85-8-12.44-11.62-16.56-1.48-1.69-5.29-5.06-9.32-8.63-9.33-8.27-15.49-13.87-16.07-16.39-.49-2.73-.74-5.5-.76-8.27-.03-1.95-.18-3.9-.43-5.84-.25-1.5-5-17.38-11.42-37.76l-.05-.14v-.16c.1-14.38,.36-35.29,.64-36.77,.37-2,3.93-5,8.92-9.11,1.17-.95,2.27-1.85,3.11-2.58,3.25-2.85,24.62-24.33,27-27.24s29.38-40.07,32.24-45.5,6.59-15,11.35-29c4.69-13.87,9.51-43.8,9.94-51.22,.3-5.22,.59-20.82,.79-31.14,.09-4.85,.16-8.35,.19-9.13v-4.08c-.08-2.29-.18-5.44-.18-10.36-.03-4.32,.39-8.63,1.27-12.86,.17-.81,.3-1.62,.38-2.44,.13-2.6,3.44-6.48,5.18-7.6,.78-.45,1.66-.66,2.56-.62h2.32c.4,.01,.81-.03,1.2-.14,.92-.27,1.9-1.45,2.77-2.49,.48-.62,1.01-1.19,1.59-1.71,.82-.65,1.85-.98,2.89-.93h1.83l2.86-.33,5.15-.59,.91-.1,.18,.89,.12,.63,.1,.62,.08,.59v.56c-.05,.96-.2,1.91-.44,2.84l-.8,280.58-.29,.08,.28,.38s-.17,61.17-.17,61.47c.02,.34,.1,.68,.22,1,.38,1.02,.54,2.11,.48,3.2-.12,2.57-1.17,3.39-1.37,3.52l-.26,.18h-.32s-3.74-.07-8-.07c-5.56,0-9.48,.12-11.33,.34-2.15,.15-4.23,.46-6.24,.77-1.17,.18-2.29,.35-3.34,.47s-2.11,.22-3,.3c-1.32,.03-2.63,.23-3.9,.62-.3,.51-.14,3.44,0,5.19,.13,2.47,.26,4.8-.17,6l-.24,.69c-.3,1.18-.81,2.3-1.49,3.3,0,.1,.06,.23,.09,.33,.44,1.15,.47,2.41,.1,3.58-1,2.9-5.81,5.75-8.56,6.25-1.03,.13-2.06,.17-3.1,.13-2,0-4.75-.06-7.63-.12s-6.08-.14-8.47-.14c-1.24-.03-2.48,.01-3.71,.13-.19,.17-.44,.27-.7,.27l-.75,.11h0Z" fill="rgb(23, 23, 23)"></path></g></g><g id="Group_R1071_Sleeves" link="sleeves"><g id="Pattern_R1071_Sleeves_000"><path id="Option_R1071_Sleeves_000_1" d="M1017,1860.08c-2,0-4.45-.3-5.49-2.64-1.2-2.69-1.17-3.61-.71-4.2-.17-.2-.36-.4-.56-.62-2.34-2.26-3.94-5.17-4.62-8.35l-.39-2c-1.06-5.47-2.06-10.64-3.4-14-1.47-3.65-7.87-19.85-9-22.94-.48-1.37-2.5-6.4-5.81-14.55-1.13-2.77-2.13-5.24-2.72-6.66-.04-.1-.1-.2-.18-.28-.67-.69-1.21-1.48-1.62-2.35-1.43-3.39-3.18-7.1-4.88-10.69-1.49-3.16-2.9-6.14-4-8.73-.75-1.75-2.19-5.08-4-9.32-6.61-15.28-18.91-43.73-21.46-50.43-1-2.51-2.41-6.21-4.09-10.48-4-10.16-9-22.79-10.85-28.79l-1.68-5.37c-3.46-11.06-9.25-29.56-11.22-37.42-2.34-9.37-15.4-41.88-21.58-54.53-6.87-14-46.4-128.15-51.59-148.88-1.5-6-3.78-14.66-6.19-23.79-6.11-23.17-13.72-52-15.19-62.51-2.09-14.9-2.65-67-2.65-73.46,0-2.79-.54-17.39-1.17-34.28-.87-23.48-2-52.69-2-62.59-.13-16,1-56.22,1.41-69.44l.06-2.15c-.02-5.7-.53-11.39-1.53-17-.75-4.52-1.27-9.08-1.54-13.65l-.15-3.32c-.5-11.73-1.44-33.56-1.17-41.68,.14-4.48,1.48-11,2.88-17.86s2.83-13.76,3-18.43c.03-5.92-.28-11.83-.92-17.71-.34-3.79-.6-6.78-.54-8.49,.14-2.67,.49-5.32,1.06-7.93,.23-1.21,.48-2.48,.71-3.9,.47-2.93,.63-10,.75-15.23,.06-2.71,.11-4.85,.19-5.7,0-1.35-4.29-11.65-7.72-19.93s-6.94-16.78-8.26-21c-2.35-7.38-2.37-12-2.4-19.53,0-1.8,0-3.77-.06-6,0-7.98,.44-15.94,1.33-23.87,.21-2.09,.37-3.73,.42-4.74,.24-4.29,3.06-11.13,3.84-12.69,.62-1.24,.92-8,1.08-11.64,.05-1,.09-1.93,.13-2.67,.18-3.17,3.67-14.64,10.37-34.08,2.09-6,5.54-15,8.88-23.6,3.6-9.28,7-18.05,7.56-20.43,.56-2.97,.84-5.98,.84-9,.03-2.17,.19-4.34,.46-6.49,.66-4.14,4.36-20.2,5.51-24.57,.26-1,6.51-24.76,7.56-30.23,1.42-8.27,2.33-16.62,2.72-25,.21-7.39,3.59-18.68,4.7-22.4l.17-.58c.23-.74,.55-1.79,.92-3,1-3.22,2.52-8.09,2.67-9.47,.18-1.58,1.86-9.07,3.55-11.48l.24-.35,.33,.02c.88-.18,1.77-.28,2.66-.31,.73-.01,1.45,.13,2.12,.43,1.62,.74,5.9,1.21,10.43,1.7,1.78,.19,3.64,.4,5.53,.63,2.72,.34,5.43,.58,8.29,.83,4.41,.39,9,.78,13.7,1.59,4.03,.78,8,1.89,11.85,3.31,3.11,1.12,6.28,2.07,9.5,2.85,4.27,1,14.9,2.95,25.18,4.87,8,1.49,15.67,2.91,19.36,3.69,6.56,1.38,16.12,4.93,23.11,7.52,2,.74,3.83,1.42,5.34,2,2.35,.84,5,1.57,7.86,2.34,5.17,1.41,11,3,16,5.62,1.24,.68,2.35,1.57,3.29,2.63l.16,.17,.45,1.44c2.49,7.9,5.31,16.85,7.85,20.35,5,6.9,18.59,24.34,27.61,34.92,9.53,11.17,22.65,32.95,26.45,39.36,3,5.1,7.78,18.37,11.61,29,1.64,4.58,3.07,8.54,4.11,11.21,3.47,8.81,6.44,21.68,7.52,27.25,.83,4.29,1.73,6.71,4.14,13.2,.49,1.32,1,2.8,1.67,4.5,3.86,10.5,10.6,45.39,9.57,68.58-.16,3.57-1.55,6.74-3.17,10.42l-.71,1.64c-4.73,10.94-12.83,22.85-16.72,28.58l-1.08,1.58c-3.75,5.57-22,28.23-29.84,37.91-1.61,2-2.7,3.35-3,3.71-1.14,1.44-5.91,9-6.82,16.84-.63,5.42-5.48,15-8.69,21.37-1.35,2.67-2.51,5-2.76,5.8-.43,1.44-.67,16.75-.88,30.26-.21,13.27-.43,27-.84,34.48-.56,10.34-4.26,29.06-7.24,44.09-1.6,8.1-3,15.09-3.3,18-1,9.06-.46,38.26-.28,47,.26,13-2.8,56.06-4.27,76.76l-.42,5.87c-.54,7.24-1.72,14.42-3.53,21.45-1,4-1.71,7.17-1.59,9.75,.06,1.23,.12,2.34,.18,3.39,.37,4.47,.37,8.95,0,13.42-.46,4.04-1.19,8.05-2.19,12-1.17,4.62-2,9.32-2.49,14.06-.38,5.57-.51,11.93-.64,18.08-.07,3.22-.13,6.4-.23,9.4-.16,4.69-2.15,9-3.91,12.9-1.59,3.48-3.09,6.77-2.83,9.51,.22,2.31,2.34,5.56,4.79,9.33,3.69,5.67,8.29,12.73,9.83,21.32,2.19,11.1,1.46,22.58-2.12,33.31-.69,2.29-1.23,4.1-1.09,5.07,.21,1.47,2.52,4,5,6.76,3.5,3.89,7.85,8.73,9.07,13.62s-.64,9.41-2.29,13.37c-1.2,2.91-2.25,5.43-1.8,7.44,.61,2.78,4,7.11,7.2,11.3,2.57,3.33,5,6.48,6.19,9,2.69,5.68,3.57,35.42,3.61,36.69,.43,3.92,1.18,4.58,2.21,5.5,1.7,1.51,3.8,3.38,5.39,16.06,.52,4.15,4.39,16.68,6,22l.65,2.1c.83,2.15,1.85,4.22,3.06,6.18,1.07,1.91,2.29,4.07,3.32,6.27,2.46,5.22,5.65,21.41,6,24.32s3.76,11.48,5.47,15.2c1.64,3.56,23.47,73.31,24.08,76.93,.26,2.02,.41,4.05,.45,6.09,.01,2.65,.25,5.29,.71,7.9,.48,2.08,9.49,10.06,15.45,15.34,4.26,3.77,7.93,7,9.49,8.81,3.71,4.23,10,13.93,11.81,16.8,1.83,2.87,3.1,6.05,3.77,9.39,.31,1.45,.52,2.91,.62,4.39,.04,.64,.04,1.27,0,1.91-.33,4.87-.11,7.32,.12,7.79,.18,.18,.4,.33,.64,.43,.76,.31,1.38,.9,1.73,1.65,.66,1.66-.41,6-3.74,11.23-3.63,5.65-8.94,10.68-13.52,12.81s-11.35,3.14-16.72,3.92h-.24c-3.54,.51-9,2.71-16.1,6.53-1,.55-4.19,2.63-7.85,5-7.5,4.93-17.78,11.69-21.67,13.23-9.59,3.79-21.7,4.39-29.71,4.78-3,.15-5.67,.28-7.32,.55-3.74,.73-7.44,1.68-11.08,2.82-4.01,1.29-8.11,2.29-12.26,3l-2.87,.33c-2.12,.34-4.25,.56-6.39,.66h0Z" fill="rgb(23, 23, 23)"></path></g></g><g id="Group_R1071_Body" link="body"><g id="Pattern_R1071_Body_000"><path id="Option_R1071_Body_000_1" d="M846.64,1788.81h-2.64c-9.27-.26-16.15-.74-21.67-1.13-4-.28-7.06-.5-9.89-.56h-1c-1,0-2.22,0-3.5,.06-1.51,0-3.15,.06-4.83,.06-7.42,0-15.23-.62-16.87-5.24-.59-1.49-.99-3.05-1.19-4.64h-1.32c-1,0-2.17,0-3.51,.06-1.74,0-3.72,.09-5.75,.09-3.45,.08-6.91-.18-10.31-.76-7.16-1.46-19.1-5.78-19.61-6l-.2-.08-.15-.14c-2.82-2.72-3-7.37-2.94-8.45-5.72-14.64-8-43.29-10.1-73.87-1.11-16.57-.83-33.24-.53-50.89,.22-12.87,.45-26.17,.09-39.58-1.63-61.67-3.1-123.1-4-159.81-.46-19.35-.76-32.14-.85-34.68-.25-7.57-.34-59.72,.88-113,.65-28.37,1.8-56.82,2.73-79.69,.54-13.27,1-24.74,1.22-32.78,1.35-48.55,5.8-115.68,7-128,.36-3.58,.51-10.66,.72-20.46,.54-25.56,1.54-73.14,8.06-133.65,10.55-97.86,20.85-136.4,30.82-173.67l1.26-4.72c8.83-33.1,41.86-96.94,55.65-122.85,.49-.93,.78-1.46,.83-1.57,.7-1.31,1.47-2.57,2.31-3.8,.18-.71,.31-1.43,.39-2.15,.18-2.15,.77-4.25,1.72-6.18,1.63-2.64,3.85-4.86,6.49-6.49l.32-.23,.39,.05c7,.89,11.46,1.26,15.48,1.55h1.35c1.79-.02,3.57-.19,5.33-.5h.09l2.36-.49-1.22,1.75,.06,.53-.48,.1c-1.29,2.25-2.82,8.58-3,10.24-.69,3.3-1.56,6.56-2.63,9.76-.37,1.17-.69,2.21-.91,3l-.17,.59c-1.09,3.65-4.41,14.76-4.62,21.88-.39,8.48-1.32,16.93-2.76,25.29-1,5.44-6.92,27.82-7.59,30.36-1.14,4.34-4.82,20.27-5.46,24.38-.26,2.07-.41,4.16-.44,6.25,0,3.16-.31,6.31-.9,9.41-.59,2.5-3.85,10.93-7.63,20.69-3.34,8.61-6.78,17.51-8.86,23.52-8.27,24-10.15,31.49-10.26,33.54,0,.73-.08,1.64-.13,2.65-.27,6.14-.54,11-1.29,12.45-1,1.9-3.43,8.23-3.63,11.9-.06,1-.22,2.71-.43,4.82-.88,7.85-1.33,15.74-1.32,23.64,0,2.23,0,4.22,.06,6,0,7.38,.05,11.83,2.3,18.93,1.3,4.08,4.81,12.57,8.21,20.78,5.56,13.44,8,19.47,7.86,20.88-.07,.79-.12,3-.18,5.57-.12,5.25-.28,12.43-.78,15.5-.23,1.44-.48,2.73-.71,4-.54,2.51-.88,5.06-1,7.63-.06,1.59,.22,4.67,.54,8.24,.64,5.96,.95,11.95,.92,17.95-.15,4.84-1.6,11.92-3,18.77-1.33,6.5-2.7,13.21-2.84,17.53-.27,8,.67,29.81,1.17,41.51l.14,3.34c.27,4.5,.78,8.98,1.53,13.43,1.02,5.73,1.54,11.55,1.55,17.37l-.07,2.17c-.38,13.21-1.53,53.4-1.4,69.36,.09,9.86,1.18,39.06,2,62.53,.63,16.91,1.17,31.52,1.17,34.35,0,5.55,.58,58.51,2.63,73.18,1.45,10.39,9,39.16,15.14,62.28,2.42,9.14,4.69,17.77,6.2,23.81,5,19.86,44.87,135,51.44,148.49,6.32,12.91,19.3,45.19,21.73,54.93,1.95,7.8,7.74,26.27,11.19,37.31,.67,2.13,1.24,4,1.68,5.36,1.84,5.93,6.81,18.53,10.8,28.66,1.69,4.28,3.14,8,4.1,10.51,2.53,6.65,14.82,35.08,21.43,50.35l4,9.31c1.1,2.56,2.5,5.52,4,8.66,1.7,3.61,3.46,7.34,4.91,10.77,.32,.66,.75,1.27,1.27,1.79l.09,.1,.07,.13-.78,.39-.87,.71c-.19-.23-.49-.37-.79-.36-4,0-17.48,.17-22.44,.35-2.24,.09-5.21,.12-9.34,.12h-12.8c-1.27,0-4,0-7.42-.12-6.46-.12-16.22-.29-24.91-.29-9.89,0-16.29,.23-19,.69l-2,.34c-8.02,1.32-24.67,4.13-38.76,4.13h0Zm261.53-111.51c-6.61-21.13-11.74-37-12.5-38.67-1.52-3.3-5.32-12.56-5.65-15.83-.27-2.75-3.43-18.73-5.76-23.67-1-2.13-2.2-4.26-3.25-6.14-1.29-2.09-2.38-4.29-3.24-6.59l-.64-2.07c-1.67-5.41-5.59-18-6.13-22.38-1.49-11.94-3.28-13.53-4.73-14.82s-2.39-2.42-2.88-6.85c-.31-10.64-1.41-31.73-3.42-36-1.09-2.3-3.46-5.36-6-8.61-3.37-4.36-6.85-8.87-7.57-12.09-.58-2.62,.63-5.54,1.92-8.64,1.53-3.67,3.26-7.84,2.19-12.11s-5.27-9-8.62-12.77c-2.88-3.21-5.15-5.75-5.45-7.82-.2-1.4,.37-3.3,1.16-5.92,3.47-10.44,4.18-21.6,2.06-32.39-1.47-8.19-5.94-15.06-9.54-20.58-2.7-4.15-4.83-7.43-5.1-10.23-.31-3.27,1.3-6.8,3-10.53s3.58-7.84,3.73-12.14c.1-3,.16-6.16,.23-9.37,.13-6.17,.26-12.56,.65-18.17,.49-4.85,1.33-9.65,2.53-14.37,.98-3.84,1.69-7.75,2.15-11.69,.35-4.38,.35-8.77,0-13.15-.06-1.06-.13-2.17-.19-3.41-.13-2.85,.65-6.14,1.64-10.3,1.78-6.93,2.95-14,3.49-21.13l.41-5.86c1.47-20.67,4.53-63.7,4.27-76.59-.18-8.76-.69-38.07,.29-47.25,.33-3,1.65-9.71,3.33-18.19,2.81-14.18,6.65-33.61,7.21-43.8,.4-7.46,.62-21.16,.83-34.4,.28-18,.48-29.19,1-30.81,.85-2.1,1.82-4.15,2.9-6.14,3.15-6.22,7.9-15.62,8.48-20.69,.88-7.58,5.33-15.43,7.23-17.84l3-3.73c7.12-8.83,26-32.28,29.74-37.78l1.08-1.59c3.86-5.67,11.89-17.48,16.54-28.24,.24-.57,.49-1.12,.72-1.66,1.54-3.49,2.86-6.5,3-9.7,1-23.38-6-58.57-9.45-67.8-.62-1.7-1.17-3.18-1.66-4.5-2.38-6.41-3.37-9.06-4.23-13.51-1.08-5.51-4-18.22-7.42-26.9-1.06-2.69-2.48-6.66-4.13-11.27-3.8-10.58-8.53-23.75-11.46-28.68-3.77-6.38-16.81-28-26.24-39.08-9.06-10.62-22.67-28.12-27.7-35-2.74-3.76-5.61-12.89-8.15-20.94l-.33-1.06-.27-.36,.56-1.1h1.05l.3,.33-.32,.29,.39-.2c.94,1.24,2.09,2.31,3.38,3.17,2.45,1.12,28,19.56,37.12,27.6,9.44,8.29,27.12,23.35,34.38,28.47s19.26,9.26,24,10.16l.52,.09,.29,.5,.39,.33c2.03,1.51,2.95,4.1,2.3,6.55-.78,3.89-3,4.81-4.15,5.31l-.44,.19c.28,3.09,10,31.63,19.31,59.24,7.78,22.93,15.81,46.64,20.66,62.13l1.55,4.94c8.94,28.45,27.53,87.65,37.48,133.15,9.36,42.8,13.43,99.92,15,130.16,.38,7.34,1.51,55.2,2.81,110.62,.75,31.8,1.55,66.14,2.32,96.89,1.31,53,2.7,94.7,2.77,96.92l.43,1.94-1.11,.12-5.14,.6-2.91,.33h-2.01c-.58-.05-1.15,.12-1.61,.47-.48,.45-.93,.93-1.34,1.45-1,1.26-2.23,2.69-3.74,3.13-.57,.16-1.17,.23-1.76,.22h-2.32c-.51-.04-1.02,.06-1.48,.3-1.47,.94-4.18,4.34-4.26,6-.09,.91-.23,1.82-.42,2.72-.85,4.11-1.26,8.29-1.23,12.48,0,4.89,.1,8,.17,10.3,.06,1.88,.1,3.11,0,4.23,0,.76-.1,4.43-.19,9.08-.2,10.34-.49,26-.8,31.22-.44,7.7-5.2,37.46-10,51.74s-8.55,23.73-11.48,29.3c-3,5.72-30,42.81-32.45,45.82s-23.78,24.5-27.19,27.49c-.87,.76-2,1.67-3.16,2.63-3,2.44-8,6.51-8.23,7.92-.2,1.17-.48,17.85-.6,36.42l-1.91,.16h0Z" fill="rgb(255, 255, 255)"></path></g></g><g id="Group_R1071_Hood" link="hood"><g id="Pattern_R1071_Hood_000"><path id="Option_R1071_Hood_000_1" d="M1131.73,686.15c-4.86-.93-17.3-5.22-24.75-10.48s-25.08-20.29-34.55-28.6c-8.75-7.69-34.29-26.22-36.63-27.28-1.28-.69-2.39-1.65-3.26-2.81-.99-1.27-2.21-2.34-3.6-3.15-4.74-2.51-10.25-4-15.56-5.46-2.88-.78-5.59-1.52-8-2.38-1.52-.54-3.35-1.22-5.37-2-6.92-2.57-16.4-6.08-22.82-7.43-3.67-.78-11.28-2.19-19.32-3.69-10.3-1.91-21-3.89-25.26-4.88-3.28-.8-6.51-1.77-9.69-2.91-3.76-1.39-7.62-2.46-11.55-3.22-4.64-.8-9.16-1.2-13.53-1.58-2.89-.25-5.61-.49-8.37-.83-1.87-.24-3.73-.44-5.49-.63-5.1-.56-9.13-1-11.05-1.87-.41-.18-.85-.26-1.29-.25-.82,.03-1.64,.14-2.45,.31-1.75,.34-3.52,.51-5.3,.53-.6,0-1.21,0-1.81-.06-3.87-.29-8.58-.67-15.59-1.56l-2.55-.33,2.71-1.91c13.14-28.3,10.8-59.88,8.53-90.42-.75-10.15-1.46-19.74-1.6-29.09-.7-5.68-4.1-23.56-8-44.27-6.26-32.91-14-73.87-15.56-89.71-1.46-15.15-1.56-43-.22-60.76s13.45-65.43,35.5-94.43c19.64-25.88,54.55-55.81,65.24-60.18,13.05-5.32,52.21-11.87,68.94-14.67l4.44-.75c12-2,34.26-2.28,34.48-2.28,16.4,.32,21.42,1.5,31.4,3.86l4.72,1.1c4.17,1,8.61,1.77,13.31,2.63,10.38,1.89,22.14,4,35.63,8.59,4.44,1.52,8.66,3.63,12.55,6.26,1.64,1,3.19,2,4.93,2.91,.72,.37,1.57,.71,2.65,1.15,3.92,1.6,11.23,4.57,28.7,15.24,17.47,10.67,39.62,27.52,50.22,35.59,3,2.25,5.1,3.88,6.14,4.62l4.52,3.17c6.75,4.71,18,12.59,25.37,18.37,5,3.94,14.06,11.6,22,18.35,6.09,5.14,12.38,10.47,13.08,10.88,.61,.33,1.3,.49,2,.48,1.18,.05,2.33,.31,3.41,.79,2.4,1.09,6,5.35,6.73,6.29l.83,.51c4.12,2.51,8.38,5.12,8.42,8.93-.11,3.28-2.7,6.18-6.28,10.19-5.47,6.12-13,14.5-17.76,30.11-4.46,14.47-13.6,37.6-22.43,60-7.28,18.4-14.15,35.79-18.59,48.67l-3,8.84c-7.65,22.16-11.14,32.28-20.94,62.55-7.92,24.48-17.25,48.09-22.83,62.19-2.1,5.32-3.62,9.16-4.17,10.82-.87,2.59-1.6,5.46-2.38,8.51-1,4-2.09,8.19-3.63,12.51-4.91,13.76-14.27,28.9-29.1,52.2-.07,.14-11.6,22.37-16.74,37.77-1.08,3.23-2.13,6.9-3.34,11.16-1.9,6.66-4,14.2-7,22.34-.41,1.15-.71,2.32-1,3.44-.5,2.48-1.43,4.84-2.75,7l.6,1.39-1.94-.38h0Z" fill="#FFFFFF"></path></g></g></g><g id="custom_badge-positions"><g id="Right_Sleeve_Upper"><rect x="830" y="881" width="207" height="400" fill="none"></rect></g><g id="Right_Sleeve_Cuff"><rect x="968.26" y="1707.78" width="169.33" height="105.83" fill="none"></rect></g></g><image class="background-product" width="2048" height="2048" xlink:href="https://media.reformclothing.com/design_lab/ysd-products/R1071_Hoodie/R1071_Hoodie_Fleece_Right_A_2048.png"></image><image width="2048" height="2048" class="decoration__preview-image" xlink:href="https://rendering.documents.cimpress.io/v1/dcl/preview?format=png&amp;width=2048&amp;instructions_uri=https%3A%2F%2Fuds.documents.cimpress.io%2Fv3%2Finstructions%3Apreview%3FdocumentUri%3DrZPBjtMwEED%252FJeedxm5sZ9zjViAhwYECJ8TBHo830TZNFadFq6r%252FznRhBVpYIVBPHs%252FYM09P9qk68lT6cVetquVCVTdVuT9IvH7zDvSr9%252B7Wb9aSzONu3vB%252BLP08Tg%252Bfpq0c6eZ5X1Z1famVRRrpMPAlon7YT1zKoh%252Fro66np2s9l7p13qJCBGqTBZOyBzQ%252BgCH0xvssa6z3h7jtS8dJBj%252B1rVanqhymHIhLtfp8qvokCITKsrEMOUQHRoUGovcKWm1NDkl57Z002YWB5fRGq1a%252FngR3LR15ksrXPs2dlBqlhkH2Hfd33XxxYb8nEtM4hVkEfWTqduN2vHuQcrkgDo%252F56nzzg8ajC2hbBOVQaDQqQB0RsFE%252BRx214ec0H7bMR948Dv1Jo5sr0GQbrDUqAVEmMKZpILSYIOfWsSNLjtuXaZa%252F4OAzmv%252BAwYbtkmQ6Ja3BOLESsdHgWpfMsnFLHf6s5i3nq5tRxpsgLiBFeX%252FGKQsBmUBn5MCRIlp6EebaYjzZGDKD0xzB8OVDkENgL6aC8bn5TcxtoPu%252FP2DzDzBfzudv&amp;scene=https://scene.products.cimpress.io/v1/scenes/607b0f9f-99fb-4ba5-98b7-dd901c3573c9"></image>
<text class="svgText" x="45%" y="57%" dominant-baseline="middle" text-anchor="middle" font-size="50" fill="black"></text>
<image class="custom-logo" href="https://cdn.shopify.com/s/files/1/0904/5262/3636/files/preview-removebg-preview.png" x="46%" y="45%" width="200" height="200"></image>

</svg>