<svg xmlns="http://www.w3.org/2000/svg" xmlns:xlink="http://www.w3.org/1999/xlink" id="" class="back-center" viewBox="0 0 2048 2048" width="2048" height="2048">
  <g id="">
    <g id="" link="rib">
      <g id="">
        <path id="" d="M1476.03,1966.308a161.9,161.9,0,0,1-35.876-4.365c-27.664-6.33-36.872-20.594-39.547-26.434l-.106-.232.019-.255c.182-2.612.274-5.651.37-8.868.109-3.629.221-7.382.476-11.265.117-1.779.252-3.567.4-5.343l.256-3.082,1.6,2.648c.99,1.642,2.012,3.447,3.094,5.358,4.057,7.165,8.654,15.286,14.276,19.7,6.031,4.739,32.5,10.463,56.326,10.463a92.773,92.773,0,0,0,18.874-1.653,72.387,72.387,0,0,0,36.239-19.437l1.972-2.088-.529,6.069c-.352,4.048-.74,8.5-1.153,13.048l-.027.292-.18.233c-5.759,7.387-15.76,16.559-23.733,19.794C1503.794,1962.916,1492.913,1966.308,1476.03,1966.308Zm-427.387-6.907c-8.949,0-17.529-.422-27.464-.913-15.135-.746-33.971-1.675-63.992-1.675-6.989,0-14.381.052-21.974.154-11.969.16-23.857.241-35.333.241-65.572,0-118.451-2.576-148.9-7.255-32.488-4.993-65.716-20.436-72.047-23.481l-.631-.3.069-.695c1.09-11.067,1.854-21.063,2.27-29.709l.091-2.063,1.316.542c1.218.5,4.46,1.923,12.5,5.806,1.695.818,3.363,1.7,5.129,2.633,9.847,5.2,23.333,12.325,65.668,21.3,28.426,6.024,56.12,6.8,77.071,6.8,10.395,0,20.456-.219,30.186-.433,8.622-.19,16.766-.368,24.58-.383,10.427-.021,19.172-.149,27.629-.273,8.04-.12,15.633-.231,23.723-.231,16.012,0,31.661.464,50.74,1.506,23.74,1.3,35.522,1.4,47.421,1.4,2.134,0,4.294-.005,6.535-.009,2.418-.005,4.929-.01,7.6-.01,10.457,0,24.035.073,45.45.617,20.964.533,35.137.77,45.954.77,14.788,0,23.9-.438,37.688-1.1,4.221-.2,8.9-.428,14.323-.669,40.24-1.788,69.832-4.18,98.948-8,27.7-3.631,38.982-10.03,49.891-16.218,1.588-.9,3.165-1.8,4.78-2.675a62.555,62.555,0,0,0,14.711-11.1l2.1-2.155-.395,2.984a146.785,146.785,0,0,0-.935,25.108l.126,3.207-.352.314c-10.647,9.493-28.814,17.505-55.54,24.5-19.1,4.995-43.443,5.706-69.217,6.458-16.217.473-32.985.963-48.976,2.572-13.288,1.337-29.714,1.96-51.7,1.96-10.358,0-20.821-.131-30.938-.258-9.649-.12-18.761-.234-27.369-.234-10.45,0-18.422.171-25.089.536C1058.967,1959.259,1053.846,1959.4,1048.643,1959.4Zm-449.878-4.435c-26.262,0-43.13-4.621-50.847-7.376l-.571-.2-.084-.6c-.872-6.271-1.936-12.159-3.16-17.5l-.409-1.781,1.721.616c2.412.864,5.418,1.832,8.937,2.876,5.687,1.688,14.545,2.617,24.943,2.618a212.45,212.45,0,0,0,32.634-2.646c20.655-3.318,36.529-16.829,42.506-21.916l1.023-.869c4.768-4.011,11.281-12.712,12.539-14.416l1.809-2.453,0,3.048a155.508,155.508,0,0,0,1.423,19.7l.068.541-.418.35a83.476,83.476,0,0,0-11.981,12.616c-6.911,8.874-21.29,27.339-59.809,27.394Z" fill="none" fill-rule="evenodd"></path>
        <path id="" d="M1485.41,1986.341a131.937,131.937,0,0,1-18.162-1.375c-36.743-5.154-60.123-13.873-69.489-25.913l-.238-.306.03-.387c.319-4.084.947-8.189,1.553-12.16.5-3.276.975-6.371,1.264-9.336.058-.588.106-1.2.152-1.839l1.906-.345c2.553,5.568,11.383,19.182,38.175,25.314a159.977,159.977,0,0,0,35.429,4.314c16.543,0,27.147-3.3,32-5.267,7.648-3.1,17.312-11.992,22.907-19.17l2.092-2.685-.307,3.39c-1.056,11.627-1.922,19.96-2.726,26.226l-.046.358-.263.245c-1.066,1-1.951,1.875-2.866,2.784-1.324,1.316-2.692,2.676-4.741,4.526C1516.552,1979.705,1506.74,1986.341,1485.41,1986.341Zm-371.426-5.072c-3.757,0-6.641-.1-8.816-.3-7.668-.708-25.122-.8-39.471-.8-8.865,0-18.458.04-28.163.08-9.936.042-19.988.084-29.5.084-15.522,0-26.6-.115-34.855-.362-7.159-.214-15.649-.309-27.527-.309-6.629,0-13.641.029-20.943.06-7.933.033-16.209.067-24.705.067-21.861,0-50.471-.207-77.907-1.82-19.457-1.144-33.763-1.192-45.258-1.231-21.412-.071-34.336-.115-56.014-6.815-25.751-7.958-39.911-15.034-44.8-17.706l-.594-.325.081-.673c.747-6.159,1.856-15.527,2.862-25.748l.141-1.423,1.288.619c6.29,3.024,39.3,18.358,71.484,23.307,30.345,4.663,83.116,7.231,148.592,7.231,11.463,0,23.342-.081,35.307-.241,7.6-.1,15-.154,22-.154,30.076,0,48.939.931,64.1,1.678,9.906.488,18.461.91,27.36.91,5.165,0,10.251-.141,15.548-.431,6.7-.368,14.71-.54,25.2-.54,8.62,0,17.739.114,27.393.234,10.112.127,20.569.258,30.914.258,21.914,0,38.278-.62,51.5-1.95,16.063-1.617,32.868-2.107,49.12-2.581,25.657-.749,49.89-1.456,68.769-6.395,26.417-6.909,44.315-14.776,54.716-24.049l1.583-1.412.081,2.12a233.8,233.8,0,0,1-.187,27.511l-.031.378-.274.261a79.459,79.459,0,0,1-49.573,21.165c-17.782.291-35.437,1.25-52.512,2.178-16.572.9-32.226,1.751-45.576,1.825-11.162.061-30.436,1.235-50.84,2.478C1151.724,1979.836,1128.206,1981.269,1113.984,1981.269Zm-513.724-5.961c-21.618,0-40.831-3.674-50.14-9.588l-.392-.248-.063-.46c-.28-2.042-.573-4.319-.9-6.866-.406-3.164-.867-6.747-1.425-10.823l-.307-2.173,1.557.557c7.595,2.711,24.213,7.259,50.175,7.259h.316c37.543-.053,51.518-18,58.233-26.622a85.358,85.358,0,0,1,12.275-12.921l1.406-1.179.229,1.82c.4,3.2.833,6.221,1.251,9.142.428,3,.833,5.829,1.121,8.307l.071.606-.507.34c-1.176.787-3.21,2.653-6.228,7.067a67.874,67.874,0,0,0-4.833,8.283c-1.4,2.756-2.331,4.578-4.44,5.988-.435.291-1.187.907-2.138,1.686-6.035,4.946-22.066,18.08-44.371,19.488C607.607,1975.194,603.943,1975.308,600.26,1975.308Zm877.054-28.671c-22.463,0-50.438-5.293-57.562-10.891-5.932-4.661-10.633-12.965-14.78-20.291-1.076-1.9-2.091-3.692-3.067-5.309l-.167-.277.027-.322c.272-3.3.582-6.561.874-9.641.27-2.853.526-5.553.724-7.988l.289-3.545,1.6,3.176c3.033,6.015,14.052,26.065,28.473,31.472,12.545,4.7,30.607,7.742,46.013,7.742h0c10.14,0,18.654-1.259,25.309-3.742a182.451,182.451,0,0,0,20.645-9.447c2.827-1.455,5.5-2.828,7.918-3.917l1.572-.707-.166,1.716c-.244,2.512-.538,5.835-.871,9.654l-.03.347-.239.254a74.566,74.566,0,0,1-37.276,20.02A94.883,94.883,0,0,1,1477.314,1946.637ZM1152.24,1935.73c-10.833,0-25.021-.238-46.005-.77-21.393-.544-34.954-.617-45.4-.617-2.673,0-5.184,0-7.6.01-2.242,0-4.4.009-6.538.009-11.929,0-23.739-.106-47.53-1.4-19.042-1.038-34.657-1.5-50.632-1.5-8.076,0-15.662.111-23.693.231-8.463.124-17.214.252-27.654.273-7.794.015-15.93.193-24.543.382-9.741.214-19.813.434-30.227.434-21.047,0-48.876-.777-77.486-6.839-42.608-9.031-56.236-16.23-66.187-21.486-1.75-.925-3.4-1.8-5.065-2.6-8-3.863-11.2-5.264-12.389-5.756l-.649-.268.031-.7a132.007,132.007,0,0,0-.831-24.926l-.2-1.356,1.353.22c3.694.6,16.4,3.1,24.77,10.114,9.243,7.739,19.694,16.489,52.446,18.775a206.985,206.985,0,0,1,26.876,3.695c14.738,2.78,31.442,5.93,81.1,6.306q6.723.051,12.884.05c32.856,0,54.4-1.021,70.134-1.767,9.816-.464,17.569-.832,24.923-.832,5.1,0,9.6.175,14.176.551,7.021.577,13.918,1.24,20.588,1.882,16.773,1.613,32.616,3.137,48.324,3.137,1.008,0,2.012-.007,3.018-.02q1.076-.014,2.223-.014c7,0,16.067.379,26.563.817,15.449.645,34.675,1.448,56.6,1.448h.007c15.839,0,30.758-.409,45.611-1.249,50.651-2.867,81.1-6.3,107.959-9.326,5.137-.579,10.11-1.14,15.034-1.674,30.043-3.26,35.563-6.809,40.3-13.583.624-.893,1.193-1.731,1.724-2.518,3.657-5.407,5.865-8.67,13.067-8.912,2.25-.075,4.519-.114,6.743-.114l2.718.015-.455,1.316a90.569,90.569,0,0,0-4.042,17.652l-.043.329-.232.238a64.589,64.589,0,0,1-15.181,11.451c-1.605.874-3.173,1.764-4.75,2.658-11.076,6.284-22.529,12.781-50.618,16.461-29.176,3.824-58.818,6.22-99.12,8.011-5.421.241-10.092.465-14.311.668C1176.206,1935.291,1167.075,1935.73,1152.24,1935.73Zm-572.945-.112c-10.584,0-19.645-.959-25.513-2.7-3.552-1.055-6.594-2.034-9.042-2.911l-.515-.185-.122-.533a125.161,125.161,0,0,0-4.159-14.437l-.952-2.635,2.405,1.436c2.038,1.216,8.335,4.046,22.776,4.046h0c4.23,0,8.873-.249,13.8-.739,33.371-3.323,56.4-11.51,72.462-25.762,12.563-11.146,18.357-16.526,20.692-18.742l2.61-2.476-.958,3.468c-.4,1.458-.829,3.064-1.278,4.835a68.226,68.226,0,0,0-1.7,16.083v.328l-.2.264c-1.8,2.438-8.044,10.708-12.859,14.759l-1.017.862c-6.092,5.186-22.276,18.961-43.484,22.367A214.526,214.526,0,0,1,579.295,1935.618Z" fill="none" fill-rule="evenodd"></path>
        <path id="" d="M1484.324,2003q-1.925,0-3.941-.019c-30.3-.26-56.754-1.664-73.671-16.247-9.448-8.145-9.858-19.442-9.161-28.374l.2-2.573,1.585,2.037c9.036,11.616,31.978,20.081,68.188,25.161a129.834,129.834,0,0,0,17.885,1.356c20.641,0,30.046-6.341,35.324-11.111,2.014-1.817,3.366-3.161,4.672-4.459.929-.923,1.828-1.817,2.91-2.827l2.028-1.893-.353,2.751c-.2,1.544-.4,2.99-.594,4.317C1524.962,2000.854,1509.41,2003,1484.324,2003Zm-245.739-3.016c-43.128,0-84.121-.691-84.53-.7-32.638-.481-81.478-.746-137.52-.746-69.782,0-139.51.411-173.509,1.023-7.729.139-15.6.21-23.391.21-51.947,0-96.471-3-110.793-7.474-13.61-4.25-36.384-14.05-35.414-23.826.185-1.866.6-5.187,1.118-9.393.289-2.336.617-4.976.967-7.858l.177-1.465,1.295.707c4.84,2.644,18.86,9.647,44.436,17.552,21.392,6.611,34.2,6.654,55.429,6.725,11.52.039,25.857.087,45.369,1.235,27.383,1.609,55.954,1.816,77.786,1.816,8.5,0,16.769-.034,24.7-.067,7.3-.031,14.32-.06,20.953-.06,11.9,0,20.4.1,27.585.31,8.237.247,19.294.361,34.8.361,9.5,0,19.553-.042,29.486-.084,9.707-.04,19.3-.08,28.169-.08,21.38,0,33.61.249,39.656.807,2.083.192,4.987.29,8.632.29,14.16,0,37.648-1.431,60.362-2.815,20.433-1.244,39.733-2.42,50.95-2.481,13.3-.074,28.933-.923,45.479-1.822,17.094-.929,34.769-1.889,52.544-2.179a77.383,77.383,0,0,0,48.26-20.607l1.909-1.823-.222,2.631c-2.459,29.1-15.429,42.951-44.765,47.793C1312.26,1999.309,1282.034,1999.984,1238.585,1999.984ZM604.38,1995.8c-22.7,0-37.949-6.57-43.452-9.4-8.077-4.146-9.424-8-11.262-21.389l-.294-2.136,1.82,1.156c8.87,5.635,28.131,9.276,49.069,9.276,3.64,0,7.262-.113,10.763-.333,21.662-1.367,37.33-14.2,43.229-19.038,1.032-.846,1.778-1.458,2.294-1.8,1.676-1.12,2.464-2.668,3.769-5.234a69.589,69.589,0,0,1,4.965-8.5c2.567-3.754,4.843-6.311,6.765-7.6l1.36-.912.19,1.627c.056.482.109.955.155,1.41.725,7.032-.967,10.608-2.758,14.395a35.117,35.117,0,0,0-3.9,14.65c-.96,15.68-22.944,30.241-50.051,33.147A119.107,119.107,0,0,1,604.38,1995.8Zm875.359-63.034c-15.625,0-33.962-3.089-46.715-7.869-15.1-5.662-26.441-26.265-29.556-32.445l-.127-.251.022-.28c.2-2.417.721-8.838.063-10.63-.192-.41-.39-.893-.573-1.376l1.682-1.019a175.292,175.292,0,0,0,24.443,23.26c10.551,8,27.915,13.156,46.447,13.8,4.151.145,7.962.355,11.324.539,4.777.264,8.9.49,12.85.49a61.781,61.781,0,0,0,16.547-2,93.06,93.06,0,0,0,18.078-6.536l1.856-.956-.419,2.046c-.1.485-.189.99-.259,1.535-.107.851-.235,2.073-.382,3.589l-.056.577-.529.238c-2.373,1.067-4.9,2.367-7.824,3.872a187.03,187.03,0,0,1-20.861,9.542C1498.871,1931.462,1490.12,1932.763,1479.739,1932.763ZM564.173,1919.7c-14.938,0-21.621-3.027-23.8-4.329l-.307-.182-.121-.336c-3.522-9.746-7.1-14.557-9.477-16.877l-2.271-2.214,3.13.51c1.377.226,2.767.482,3.916.694,3.659.675,6.574,2.193,11.346,5.134l.706.437c3.373,2.1,6.038,3.757,13.289,3.757,1.887,0,3.979-.11,6.395-.338,10.136-.952,25.054-3.954,38.557-12.844,9.215-6.064,11.442-7,19.728-10.491,2.263-.953,4.985-2.1,8.434-3.595,15.052-6.532,18.713-11.307,22.953-16.837l.662-.862a87.1,87.1,0,0,1,12.165-12.169l.087-.07.1-.05s3.238-1.6,5.994-3c1.981-1,6.247-1.155,8.613-1.155a54.847,54.847,0,0,1,11.061,1.07c4.886,1.08,5.609,5.82,6.309,10.4a29.041,29.041,0,0,0,1.406,6.207c1.215,3.046,4.429,3.685,6.912,3.685a14.875,14.875,0,0,0,2.94-.288l1.338-.3-.119,1.367c-.139,1.58.026,5.919,2.418,7,1.927.873,8.126.993,14.536.993,2.46,0,5.171-.018,8.111-.039,3.484-.024,7.289-.049,11.373-.049q1.76,0,3.585.006c12.491.051,18.451,1.864,26,4.159a167.956,167.956,0,0,0,19.2,4.862,93.279,93.279,0,0,0,17.635,1.806,117.988,117.988,0,0,0,13.434-.927,116.059,116.059,0,0,1,13.142-.914c.539,0,1.083.006,1.638.017,9.28.2,16.327.286,23.562.286,7.348,0,14.787-.09,23.411-.286,4.48-.1,9.752-.187,15.336-.279,17.434-.286,39.131-.642,47.583-1.714,10.528-1.335,40.088-3.036,47.762-3.036.6,0,1.085.009,1.436.029,1.491.083,3.307.325,5.822.66,6.181.822,16.527,2.2,37.192,3.342,26.958,1.49,31.976,1.973,48.6,3.575l4.459.429c7.1.681,12.067.972,16.608.972,3.417,0,6.379-.161,10.128-.364,3.789-.206,8.5-.462,15.16-.613,2.9-.065,6.2-.1,10.093-.1,7.019,0,14.777.1,22.99.213,8.562.114,17.415.232,25.761.232,8.115,0,14.712-.113,20.164-.347,26.088-1.116,41.661-4.934,41.815-4.973a12.409,12.409,0,0,1,3.073-.378,53.85,53.85,0,0,1,8.672,1.193c1.836.33,4.02.724,6.669,1.17a70.24,70.24,0,0,0,11.961,1.018c5.823,0,11.98-.659,20.5-1.571l4.279-.455c4-.422,7.2-.8,9.9-1.114a116.914,116.914,0,0,1,14.733-1.154c2.145,0,4.514.082,7.45.257,12.076-1.515,14.237-10.8,14.04-13.938-.267-4.274,4-10.385,4.182-10.643l.206-.293.346-.094c.116-.033,2.942-.787,11.239-1.034a45.749,45.749,0,0,0,9.224-1.272l2.947-.7-1.949,2.32a7.673,7.673,0,0,1-1.454,1.365c-.438.695-.917,1.429-1.428,2.211a77.857,77.857,0,0,0-9.334,18.3l-.234.679-1.982-.009c-2.235,0-4.5.038-6.73.112-6.183.208-7.842,2.662-11.478,8.036-.537.793-1.11,1.641-1.741,2.543-5.093,7.28-10.869,11.076-41.727,14.424-4.919.535-9.888,1.094-15.021,1.673-26.889,3.03-57.365,6.466-108.072,9.335-14.891.843-29.85,1.253-45.732,1.253-21.966,0-41.215-.8-56.682-1.449-10.473-.438-19.517-.816-26.479-.816q-1.134,0-2.2.014-1.52.019-3.044.02c-15.805,0-31.693-1.529-48.514-3.146-6.664-.64-13.554-1.3-20.562-1.879-4.519-.372-8.971-.545-14.012-.545-7.308,0-15.041.367-24.832.83-15.752.746-37.326,1.769-70.226,1.769-4.115,0-8.407-.016-12.9-.05-49.836-.377-66.634-3.546-81.455-6.342a205.327,205.327,0,0,0-26.645-3.663c-33.4-2.332-44.114-11.3-53.568-19.218-8.215-6.878-21.292-9.281-23.83-9.693l-.72-.117-.109-.721a35.59,35.59,0,0,0-2.517-9.554c-.792,1.375-2.31,4.747-4.541,12.8l-.075.268-.2.191c-2.347,2.227-8.163,7.627-20.742,18.787-16.4,14.545-39.78,22.889-73.591,26.256C573.183,1919.447,568.472,1919.7,564.173,1919.7Z" fill="none" fill-rule="evenodd"></path>
      </g>
      <g id="">
        <path id="" d="M1484.29,2003c-1.272,0-2.572-.007-3.907-.019-30.3-.26-56.754-1.664-73.671-16.247-12.2-10.522-9.763-26.468-7.608-40.537.5-3.275.975-6.369,1.264-9.333.292-2.993.4-6.742.523-10.71.108-3.63.22-7.383.475-11.265.334-5.091.833-10.352,1.274-14.993.8-8.479,1.565-16.487.786-18.608-.192-.41-.39-.893-.573-1.376l1.682-1.019a175.292,175.292,0,0,0,24.443,23.26c10.552,8,27.916,13.156,46.447,13.8,4.151.145,7.962.355,11.324.539,4.777.263,8.9.49,12.85.49a61.786,61.786,0,0,0,16.547-2,93.06,93.06,0,0,0,18.078-6.536l1.856-.956-.419,2.046c-.1.485-.189.99-.259,1.535-.325,2.579-.841,8.509-1.5,16.017-1.215,13.967-2.88,33.1-4.51,44.025-4.435,29.735-19.987,31.881-45.073,31.881Zm-245.7-3.016c-43.128,0-84.121-.691-84.53-.7-32.639-.481-81.478-.746-137.521-.746-69.782,0-139.51.411-173.508,1.023-7.727.139-15.6.21-23.391.21-51.947,0-96.471-3-110.794-7.474-13.61-4.25-36.384-14.05-35.414-23.826.185-1.864.6-5.179,1.116-9.377,1.744-14.06,4.988-40.231,6.1-63.332,1.1-22.833-1.952-32.156-3.324-35.118-.935,1.625-2.878,6.028-5.818,17.638-3.439,14.1-.891,31.914.97,44.921.508,3.555.989,6.911,1.277,9.717.725,7.032-.967,10.608-2.758,14.395a35.117,35.117,0,0,0-3.9,14.65c-.959,15.68-22.944,30.241-50.051,33.148a119.036,119.036,0,0,1-12.655.683c-22.7,0-37.952-6.571-43.455-9.4-9.136-4.691-9.657-8.748-12.161-28.24-.407-3.168-.868-6.756-1.427-10.838-4.694-34.268-13.363-45.927-16.873-49.348l-2.271-2.214,3.13.51c1.377.226,2.767.482,3.916.694,3.659.675,6.574,2.193,11.346,5.134l.707.438c3.372,2.1,6.037,3.756,13.287,3.756,1.887,0,3.979-.11,6.4-.338,10.136-.952,25.054-3.954,38.557-12.843,9.215-6.065,11.442-7,19.729-10.492,2.263-.953,4.984-2.1,8.433-3.595,15.051-6.53,18.712-11.306,22.952-16.837l.663-.862a87.025,87.025,0,0,1,12.166-12.169l.086-.07.1-.05s3.237-1.6,5.993-3c1.981-1,6.247-1.155,8.613-1.155a54.847,54.847,0,0,1,11.061,1.07c4.886,1.08,5.609,5.82,6.309,10.4a29.027,29.027,0,0,0,1.406,6.207c1.215,3.046,4.43,3.685,6.912,3.685a14.892,14.892,0,0,0,2.941-.288l1.338-.3-.119,1.367c-.139,1.58.025,5.919,2.417,7,1.927.873,8.126.993,14.536.993,2.46,0,5.171-.018,8.111-.039,3.484-.024,7.289-.049,11.373-.049q1.76,0,3.585.006c12.491.051,18.451,1.864,26,4.159a167.956,167.956,0,0,0,19.2,4.862,93.279,93.279,0,0,0,17.635,1.806,117.988,117.988,0,0,0,13.434-.927,116.059,116.059,0,0,1,13.142-.914c.539,0,1.083.006,1.638.017,9.28.2,16.327.286,23.562.286,7.348,0,14.787-.09,23.411-.286,4.48-.1,9.752-.187,15.336-.279,17.434-.286,39.131-.642,47.583-1.714,10.528-1.335,40.089-3.036,47.762-3.036.6,0,1.085.009,1.436.029,1.491.083,3.308.325,5.822.66,6.181.822,16.527,2.2,37.193,3.342,26.958,1.49,31.976,1.973,48.6,3.575l4.457.429c7.1.681,12.067.972,16.608.972,3.418,0,6.379-.161,10.129-.364,3.788-.206,8.5-.462,15.159-.613,2.9-.065,6.2-.1,10.093-.1,7.019,0,14.777.1,22.99.213,8.562.114,17.415.232,25.761.232,8.115,0,14.712-.113,20.164-.347,26.088-1.116,41.661-4.934,41.815-4.973a12.409,12.409,0,0,1,3.073-.378,53.85,53.85,0,0,1,8.672,1.193c1.836.33,4.02.724,6.669,1.17a70.223,70.223,0,0,0,11.961,1.018h0c5.821,0,11.977-.659,20.5-1.571l4.283-.455c4-.422,7.2-.8,9.9-1.114a116.914,116.914,0,0,1,14.733-1.154c2.145,0,4.514.082,7.45.257,12.076-1.515,14.237-10.8,14.04-13.938-.267-4.274,4-10.384,4.182-10.642l.206-.293.346-.094c.116-.033,2.942-.788,11.239-1.035a45.749,45.749,0,0,0,9.224-1.272l2.947-.7-1.949,2.32a7.639,7.639,0,0,1-1.453,1.365c-.441.7-.924,1.439-1.44,2.227-5.923,9.056-15.836,24.212-14.3,61.041,1.763,42.386-.407,70.718-44.852,78.053C1312.26,1999.309,1282.035,1999.984,1238.586,1999.984Z" fill="#FFFFFF" fill-rule="evenodd"></path>
      </g>
    </g>
    <g id="" link="hood">
      <g id="">
        <path id="" d="M815.7,603.762c.322-1.469,3.107-7.973,7.32-17.729,1.8-4.166,3.5-8.1,4.628-10.827,3.218-7.767,5.345-12.9.553-27.282-10.968-21.895-7.654-45.889-7.308-48.148-.435-2.69-6.239-38.5-9.692-57.587-2.924-16.159-2.6-18.2-.5-31.486.516-3.261,1.158-7.32,1.883-12.432,3.237-22.837,5.149-27.307,9.767-38.105.585-1.367,1.214-2.838,1.9-4.464.386-9.139,5.589-28.486,15.885-66.776,3.081-11.457,6.573-24.443,10.525-39.345,13.367-50.409,18.471-59.52,32.111-83.87,3.956-7.061,8.439-15.065,14.075-25.757,23.886-45.318,52.925-68.641,70.275-82.577q1.578-1.266,3.025-2.435C976.651,49.672,984.791,47,994.33,47a54.26,54.26,0,0,1,16.717,2.663,40.978,40.978,0,0,1,11.974-1.893,29.95,29.95,0,0,1,4.27.295c6.249,1.035,11.965,4.5,30.9,15.993,5.29,3.21,11.873,7.2,19.736,11.91,35.73,21.382,63.209,49.312,81.676,83.016,28.352,29.393,36.543,66.332,43.126,96.019,2.067,9.319,4.02,18.128,6.37,25.383,9.375,8.894,11.512,30.96,15.743,74.626q.75,7.742,1.6,16.362c5.136,51.646,2.883,69.183.031,91.385l-.312,2.429c-2.326,18.207-10.646,32.958-15.117,40.882a47.311,47.311,0,0,0-2.437,4.612c-1.487,3.925-3.081,26.243.051,45.3,2.7,16.406,2.245,24.842,2.028,28.9-.033.617-.06,1.133-.07,1.559a13.411,13.411,0,0,1-.864,3.714c-.843,2.56-1.713,5.207.019,7.736l1.484,2.166-2.549-.63c-4.265-1.053-9.033-2-14.579-2.907a73.13,73.13,0,0,1-9.215-2.413,45.478,45.478,0,0,0-15.227-2.676c-.514,0-1.043.007-1.584.023l-.456,1.083c-5.7-.971-13.612-1.459-23.629-2.078-12.263-.756-27.526-1.7-46.877-3.936a419.918,419.918,0,0,0-47.783-2.312c-14.5,0-28.478.461-39.71.831-8.026.265-14.958.494-20.08.494-.469,0-2.577-.015-3.189-.015-10.391,0-21.3.753-35.119,1.706-11.142.768-23.771,1.638-39.026,2.3-26.856,1.171-38.021,2.344-47.33,3.857l-.215.035-.211-.058a13.514,13.514,0,0,0-3.522-.42,19.521,19.521,0,0,0-4.552.561c-1.493.379-3.584.716-6,1.106-5.516.89-13.069,2.108-19.864,4.851-1.943.784-3.771,1.526-5.464,2.213-3.213,1.3-5.94,2.41-8.037,3.231l-1.742.682Z" fill="#FFFFFF" fill-rule="evenodd"></path>
      </g>
    </g>
    <g id="" link="sleeves">
      <g id="">
        <path id="" d="M1364.614,1320.453c.978-6.823,2.236-15.183,3.739-24.849,1.693-8.241,3.626-16.887,5.672-26.042,3.213-14.371,6.536-29.23,9.1-43.345l.116-.642,199.306-47.955.074,1.189c1.12,17.889,1.9,32.187,2.316,39.869.156,2.862.264,4.858.326,5.852.327,5.3,1.991,10.62,4.508,18.667,1.785,5.7,4,12.792,6.461,22.182l.258.987-232.087,55.544Zm25.965-173.8c2.206-27.1,5.08-50.045,8.788-70.143,1.215-6.585,2.635-13.617,4.219-20.9l.138-.63,164.293-35.071.151,1.06c3.246,22.786,6.353,51.685,9.231,85.894l.075.877-187,40.257Z" fill="none" fill-rule="evenodd"></path>
        <path id="" d="M1499.583,1918.984c-4,0-8.152-.228-12.959-.493-3.353-.184-7.152-.393-11.284-.538-18.928-.659-36.716-5.97-47.584-14.206a177.234,177.234,0,0,1-24.729-23.526l-.122-.138-.065-.173a28.39,28.39,0,0,1-1.486-13.057c.051-2.469,1.427-71.2-5-120.825-2.707-20.906-6.749-45.79-11.029-72.134-6.191-38.113-12.593-77.523-15.982-110.952-2.98-29.388-1.209-50,.353-68.194,1.433-16.688,2.671-31.1-.343-47.766-5.57-30.8-8.825-47.152-9.674-48.6a.867.867,0,0,0,.719.354v-.652l-1.1-.046c-.01-1.093,0-2.2.038-3.286.166-5.261.533-11.785.922-18.693.5-8.806,1.008-17.912,1.078-24.3.05-.932.077-1.724.105-2.536.145-4.124.308-8.8,3.17-28.775l.1-.673,231.276-55.348.248.947c1.921,7.339,3.687,14.915,5.4,23.161,2.807,25.782.808,37.358-1.958,53.382-1.438,8.325-3.068,17.762-4.267,30.95-3.361,36.947-7.007,87.25-10,138.012-2.983,50.589-12.451,121.4-23.026,172.2-3.368,14.261-5.843,23.9-7.649,30.934-3.638,14.171-4.3,16.724-3.346,22.723,1.007,6.367.049,16.622-.878,26.539-.432,4.613-.877,9.382-1.109,13.621,1.2,16.947-2.238,46.1-5,69.533-.76,6.441-1.478,12.525-2.006,17.607-2,19.3-1.994,24.533-1.985,29.151,0,.914,0,1.8-.009,2.769a14.7,14.7,0,0,1-2.292,7.356,21.221,21.221,0,0,0-2.459,6.225l-.1.469-.425.218a94.9,94.9,0,0,1-18.477,6.691A63.686,63.686,0,0,1,1499.583,1918.984ZM560.6,1908.293c-7.822,0-10.843-1.88-14.341-4.057l-.7-.434c-4.554-2.808-7.31-4.252-10.66-4.87-1.137-.21-2.513-.463-3.875-.686l-.311-.051-.455-.455c-5.845-3.091-6.222-7.794-6.237-8.748a55.132,55.132,0,0,1-1.666-11.23c0-.28.021-.632.048-1.063.14-2.238.431-6.894-2.217-14.724-2.666-7.081-2.962-9.278-5.263-26.37-.475-3.531-1.037-7.7-1.724-12.694-5.256-23.6-6.637-39.629-7.856-53.775-1.068-12.408-1.991-23.124-5.179-36.664-1.223-5.2-2.755-10.573-4.376-16.263-2.278-7.994-4.633-16.26-6.462-25.143-1.866-9.069-3.405-18.36-5.034-28.195-2.028-12.241-4.124-24.9-6.9-37.046-6.676-29.178-7.719-49.728-8.728-69.6-.288-5.686-.587-11.565-1.015-17.471-.8-11.022-.753-19.61-.708-27.916.061-11.048.118-21.483-2.06-35.318-1.972-12.523-1.76-21.6-1.556-30.371.182-7.834.355-15.233-1.218-24.04-3.4-14.075-3.862-22.56-4.4-32.385-.1-1.855-.206-3.763-.334-5.773-.837-13.174-5.379-45.26-12.467-72.292-6.631-25.29,5.906-84.723,11.931-113.286.649-3.077,1.215-5.764,1.665-7.97,2.2-10.8,3.174-28.347,4.3-48.672,1.194-21.491,2.547-45.85,5.683-69.287,1.116-8.338,2.41-18.284,3.844-29.3,6.631-50.951,15.713-120.73,24.216-164.872,14.424-52.725,30.14-71.744,91.106-130.222,51.321-49.228,99.986-72.9,132.189-88.563,6.007-2.922,11.681-5.682,16.626-8.246,30.055-15.58,65.29-35.128,67.87-36.561a71.144,71.144,0,0,1,11.4-10.079l.086-.358.486-.19c2.1-.822,4.837-1.932,8.062-3.241,1.684-.683,3.5-1.421,5.431-2.2,7-2.826,14.685-4.066,20.293-4.97,2.374-.383,4.425-.714,5.845-1.074a21.54,21.54,0,0,1,5.029-.619,13.9,13.9,0,0,1,4.574.654l2.434.923-2.427.944a17.681,17.681,0,0,0-9.4,11.345l-.08.28-.218.193c-5,4.45-8.56,7.959-12,11.352a214.824,214.824,0,0,1-25.072,21.71c-4.112,3.1-8.372,6.187-12.882,9.452-17.574,12.725-37.494,27.147-61.025,51.465-17.368,18.954-27.836,36.733-38.919,55.556-6.543,11.113-13.308,22.6-21.993,35.341-23.335,34.222-41.825,62.415-49.889,87.767-7.911,24.869-9.982,52.883-5.06,68.237l.824,1.031c4.664,5.821,6.235,7.782,12.231,25.133,4.445,12.865,11.51,24.365,15.731,31.237a41.529,41.529,0,0,1,3.28,5.791,7.854,7.854,0,0,0,.421,1c1.017,2.133,2.171,4.551,1.629,28.342-.361,15.836.6,28.282,1.711,42.695.824,10.694,1.759,22.814,2.29,38.274.444,12.915.561,23,.665,31.9.189,16.136.351,30.072,2.333,54.074.8,9.75,1.525,19.579,2.221,29.083,2.024,27.63,3.935,53.728,7.773,77.876,4.307,27.1,3.955,32.332,3.372,41-.121,1.792-.257,3.824-.359,6.21a202.415,202.415,0,0,0,1.986,36.8,106.782,106.782,0,0,1,1.023,17.887c1.3,1.982,8.464,13.743,5.978,27.478-2.43,13.433-8.961,25.292-9.989,27.1-.211,23.608-.135,59.519.94,62.4.226.608.457,1.17.688,1.733,1.341,3.27,2.728,6.651,3.375,18.569.748,13.8,1.7,53.011,1,64.138-.62,9.8-4,19.98-4.665,21.923l-.074.212-.156.161c-1.427,1.46-13.9,15.185-12.793,47.056.8,22.8,1.794,30.934,2.676,38.108.45,3.659.874,7.114,1.211,12.125.863,12.872,2.583,18.5,2.92,19.5l.081.243-.045.252c-.548,3.066-1.369,7.9-2.168,13.544l-.157,1.111c-1.293,9.147-1.293,9.147-4.674,20.37l-.2.673c-3.513,11.662-4.184,31.78-3.96,39.7a21.2,21.2,0,0,0,2.828,10.469l.306.45-.21.5c-.057.14-1.4,3.6,2.7,6.235l1.485.953-2.564,1.272a86.074,86.074,0,0,0-11.758,11.768l-.659.858c-4.409,5.751-8.217,10.718-23.743,17.454-3.456,1.5-6.184,2.649-8.452,3.6-8.154,3.433-10.345,4.355-19.4,10.319-13.848,9.116-29.106,12.191-39.468,13.165C564.7,1908.18,562.547,1908.293,560.6,1908.293Zm822.531-682.076a278.481,278.481,0,0,0,4.222-31.556c.182-2.882.369-5.931.564-9.126.706-11.549,1.507-24.639,2.665-38.886l.061-.74,186.665-40.184.094,1.132c1.861,22.1,3.619,46.311,5.225,71.952l.053.838-199.824,48.08Zm20.458-170.613c8.362-38.44,22.09-86.572,33.906-107.45,10.581-18.693,10.538-19.083,10.127-22.818a34.78,34.78,0,0,1-.253-4.711l.012-.824c.125-9.128.155-11.3-7.922-28.753a147.976,147.976,0,0,1-6.371-15.953c-2-5.81-3.723-10.828-10.6-22.987-7.2-12.74-12.443-23.591-16.654-32.311-2.7-5.6-5.039-10.435-7.362-14.719-6.082-11.216-30.825-45.171-50.912-69.869-3.957-4.864-7-8.675-9.461-11.745-10.1-12.626-10.1-12.626-22.321-22.055l-.145-.119c-15.481-14.83-24.78-22.895-48.853-37.886-10.2-6.351-19.459-11.42-27.628-15.891-11.549-6.322-21.523-11.782-31.459-19.166-5.978-4.444-11.483-8.443-16.339-11.971-10.542-7.658-15.231-11.1-15.943-12.343-.2-.343-.406-.824-.672-1.433-1.22-2.791-3.493-7.986-8.969-11.205l-2.846-1.673,3.3-.188c1.194-.068,2.359-.1,3.465-.1a47.1,47.1,0,0,1,15.823,2.769,71.966,71.966,0,0,0,8.958,2.351c5.573.907,10.394,1.868,14.718,2.935l.374.092.168.249c7.773,3.154,19.541,13.4,20.976,14.67,1.164.481,9.6,3.992,54.845,23.267,96.416,45.236,150.324,82.634,198.935,138,38.505,43.859,52.087,103.262,66.467,166.153,3.7,16.191,7.53,32.933,11.79,49.2,1.845,8.782,3.667,19.48,5.429,31.843l.132.925-165.043,35.23Z" fill="none" fill-rule="evenodd"></path>
      </g>
      <g id="">
        <path id="" d="M444.275,1270.32l.092-.872c2.706-25.821,8.817-54.8,12.468-72.108.647-3.064,1.211-5.739,1.659-7.939.383-1.88.735-4,1.077-6.49l.151-1.1,212.489,51.212.124,1.685c2.024,27.636,3.936,53.738,7.774,77.892.813,5.117,1.464,9.475,1.991,13.324l.2,1.449Zm20.3-158.922.062-.866c1.067-14.968,2.323-27.754,3.84-39.09,1.115-8.335,2.41-18.282,3.844-29.3.727-5.586,2.423-18.585,2.423-18.585L663.6,1063.936l.044.759c.321,5.467.742,10.923,1.188,16.7.824,10.693,1.759,22.813,2.29,38.272.443,12.881.56,22.947.665,31.829l.044,3.731Z" fill="none" fill-rule="evenodd"></path>
        <path id="" d="M1499.583,1918.984c-4,0-8.152-.228-12.959-.493-3.353-.184-7.152-.393-11.284-.538-18.928-.659-36.716-5.97-47.583-14.206a177.181,177.181,0,0,1-24.73-23.526l-.122-.138-.065-.173a28.39,28.39,0,0,1-1.486-13.057c.051-2.469,1.428-71.2-5-120.825-2.706-20.908-6.749-45.794-11.029-72.141-6.19-38.11-12.593-77.518-15.982-110.945-2.98-29.387-1.209-50,.353-68.192,1.434-16.689,2.671-31.1-.343-47.768-5.569-30.8-8.824-47.151-9.673-48.6a.867.867,0,0,0,.719.354v-.648l-1.1-.051c-.008-1.011,0-2.1.039-3.285.166-5.262.533-11.789.922-18.7.5-8.805,1.007-17.909,1.078-24.294.05-.933.077-1.727.105-2.539.195-5.555.414-11.851,6.909-53.621,1.7-8.254,3.633-16.919,5.686-26.092,5.876-26.266,11.951-53.425,13.31-74.851.184-2.913.373-6,.571-9.227,1.809-29.589,4.286-70.112,11.447-108.928,8.206-44.482,24.711-104.654,38.126-128.352,10.58-18.693,10.537-19.083,10.126-22.818a34.786,34.786,0,0,1-.253-4.712l.011-.823c.126-9.128.156-11.3-7.921-28.753a148.107,148.107,0,0,1-6.371-15.953c-2-5.81-3.723-10.828-10.6-22.987-7.2-12.739-12.443-23.59-16.653-32.309-2.7-5.6-5.04-10.436-7.363-14.721-6.081-11.215-30.825-45.17-50.913-69.869-3.956-4.864-7-8.675-9.461-11.746-10.1-12.625-10.1-12.625-22.321-22.055l-.144-.118c-15.48-14.83-24.779-22.894-48.853-37.886-10.2-6.352-19.46-11.42-27.629-15.891-11.548-6.323-21.523-11.782-31.458-19.166-5.979-4.445-11.485-8.445-16.342-11.973-10.539-7.657-15.228-11.094-15.94-12.341-.2-.343-.4-.825-.673-1.435-1.22-2.79-3.493-7.985-8.968-11.2l-2.846-1.673,3.3-.188c1.193-.068,2.359-.1,3.465-.1a47.1,47.1,0,0,1,15.822,2.769,71.985,71.985,0,0,0,8.959,2.351c5.571.906,10.391,1.867,14.717,2.935l.374.092.168.248c7.772,3.154,19.542,13.4,20.977,14.671,1.164.481,9.6,3.992,54.845,23.267,96.415,45.235,150.323,82.633,198.934,138,38.506,43.859,52.088,103.261,66.468,166.151,3.7,16.192,7.53,32.935,11.79,49.2,5.99,28.524,14.694,91.466,22.2,229.608.155,2.835.262,4.814.323,5.8.327,5.3,1.99,10.616,4.507,18.658a428.018,428.018,0,0,1,11.861,45.352c2.807,25.781.808,37.358-1.958,53.382-1.438,8.325-3.068,17.762-4.267,30.95-3.364,36.981-7.01,87.284-10,138.012-2.982,50.589-12.451,121.4-23.025,172.2-3.369,14.261-5.843,23.9-7.65,30.934-3.638,14.17-4.294,16.724-3.346,22.723,1.006,6.363.049,16.613-.877,26.525-.432,4.617-.877,9.391-1.109,13.635,1.2,16.946-2.239,46.1-5,69.528-.759,6.442-1.477,12.528-2,17.612-2.006,19.3-2,24.534-1.986,29.152,0,.913,0,1.8-.009,2.768a14.7,14.7,0,0,1-2.292,7.356,21.221,21.221,0,0,0-2.459,6.225l-.1.469-.425.218a94.872,94.872,0,0,1-18.477,6.691A63.686,63.686,0,0,1,1499.583,1918.984ZM560.6,1908.293c-7.823,0-10.845-1.88-14.344-4.058l-.7-.433c-4.555-2.809-7.313-4.254-10.659-4.87-1.138-.21-2.513-.463-3.875-.686l-.311-.051-.225-.219-.23-.236c-5.846-3.092-6.222-7.794-6.237-8.748a55.059,55.059,0,0,1-1.666-11.23c0-.28.021-.632.047-1.063.141-2.237.432-6.894-2.216-14.724-2.666-7.081-2.962-9.278-5.263-26.37-.475-3.531-1.037-7.7-1.724-12.694-5.256-23.594-6.637-39.628-7.856-53.774-1.068-12.408-1.991-23.125-5.179-36.666-1.224-5.2-2.755-10.573-4.377-16.263-2.277-7.993-4.632-16.259-6.461-25.142-1.866-9.069-3.405-18.358-5.034-28.194-2.027-12.241-4.124-24.9-6.9-37.047-6.676-29.178-7.719-49.727-8.728-69.6-.288-5.687-.587-11.566-1.015-17.473-.8-11.021-.754-19.609-.708-27.916.061-11.048.118-21.482-2.06-35.318-1.972-12.523-1.76-21.6-1.556-30.371.182-7.834.355-15.233-1.218-24.04-3.4-14.075-3.862-22.56-4.4-32.385-.1-1.855-.207-3.763-.334-5.773-.837-13.173-5.378-45.259-12.467-72.292-2.3-8.768-2.478-22.633-.531-41.209l.119-1.134,237.521,56.938.093.677c2.173,15.885,1.858,20.58,1.38,27.685-.12,1.792-.256,3.822-.358,6.206a202.317,202.317,0,0,0,1.986,36.8,106.782,106.782,0,0,1,1.023,17.887c1.3,1.982,8.463,13.743,5.978,27.477-2.43,13.433-8.96,25.292-9.989,27.1-.211,23.608-.135,59.519.94,62.4.226.608.457,1.17.688,1.733,1.341,3.27,2.728,6.651,3.374,18.569.749,13.8,1.7,53.006,1,64.138-.621,9.8-4,19.98-4.665,21.923l-.074.212-.156.161c-1.427,1.46-13.906,15.186-12.793,47.056.8,22.8,1.794,30.934,2.676,38.108.45,3.658.874,7.114,1.211,12.125.862,12.865,2.583,18.5,2.919,19.5l.082.242-.045.252c-.548,3.061-1.368,7.9-2.168,13.544l-.158,1.111c-1.292,9.146-1.292,9.146-4.673,20.367l-.2.676c-3.514,11.666-4.185,31.782-3.96,39.7a21.2,21.2,0,0,0,2.828,10.469l.306.45-.21.5c-.057.14-1.4,3.6,2.7,6.235l1.484.953-2.563,1.271a86.159,86.159,0,0,0-11.758,11.769l-.659.858c-4.409,5.751-8.217,10.718-23.743,17.454-3.457,1.5-6.184,2.649-8.453,3.6-8.153,3.433-10.344,4.355-19.4,10.319-13.847,9.115-29.106,12.191-39.468,13.165C564.7,1908.18,562.548,1908.293,560.6,1908.293Zm-101.15-724.485.123-.9c1.477-10.734,2.288-25.318,3.227-42.2.54-9.7,1.1-19.733,1.843-30.175l.082-1.149L667.8,1153.174l.009.8c.193,16.255.471,29.475,2.3,51.674.8,9.7,1.517,19.479,2.15,28.11l.1,1.366Zm15.04-158.261.119-.915c6.753-51.621,14.639-109.5,21.934-147.364,14.424-52.725,30.14-71.744,91.1-130.222,51.323-49.23,99.989-72.9,132.193-88.565,6.006-2.921,11.679-5.68,16.623-8.244,30.055-15.581,65.29-35.128,67.871-36.561a71.107,71.107,0,0,1,11.4-10.078l.084-.358.489-.191c2.1-.823,4.841-1.934,8.069-3.244,1.682-.682,3.5-1.419,5.424-2.2,7-2.826,14.683-4.065,20.291-4.97,2.375-.383,4.426-.714,5.847-1.074a21.54,21.54,0,0,1,5.029-.619,13.924,13.924,0,0,1,4.574.653l2.435.924-2.428.943a17.688,17.688,0,0,0-9.4,11.346l-.08.28-.218.193c-5,4.45-8.56,7.959-12,11.352a215.092,215.092,0,0,1-25.072,21.71c-4.113,3.1-8.374,6.188-12.885,9.453-17.574,12.725-37.494,27.147-61.023,51.464-17.369,18.954-27.837,36.734-38.92,55.557-6.542,11.112-13.307,22.6-21.992,35.34-23.335,34.222-41.825,62.416-49.889,87.767-7.911,24.869-9.982,52.884-5.06,68.237l.823,1.029c4.665,5.821,6.236,7.782,12.232,25.134,4.445,12.867,11.51,24.368,15.732,31.24a41.628,41.628,0,0,1,3.279,5.788,7.808,7.808,0,0,0,.421,1c1.017,2.133,2.171,4.551,1.629,28.342-.194,8.5-.033,16.522.523,26l.077,1.312Z" fill="none" fill-rule="evenodd"></path>
      </g>
      <g id="">
        <path id="" d="M1499.6,1918.984c-4,0-8.153-.228-12.959-.493-3.353-.184-7.154-.393-11.286-.538-18.926-.659-36.715-5.97-47.584-14.206a177.165,177.165,0,0,1-24.731-23.526l-.122-.138-.065-.173a28.391,28.391,0,0,1-1.486-13.057c.053-2.477,1.428-71.205-4.995-120.825-2.707-20.909-6.75-45.8-11.031-72.145-6.191-38.109-12.593-77.515-15.983-110.941-2.979-29.388-1.209-50,.354-68.194,1.433-16.688,2.671-31.1-.343-47.766-5.569-30.8-8.824-47.15-9.674-48.6a.872.872,0,0,0,.72.354v-.651l-1.1-.047c-.009-1.011,0-2.105.039-3.286.166-5.264.533-11.793.921-18.706.5-8.8,1.007-17.9,1.078-24.286.049-.933.077-1.725.105-2.537.194-5.554.414-11.848,6.909-53.623,1.7-8.25,3.633-16.91,5.684-26.078,5.877-26.27,11.955-53.435,13.313-74.865.185-2.906.372-5.982.57-9.207,1.808-29.594,4.285-70.122,11.449-108.948,8.206-44.483,24.711-104.654,38.127-128.352,10.581-18.694,10.538-19.084,10.126-22.818a34.947,34.947,0,0,1-.253-4.711l.012-.827c.125-9.127.155-11.295-7.922-28.75A147.979,147.979,0,0,1,1433.1,875.1c-2-5.811-3.724-10.829-10.6-22.988-7.2-12.739-12.443-23.59-16.653-32.309-2.7-5.6-5.04-10.436-7.364-14.721-6.086-11.222-30.83-45.176-50.915-69.869-3.956-4.863-7-8.674-9.46-11.744-10.1-12.627-10.1-12.627-22.321-22.055l-.145-.12c-15.481-14.83-24.781-22.894-48.855-37.886-10.2-6.351-19.46-11.419-27.629-15.891-11.55-6.322-21.524-11.782-31.46-19.166-5.973-4.44-11.475-8.437-16.329-11.963-10.549-7.663-15.242-11.1-15.954-12.352-.195-.342-.4-.824-.673-1.434-1.221-2.79-3.493-7.985-8.969-11.2l-2.845-1.673,3.3-.187c1.194-.069,2.359-.1,3.464-.1a47.105,47.105,0,0,1,15.824,2.768,71.985,71.985,0,0,0,8.959,2.351c5.579.907,10.4,1.869,14.718,2.936l.371.091.168.248c7.775,3.154,19.544,13.4,20.98,14.671,1.164.481,9.6,3.992,54.847,23.267,96.42,45.236,150.329,82.635,198.941,138,38.506,43.859,52.089,103.261,66.469,166.151,3.7,16.192,7.531,32.935,11.791,49.2,5.99,28.525,14.694,91.468,22.2,229.61.154,2.834.262,4.812.322,5.8.327,5.3,1.99,10.616,4.508,18.658a428.33,428.33,0,0,1,11.86,45.352c2.808,25.781.809,37.357-1.958,53.381-1.437,8.325-3.066,17.762-4.265,30.951-3.365,36.965-7.01,87.269-10,138.012-2.985,50.592-12.453,121.4-23.027,172.2-3.369,14.262-5.843,23.9-7.65,30.935-3.638,14.17-4.293,16.723-3.346,22.722,1.006,6.365.048,16.617-.878,26.532-.431,4.616-.877,9.387-1.108,13.628,1.2,16.943-2.237,46.089-5,69.514-.761,6.448-1.479,12.539-2.008,17.626-2.007,19.3-2,24.535-1.986,29.153,0,.913,0,1.8-.01,2.768a14.7,14.7,0,0,1-2.292,7.355,21.277,21.277,0,0,0-2.459,6.225l-.1.469-.424.218a95.05,95.05,0,0,1-18.478,6.691A63.691,63.691,0,0,1,1499.6,1918.984Zm-939.017-10.691c-7.822,0-10.843-1.88-14.342-4.057l-.7-.434c-4.556-2.808-7.313-4.253-10.661-4.87-1.136-.21-2.512-.463-3.874-.686l-.313-.052-.226-.22s-.207-.213-.227-.235c-5.846-3.091-6.223-7.794-6.237-8.747a55.059,55.059,0,0,1-1.666-11.23c0-.28.02-.632.048-1.063.139-2.237.43-6.894-2.217-14.724-2.667-7.082-2.963-9.279-5.264-26.373-.475-3.531-1.037-7.7-1.723-12.69-5.256-23.6-6.637-39.629-7.856-53.775-1.069-12.408-1.992-23.124-5.18-36.665-1.224-5.2-2.754-10.571-4.375-16.259-2.279-7.995-4.634-16.262-6.463-25.147-1.867-9.07-3.406-18.361-5.035-28.2-2.027-12.239-4.124-24.9-6.9-37.043-6.676-29.177-7.719-49.726-8.727-69.6-.289-5.686-.587-11.566-1.016-17.473-.8-11.022-.753-19.611-.708-27.918.061-11.047.118-21.481-2.06-35.316-1.972-12.524-1.76-21.6-1.556-30.372.183-7.834.355-15.232-1.218-24.039-3.4-14.077-3.862-22.563-4.4-32.389-.1-1.854-.206-3.761-.334-5.769-.838-13.175-5.38-45.261-12.468-72.292-6.632-25.291,5.907-84.728,11.933-113.292.648-3.074,1.215-5.759,1.664-7.964,2.2-10.8,3.174-28.346,4.3-48.669,1.194-21.492,2.548-45.852,5.683-69.29,1.115-8.332,2.409-18.271,3.842-29.281,6.632-50.957,15.715-120.744,24.218-164.893,14.426-52.725,30.143-71.744,91.11-130.222,51.323-49.229,99.991-72.9,132.195-88.564,6.006-2.921,11.68-5.681,16.626-8.245,30.057-15.582,65.3-35.131,67.871-36.561a71.158,71.158,0,0,1,11.4-10.078l.084-.358.488-.191c2.1-.821,4.829-1.929,8.047-3.235,1.689-.685,3.512-1.424,5.448-2.206,7-2.827,14.684-4.066,20.293-4.97,2.374-.383,4.424-.714,5.844-1.074a21.555,21.555,0,0,1,5.03-.619,13.913,13.913,0,0,1,4.574.654l2.434.923-2.427.944a17.684,17.684,0,0,0-9.4,11.345l-.079.28-.218.193c-5,4.448-8.559,7.957-12,11.349a214.729,214.729,0,0,1-25.076,21.713c-4.112,3.1-8.372,6.187-12.882,9.452-17.575,12.725-37.5,27.147-61.027,51.465-17.369,18.954-27.837,36.733-38.92,55.556-6.543,11.113-13.308,22.6-21.994,35.341-23.335,34.223-41.827,62.417-49.89,87.767-7.911,24.868-9.984,52.882-5.06,68.237l.825,1.032c4.664,5.821,6.235,7.782,12.229,25.132,4.445,12.863,11.51,24.364,15.731,31.235a41.611,41.611,0,0,1,3.282,5.793,7.71,7.71,0,0,0,.42,1c1.018,2.133,2.171,4.551,1.629,28.342-.36,15.836.6,28.283,1.711,42.7.825,10.693,1.759,22.814,2.29,38.273.444,12.916.562,23.005.666,31.907.188,16.135.351,30.07,2.333,54.072.8,9.753,1.525,19.583,2.222,29.089,2.023,27.628,3.935,53.724,7.773,77.87,4.306,27.1,3.954,32.332,3.371,41.006-.12,1.792-.257,3.823-.359,6.209a202.384,202.384,0,0,0,1.986,36.8,106.818,106.818,0,0,1,1.024,17.887c1.294,1.982,8.463,13.743,5.978,27.478-2.431,13.433-8.962,25.293-9.99,27.1-.212,23.608-.135,59.518.94,62.4.226.608.457,1.17.688,1.733,1.341,3.27,2.728,6.651,3.375,18.569.748,13.8,1.7,53.013,1,64.138-.618,9.8-3.994,19.98-4.665,21.923l-.073.212-.157.161c-1.426,1.46-13.9,15.185-12.793,47.056.8,22.8,1.795,30.93,2.677,38.1.449,3.66.874,7.117,1.21,12.13.864,12.873,2.585,18.5,2.92,19.5l.082.243-.045.252c-.549,3.067-1.37,7.907-2.168,13.544l-.157,1.111c-1.293,9.147-1.293,9.147-4.674,20.37l-.2.673c-3.515,11.669-4.186,31.783-3.96,39.7a21.2,21.2,0,0,0,2.828,10.469l.305.45-.21.5c-.056.14-1.4,3.6,2.7,6.235l1.485.953-2.564,1.272a86.146,86.146,0,0,0-11.757,11.768l-.66.858c-4.409,5.751-8.216,10.718-23.743,17.454-3.456,1.5-6.184,2.649-8.452,3.6-8.154,3.433-10.346,4.355-19.406,10.319-13.848,9.115-29.107,12.191-39.47,13.165C564.686,1908.18,562.532,1908.293,560.582,1908.293Z" fill="#FFFFFF" fill-rule="evenodd"></path>
      </g>
    </g>
    <g id="" link="body">
      <g id="">
        <path id="" d="M1116.962,1889.922c-4.608,0-9.631-.294-16.8-.982l-4.455-.428c-16.6-1.6-21.6-2.081-48.523-3.57-20.744-1.146-31.138-2.53-37.348-3.356-2.469-.329-4.254-.566-5.668-.645-.324-.018-.771-.026-1.325-.026-7.633,0-37.037,1.692-47.511,3.021-8.56,1.085-29.407,1.427-47.8,1.729-5.581.091-10.848.178-15.326.279-8.638.2-16.091.286-23.455.286-7.25,0-14.31-.085-23.606-.286q-.81-.016-1.6-.017a113.018,113.018,0,0,0-12.926.9,119.53,119.53,0,0,1-13.65.94,95.253,95.253,0,0,1-18.011-1.841,169.951,169.951,0,0,1-19.409-4.914c-7.678-2.334-13.225-4.022-25.423-4.072q-1.821-.006-3.577-.006c-4.079,0-7.88.026-11.36.049-2.945.021-5.661.039-8.124.039-8.091,0-13.2-.191-15.361-1.17-3.128-1.417-3.6-5.6-3.623-7.733a17.713,17.713,0,0,1-2.129.132c-4.383,0-7.5-1.756-8.769-4.944a30.423,30.423,0,0,1-1.526-6.646c-.653-4.276-1.216-7.969-4.764-8.753a52.782,52.782,0,0,0-10.628-1.023c-3.614,0-6.568.359-7.71.938-1.773.9-3.739,1.878-4.925,2.467l-.508.252-.477-.306c-4.055-2.6-4.214-6.232-3.646-8.185a23.7,23.7,0,0,1-2.9-11.1c-.229-8.018.458-28.427,4.044-40.329l.2-.67c3.337-11.081,3.337-11.081,4.609-20.074l.158-1.114c.8-5.664,1.628-10.531,2.179-13.616l.149-.01c.685-2.554,8.847-33.312,7.157-42.718-1.9-10.587-3.093-41.332-2.236-57.714.646-12.348,1.08-16.148,1.361-17.411l-.173-.107a90.487,90.487,0,0,0,4.559-21.4c.7-11.064-.254-50.141-1-63.9-.629-11.581-1.95-14.8-3.229-17.919-.239-.582-.477-1.164-.711-1.792-1.555-4.17-1.118-57.33-1.064-63.378l0-.269.136-.231c.073-.123,7.318-12.515,9.881-26.678,2.519-13.925-5.757-26.142-5.841-26.264l-.186-.268.009-.328c0-.105.294-10.54-.986-17.8-1.426-8.108-2.57-24.248-2.014-37.229.1-2.41.241-4.454.362-6.256.573-8.535.92-13.685-3.352-40.558-3.851-24.231-5.765-50.367-7.792-78.038-.7-9.5-1.415-19.327-2.22-29.071-1.988-24.074-2.151-38.04-2.34-54.214-.1-8.891-.221-18.968-.665-31.862-.529-15.416-1.462-27.514-2.285-38.188-1.115-14.465-2.079-26.958-1.716-42.894.531-23.315-.605-25.7-1.435-27.436a9.614,9.614,0,0,1-.517-1.241,47.705,47.705,0,0,0-3.084-5.366c-4.264-6.941-11.4-18.558-15.917-31.629-5.881-17.023-7.4-18.916-11.9-24.534l-1.054-1.32-.056-.171c-5.112-15.678-3.056-44.313,5-69.635,8.146-25.609,26.715-53.928,50.144-88.288,8.648-12.683,15.4-24.144,21.922-35.228,11.138-18.916,21.658-36.784,39.188-55.913,23.672-24.464,43.668-38.941,61.311-51.714,4.5-3.26,8.753-6.338,12.85-9.428a213.288,213.288,0,0,0,24.877-21.541c3.409-3.361,6.933-6.836,11.859-11.228A19.487,19.487,0,0,1,864.57,591.7l.015-.29c9.382-1.525,20.611-2.706,47.564-3.881,15.228-.663,27.843-1.533,38.974-2.3,13.855-.955,24.8-1.71,35.258-1.71.619,0,2.727.015,3.189.015,5.089,0,12.006-.228,20.015-.493,11.247-.37,25.244-.832,39.775-.832a421.578,421.578,0,0,1,48.012,2.326c19.3,2.231,34.531,3.171,46.771,3.926,10.077.622,18.037,1.113,23.842,2.1l.232.039.189.138c4.876,3.549,7.02,8.434,8.17,11.058.234.532.435.991.577,1.241.621.994,7.467,5.966,15.392,11.724,4.858,3.529,10.364,7.529,16.348,11.976,9.824,7.3,19.742,12.731,31.227,19.017,8.192,4.484,17.478,9.567,27.725,15.948,24.214,15.077,33.581,23.2,49.142,38.1,12.436,9.592,12.449,9.608,22.685,22.408,2.453,3.066,5.5,6.873,9.448,11.731,20.147,24.766,44.99,58.87,51.122,70.177,2.346,4.326,4.691,9.181,7.4,14.8,4.2,8.693,9.423,19.512,16.594,32.2,6.966,12.319,8.719,17.418,10.748,23.321a146.688,146.688,0,0,0,6.3,15.763c8.269,17.868,8.235,20.357,8.107,29.618l-.011.824a33.123,33.123,0,0,0,.241,4.467c.488,4.43.273,5.214-10.374,24.022-13.312,23.516-29.724,83.41-37.9,127.73-7.142,38.706-9.615,79.165-11.42,108.707-.2,3.227-.385,6.3-.57,9.212-1.369,21.586-7.463,48.827-13.357,75.172-2.049,9.16-3.985,17.812-5.668,26-6.469,41.611-6.686,47.842-6.878,53.339-.029.824-.058,1.629-.105,2.531-.071,6.387-.583,15.511-1.079,24.334-.389,6.9-.755,13.418-.92,18.657-.038,1.14-.041,2.169-.034,3.146v.059l-.006.06c-.506,4.494-.606,115.177,3.039,182.71,3.118,57.81,12.6,122.2,19.53,169.213,1.253,8.509,2.427,16.473,3.469,23.761,6.767,47.327,7.009,68.942,7.011,69.155-.014.382-.37,8.261-3.812,12.358l-.212.252-.321.077a47.709,47.709,0,0,1-9.628,1.326,66.613,66.613,0,0,0-10.433.889c-1.237,1.843-3.779,6.26-3.605,9.051.339,5.42-3.672,14.572-15.882,16.06l-.091.011-.091-.006c-2.938-.177-5.3-.259-7.422-.259a115.38,115.38,0,0,0-14.5,1.14c-2.71.319-5.912.7-9.925,1.116l-4.274.456c-8.585.918-14.788,1.582-20.717,1.582a72.188,72.188,0,0,1-12.293-1.045c-2.658-.449-4.848-.843-6.69-1.174a53.092,53.092,0,0,0-8.319-1.162,10.227,10.227,0,0,0-2.588.319c-.157.038-15.926,3.9-42.214,5.03-5.482.235-12.105.348-20.25.348-8.359,0-17.219-.117-25.787-.231-8.206-.11-15.957-.213-22.964-.213-3.873,0-7.16.032-10.048.1-6.623.15-11.321.4-15.1.61S1120.434,1889.922,1116.962,1889.922Z" fill="#FFFFFF" fill-rule="evenodd"></path>
      </g>
    </g>
  </g>
  <g id="">
    <g id="">
      <rect x="725.593" y="820.865" width="608.129" height="912.194" fill="none"></rect>
    </g>
  </g>
<image class="background-product" width="2048" height="2048" xlink:href="https://media.reformclothing.com/design_lab/ysd-products/R1071_Hoodie/R1071_Hoodie_Fleece_Back_A_2048.png"></image>
<image width="2048" height="2048" class="decoration__preview-image" xlink:href="https://rendering.documents.cimpress.io/v1/dcl/preview?format=png&amp;width=2048&amp;instructions_uri=https%3A%2F%2Fuds.documents.cimpress.io%2Fv3%2Finstructions%3Apreview%3FdocumentUri%3DrZPBjtMwEED%252FJeedxm5sZ9zjViAhwYECJ8TBHo830TZNFadFq6r%252FznRhBVpYIVBPHs%252FYM09P9qk68lT6cVetquVCVTdVuT9IvH7zDvSr9%252B7Wb9aSzONu3vB%252BLP08Tg%252Bfpq0c6eZ5X1Z1famVRRrpMPAlon7YT1zKoh%252Fro66np2s9l7p13qJCBGqTBZOyBzQ%252BgCH0xvssa6z3h7jtS8dJBj%252B1rVanqhymHIhLtfp8qvokCITKsrEMOUQHRoUGovcKWm1NDkl57Z002YWB5fRGq1a%252FngR3LR15ksrXPs2dlBqlhkH2Hfd33XxxYb8nEtM4hVkEfWTqduN2vHuQcrkgDo%252F56nzzg8ajC2hbBOVQaDQqQB0RsFE%252BRx214ec0H7bMR948Dv1Jo5sr0GQbrDUqAVEmMKZpILSYIOfWsSNLjtuXaZa%252F4OAzmv%252BAwYbtkmQ6Ja3BOLESsdHgWpfMsnFLHf6s5i3nq5tRxpsgLiBFeX%252FGKQsBmUBn5MCRIlp6EebaYjzZGDKD0xzB8OVDkENgL6aC8bn5TcxtoPu%252FP2DzDzBfzudv&amp;scene=https://scene.products.cimpress.io/v1/scenes/d3b14a1c-8905-416f-a5e6-6dd636684207"></image>

 <text class="svgText" x="51%" y="57%" dominant-baseline="middle" text-anchor="middle" font-size="60" fill="#c82d2d"></text>
 <image class="custom-logo" href="https://cdn.shopify.com/s/files/1/0904/5262/3636/files/preview-removebg-preview.png" x="46%" y="45%" width="200" height="200"></image>
</svg>