<svg id="R1071_Hoodie_Side_A" class="sleeve-left" xmlns="http://www.w3.org/2000/svg" xmlns:xlink="http://www.w3.org/1999/xlink" viewBox="0 0 2048 2048" width="2048" height="2048"><g id="custom-color-swatches"><g id="Group_R1071_Rib" link="rib"><g id="Pattern_R1071_Rib_001"><path id="Option_R1071_Rib_001_3" d="M976.37,1917.58c-2.79-.05-5.56-.33-8.3-.85-7.45-1.32-33.55-9.91-44.29-13.88-9.86-3.64-36.32-17.47-46.12-24.6-5.77-4.19-10.58-9.57-14.08-15.78l-.31-.53,.33-.51c1.13-1.78,1.91-3.12,2.45-4.19l.31-.62c3.42-6.85,6-12.53,7.81-16.91-7.17-2.31-15.82-6.64-19.61-8.54l-.58-.29c-4.87-2.43-17.41-12.9-21.42-16.38-2.71-2.11-5.75-3.75-9-4.86l-.52-.2-.59-3.15c-1-5.26-1.85-10.07-2.5-13.74-.21-1.23-.53-2.82-.93-4.72l-.37-1.72,1.67,.57c7.55,2.58,14.23,5.87,18.35,9,5.51,4.2,18,12.49,27.89,16.86,3.14,1.38,7.09,2.92,11.73,4.58l.65,.24,.11,5.35v3.34c0,1-.06,1.94-.1,2.82v.17c0,.42,0,.83-.09,1.22v.12c0,.41-.07,.75-.1,1.08v.13c0,.35-.09,.67-.14,1v.15c-.07,.37-.12,.67-.19,.94-.51,1.97-1.15,3.89-1.92,5.77l-.08,.21c.95,4.06,2.78,9.15,8.24,13.1,8.19,5.93,35,21,45.1,24.45,2.66,.91,5.07,1.76,7.35,2.57,6.42,2.28,12,4.25,19.5,6.19,2,.51,4.43,1.26,7.26,2.14,7.88,2.45,17.69,5.49,24.91,5.49,1.78,.05,3.56-.22,5.24-.8l2.89-1.14-1.69,2.61c-3.78,5.87-9.18,14.51-13.42,22.35l-.22,.4-.44,.1c-1.57,.34-3.17,.49-4.78,.46h0Zm211.9-69.73c-12.88,0-26.82-.19-39.12-.36-10-.14-18.65-.26-25.16-.26-19,0-45.15-.25-62.12-1.46-4.78-.35-10-.51-15.95-.51-3.65,0-7.63,.06-12.17,.2h-1.35l.42-1.52c.08-.25,.14-.5,.19-.75l.39-2c1.08-5.58,2.09-10.84,3.51-14.33,.41-1,1.19-3,2.11-5.32l.24-.6h.65c6.48-.3,11.38-.51,15.36-.51,2.18,0,3.91,.07,5.3,.2l2.09,.21c3.91,.38,4.23,.41,15.11,.67h4c4.31,0,9.84-.1,15.69-.21,7-.13,15-.29,22.55-.29s13.58,.16,18.41,.47c16,1,53.56,3,68.4,3h2.63c11.16-.28,44.37-3.12,52.94-6.37,3.54-1.34,10.42-3.63,17.07-5.84l3.06-1-.59,1.87c0,.12-3.66,11.49-7.83,23.69l-.13,.41-.39,.18c-16.65,7.7-41.58,9.47-61.44,10.15-6.4,.18-14.2,.28-23.87,.28h0Z" fill="none"></path><path id="Option_R1071_Rib_001_2" d="M971.21,1938c-2.53-.05-5.06-.25-7.57-.61l-2.19-.26c-4.09-.44-15.24-4.11-25.08-7.35-5.28-1.75-10.28-3.39-13.51-4.31-9.41-2.69-37.68-16.65-48.33-23.39-9.07-5.74-17.88-13.08-23-19.17l-.5-.59,.45-.63c1.89-2.67,3.9-5.76,4.46-8.39v-.25l.17-.19c1.1-1.31,2.06-2.72,2.86-4.23,.08-.14,.16-.3,.25-.47l.38-.64,.36-.59,.41-.65c.41-.64,.87-1.33,1.35-2.07,.59-.9,1.22-1.85,1.83-2.8l.87-1.38,.83,1.41c3.37,5.97,7.99,11.15,13.54,15.17,9.69,7,35.87,20.74,45.63,24.35,10.42,3.85,36.73,12.51,43.95,13.78,2.64,.5,5.31,.78,8,.82,1.43,.02,2.85-.12,4.24-.43l2.16-.49-1,1.94c-3.2,5.93-5.21,10.43-6,13.39-.54,2.07-1.06,4.41-1.59,7.15l-.15,.75-.77,.06c-.67,.07-1.35,.07-2.05,.07h0Zm17.49-42.44c-7.52,0-17.5-3.09-25.51-5.58-2.8-.87-5.22-1.62-7.15-2.12-7.64-2-13.22-3.94-19.68-6.23-2.28-.81-4.67-1.66-7.33-2.57-10.6-3.64-37.3-18.69-45.62-24.72-4-2.86-6.92-6.97-8.31-11.68-2.66,6.25-6,13-7.26,15.45l-1.17,2.17-.88-.47c-6.49-3.45-17-10-20.9-13.35-.86-.73-2.07-1.73-3.5-2.9-4.15-3.41-9.8-8-14-12.22-.44-.1-.53-.56-.9-2.67-.73-4.14-2.44-13.82-3.55-19.8l-.32-1.75,1.66,.63c3.48,1.19,6.73,2.95,9.62,5.22,4,3.43,16.32,13.76,21,16.1l.58,.3c3.77,1.88,12.39,6.2,19.43,8.45,.6-1.51,1.1-3.06,1.51-4.64,.57-3.46,.78-6.97,.63-10.47v-3.63l1.88,3.11c2.4,4.23,5.56,7.99,9.31,11.08,4.11,3.18,11.27,6,18.19,8.67,4.33,1.68,8.8,3.42,12.59,5.28,4.33,2.32,8.45,4.99,12.33,8,5.71,4.15,11.11,8.06,16.43,9.3,4.33,.96,8.73,1.59,13.16,1.86,3.24,.2,6.46,.6,9.65,1.21,2.08,.43,5.35,1.45,9.13,2.63,4.83,1.51,10.31,3.21,15.43,4.38,3.08,.79,6.23,1.24,9.41,1.34,.74,0,1.47-.05,2.2-.16l2.6-.42-1.66,2c-4.23,5.18-8.53,10.82-8.57,10.87h0s-1.6,2.39-3.94,6l-.17,.27-.3,.12c-1.93,.69-3.97,1.02-6.02,.96v-.02h0Zm176.3-26.19c-16.13,0-49-1.14-75.31-2.06-18-.62-33.62-1.16-38.83-1.16-8.77,0-19.69,.63-27.31,1.15-2.64,.19-5.21,.38-7.63,.58l-2.17,.17,1.39-1.91,.07-.05c1.45-1.45,3.12-3.21,5-5.23l1.91-2.11,1.19-1.33h.44c2.52,0,3.17-.72,3.5-1.46,.39-.74,.66-1.54,.82-2.36-.45-.7-.4-1.61,.13-2.25l.64-.72c1.83-1.78,3.18-4,3.91-6.44l.2-.71h.74c4.55-.14,8.55-.2,12.22-.2,6,0,11.27,.17,16.09,.51,16.91,1.21,43,1.46,62,1.46,6.52,0,15.17,.12,25.18,.26,12.3,.17,26.23,.36,39.1,.36,9.65,0,17.43-.1,23.78-.32,19.68-.68,44.35-2.43,60.67-10l2.12-1-.76,2.21c-2.55,7.49-4.76,13.68-6.77,18.93l-.12,.32-.28,.17c-8.15,5.1-18.81,8.5-26.33,10.46-9.08,2.37-24.77,2.69-38.92,2.69h-22.93c-3.57,0-6.63,0-9.28,.08-1.29-.05-2.77-.04-4.46-.04h0Zm41.77-42.89c-14.88,0-52.52-1.92-68.53-3-4.79-.31-10.77-.46-18.28-.46s-15.48,.15-22.51,.29c-5.86,.11-11.4,.21-15.73,.21h-4c-11-.26-11.28-.29-15.25-.68l-2.08-.21c-1.34-.12-3-.19-5.12-.19-3.93,0-9,.22-15.27,.51l-1.54,.07,.56-1.44c2.77-7,6.09-15.45,6.83-17.55,.18-.49,.54-1.41,1-2.6l.22-.58h.63c1.41-.11,2.64-.19,3.72-.26,1.72-.02,3.44-.22,5.12-.57,3.22-.92,6.78-1,10.91-1h.6c1.73,0,3.38,.06,5.12,.13,2.08,.08,4.24,.16,7,.16h9.42c10.56,0,28.57,.07,34.89,.24,3.31,.09,10.64,.74,19.13,1.49,11.86,1,25.3,2.24,31.55,2.24,2.44,0,6.5,0,11.39,.1,7.48,.09,16.78,.19,25.34,.19,12.69,0,20.36-.24,22.79-.71,4.56-.81,9.07-1.9,13.5-3.26,5.63-1.81,11.46-2.93,17.36-3.34l3.42-.19c5.11-.28,8.48-.46,11.45-1.51,.49-.18,1.12-.38,1.84-.61,1.29-.41,2.89-.93,4.63-1.58l1.93-.72-2.51,7.84c-1.39,4.35-2.86,9-4.37,13.65l-.16,.49-1.67,.55c-6.63,2.21-13.5,4.49-17,5.82-8.77,3.32-42.34,6.22-53.6,6.5-.79-.03-1.69-.02-2.7-.02h-.03Zm-329.18-7.48c-4.68-1.68-8.67-3.24-11.85-4.64-10.09-4.44-22.72-12.84-28.3-17.1-4-3-10.44-6.18-17.79-8.7l-.53-.18-.12-.56c-1.06-5-2.74-12.13-5-21.15l1.13-.28,.2-.66,.85,.26c7.74,2.44,17.36,5.47,24.33,10.42,3.32,2.36,6.12,4.12,8.58,5.68,3.41,1.97,6.6,4.29,9.53,6.92,.62,.59,1.14,1.15,1.65,1.69,2.46,2.65,4.41,4.74,15.14,6l.7,.08,.16,.68c.4,1.5,.96,2.95,1.67,4.32l.09,.18,.13,1.8c.38,5.4,.63,10.19,.76,14.28l.05,1.47-1.38-.51h0Z" fill="none"></path><path id="Option_R1071_Rib_001_1" d="M960.65,1960.23c-12.27,0-34.32-8.1-65.92-21.17-16.9-7-50.93-30.61-51.25-43.27-.08-3,2.85-7,5.95-11.25,.69-.94,1.38-1.88,2.05-2.83l.74-1,.84,1c5,5.94,13.63,13.13,22.54,18.76,10.55,6.68,38.53,20.5,47.81,23.15,3.27,.94,8.28,2.59,13.59,4.34,9.74,3.21,20.78,6.85,24.66,7.27,.71,.07,1.46,.16,2.22,.26,2.43,.34,4.88,.54,7.33,.59,.65,0,1.29,0,1.89-.07l1.31-.09-.25,1.28c-.43,2.18-.82,4.34-1.18,6.39-1.56,8.78-2.56,13.81-4.78,15.08-2.34,1.17-4.94,1.7-7.55,1.56h0Zm187.17-68.81c-9.44,0-16.39-.1-20.65-.29-17-.74-69.55-2.34-79.13-2.34s-49.36-.14-49.76-.14h-2l1.22-1.6s3.42-4.49,7.15-9.12h-.13c-3.32-.1-6.63-.57-9.85-1.39-5.2-1.19-10.72-2.91-15.58-4.42-3.74-1.17-7-2.17-9-2.58-3.11-.59-6.25-.98-9.41-1.18-4.52-.28-9.02-.91-13.44-1.9-5.72-1.33-11.53-5.55-17.16-9.63-3.78-2.92-7.79-5.53-12-7.79-3.72-1.81-8.15-3.54-12.43-5.21-7.06-2.75-14.36-5.59-18.69-8.94-3.95-3.24-7.27-7.19-9.8-11.63l-.16-.26v-.27c0-5.3-.37-12.18-1-20.45l1.89-.52c.5,1,1.06,2,1.69,3,3.38,5.27,8.48,10.12,12.68,12.07,4.4,2,10.92,3,16.16,3.76h.24c3.77,.55,9.41,2.82,16.76,6.75,1.11,.6,4.15,2.6,8,5.13,7.44,4.89,17.61,11.58,21.31,13,9.28,3.67,21.19,4.26,29.08,4.65,3.22,.16,5.77,.29,7.53,.56,3.82,.76,7.6,1.72,11.32,2.89,4.46,1.29,9.07,2.63,11.92,2.94l2.88,.34c2.01,.29,4.04,.47,6.07,.54h2.43l-1.5,1.69c-1.34,1.51-3.68,4.11-6.07,6.59,1.62-.12,3.29-.25,5-.36,7.65-.53,18.63-1.16,27.45-1.16,5.25,0,20.84,.54,38.9,1.16,26.35,.92,59.14,2.06,75.24,2.06h4.38c2.66,0,5.71-.08,9.32-.08h22.93c14,0,29.55-.31,38.42-2.62,10.58-2.76,19.49-6.29,25.77-10.22l2.53-1.58-1.07,2.78c-3.86,10.13-6.78,16.33-8.93,19-11.07,13.54-50.28,15.79-51.94,15.88-6.05,.34-36.7,.89-58.57,.89h0Zm-291.82-17.56c-.48-1.38-4-4.67-7.81-8.16-7.89-7.31-18.71-17.32-19.9-25.77-.36-2.52-.84-5.6-1.48-9.4l-.52-3.08,2.21,2.2c4.19,4.18,10,8.92,14.18,12.38,1.44,1.18,2.67,2.19,3.53,2.93,3.44,3,13.42,9.32,20.54,13.11l.91,.48-.5,.89c-1.07,1.89-2.47,4-3.7,5.9-1.12,1.7-2.18,3.3-2.63,4.2-.88,1.65-1.93,3.2-3.13,4.63l-1.13,1.33-.57-1.64h0Zm355.89-68.34c-8.57,0-17.88-.1-25.36-.19-4.89,0-8.93-.1-11.37-.1-6.34,0-19.82-1.19-31.72-2.24-8.46-.75-15.77-1.4-19-1.49-6.29-.17-24.28-.24-34.83-.24h-9.42c-2.77,0-5-.08-7.05-.16-1.72-.07-3.35-.13-5-.13h-.58c-4.15,0-7.42,.06-10.38,.91-1.82,.4-3.68,.62-5.55,.65-1.07,.07-2.29,.14-3.69,.25l-1.59,.13,.58-1.49c2.06-5.2,6.31-15.62,7.57-18.69,.46-1.16,1.58-1.91,2.82-1.9,4,0,17.53,.17,22.52,.36,2.22,.08,5.16,.12,9.26,.12h12.8c1.26,0,4,0,7.39-.11,6.46-.12,16.23-.3,24.94-.3,10.15,0,16.48,.23,19.35,.72l2,.34c8,1.37,24.48,4.22,38.41,4.22h2.57c9.24-.26,16.09-.74,21.59-1.12,4-.28,7.12-.5,10-.56h4.53c1.5,0,3.13,.07,4.79,.07,3.36,0,13.6,0,15-3.91,1.27-3.6,1.08-4.43,1.07-4.46-.13-.31-.09-.66,.1-.94l.27-.42h.55c.8-.13,1.6-.18,2.41-.15,1,0,2.19,0,3.56,.07,1.73,0,3.68,.09,5.7,.09,3.32,.07,6.64-.17,9.91-.72,7-1.43,19.2-5.85,19.32-5.89l1,1.66c-.95,1.18-5.47,15.3-8.18,23.74l-.14,.46-.46,.17c-1.78,.66-3.41,1.19-4.71,1.61-.71,.22-1.32,.42-1.79,.59-3.24,1.14-6.73,1.33-12,1.61l-3.41,.2c-5.74,.39-11.41,1.49-16.89,3.25-4.5,1.38-9.08,2.49-13.71,3.31-2.62,.44-10.2,.68-23.2,.68h.02Zm-336.68-6.84c-11.46-1.33-13.63-3.66-16.38-6.61-.48-.52-1-1-1.56-1.6-2.84-2.53-5.92-4.77-9.21-6.68-2.49-1.57-5.31-3.35-8.68-5.74-6.71-4.77-15.77-7.62-23.77-10.14l-1.38-.44-.14-.54c-2.68-10.78-5.25-20.57-5.28-20.67l-.32-1.23h1.27s3.76-.07,8-.07c5.72,0,9.6,.12,11.56,.35,2.13,.14,4.25,.47,6.31,.78,1.14,.17,2.24,.34,3.27,.46s2.06,.22,3,.3c2.92,.25,4.68,.41,5.36,1.47s.59,3.11,.41,6.43c-.11,2.07-.24,4.41,.06,5.27l.25,.7c.23,.95,.62,1.86,1.15,2.68,.54,.6,.65,1.48,.26,2.19-.31,.74-.35,1.56-.12,2.33,.72,2.09,4.89,4.56,7,4.95,.92,.09,1.84,.12,2.76,.09h2.52l6.93-.14,4-.07h5.47c1.34,.06,2,.16,2.35,.74s.14,1.38-.24,2.59c-.94,2.75-1.4,5.64-1.35,8.54v2.45c.06,3.74,.08,5.43-.36,6.32-.35,.58-.87,1.03-1.49,1.3-.45,.24-.73,.39-.82,.63-.09,.72-.02,1.45,.21,2.14l.34,1.39-1.38-.17h0Z" fill="none"></path></g><g id="Pattern_R1071_Rib_000"><path id="Option_R1071_Rib_000_1" d="M960.65,1960.23h-.81c-1,0-2-.1-3.11-.22-.54-.06-1.1-.13-1.68-.22-1.14-.16-2.36-.38-3.62-.63-6.13-1.34-12.17-3.06-18.09-5.15-1.76-.6-3.57-1.24-5.46-1.92s-3.83-1.39-5.84-2.14c-2.94-1.11-6-2.31-9.49-3.66-5.23-2.07-11.06-4.43-17.82-7.22-1.66-.69-3.48-1.53-5.4-2.5s-3.89-2-5.94-3.19c-1.35-.78-2.75-1.6-4.15-2.46-2.1-1.29-4.23-2.66-6.33-4.07s-4.23-2.92-6.25-4.42c-.69-.51-1.36-1-2-1.53-1.36-1-2.68-2.07-3.93-3.1-4.67-3.66-8.94-7.81-12.73-12.38-2.95-3.75-4.48-7-4.55-9.63,.04-1.36,.41-2.69,1.07-3.87,.48-.95,1.02-1.87,1.61-2.76,.54-.82,1.18-1.74,2-2.91,.35-.49,1.3-1.77,1.3-1.77l1.44-2c1.09-1.52,1.87-2.67,2.54-3.75,.15-.24,.3-.48,.44-.73,.54-.9,1.02-1.83,1.43-2.8,.22-.52,.4-1.06,.54-1.6-.76-1.5-4.13-4.62-7.7-7.92-7.89-7.31-18.71-17.32-19.9-25.77s-3.78-22.5-5.85-33.72c-1-5.22-1.85-10-2.49-13.66-2-11.53-11-45.94-11.14-46.29l-.32-1.23h1.27s3.76-.07,8-.07c5.72,0,9.6,.12,11.56,.35,2.13,.14,4.25,.47,6.31,.78,1.14,.17,2.24,.34,3.27,.46s2.06,.22,3,.3c2.92,.25,4.68,.41,5.36,1.47s.59,3.11,.41,6.43c-.11,2.07-.24,4.41,.06,5.27l.25,.7c.23,.95,.62,1.86,1.15,2.68,.54,.6,.65,1.48,.26,2.19-.31,.74-.35,1.56-.12,2.33,.72,2.09,4.89,4.56,7,4.95,.91,.09,1.83,.12,2.75,.09,2,0,4.71-.06,7.58-.12s6.11-.13,8.51-.13c1.29-.03,2.59,.02,3.88,.13,.58-1.34,1.29-2.62,2.12-3.82l1.68,1.08c-1.7,2.66-2.88,5.61-3.5,8.71-.29,1.35-.48,2.73-.58,4.11-.04,.55-.04,1.1,0,1.65,.22,3.28,.35,7.47-.32,8.83-.35,.58-.87,1.04-1.5,1.3-.44,.24-.72,.39-.81,.63-.16,.41,0,2.71,1.88,6.46,.22,.44,.47,.89,.73,1.36l.06,.1c.31,.53,.59,1,.9,1.49,3.38,5.27,8.48,10.12,12.68,12.07,4.4,2,10.92,3,16.16,3.76h.24c3.77,.55,9.41,2.82,16.76,6.75,1.11,.6,4.15,2.6,8,5.13,7.43,4.89,17.61,11.58,21.31,13,9.28,3.67,21.19,4.26,29.08,4.65,3.22,.16,5.77,.29,7.53,.56,3.82,.76,7.6,1.72,11.32,2.89,4.46,1.29,9.07,2.63,11.92,2.94l2.88,.34c2.01,.29,4.04,.47,6.07,.54h.17c2.52,0,3.17-.72,3.5-1.46,.38-.74,.66-1.53,.82-2.35-.46-.7-.41-1.61,.12-2.26,.2-.23,.43-.48,.69-.75,2.08-1.99,3.51-4.56,4.12-7.38l.39-2c1.08-5.58,2.09-10.84,3.51-14.33,1.47-3.65,7.85-19.79,8.94-22.87,.64-1.78,3.53-8.94,5.85-14.63l2.72-6.66c.13-.32,.31-.61,.54-.87h0c.58-.65,1.41-1.01,2.28-1,4,0,17.53,.17,22.52,.36,2.22,.08,5.16,.12,9.26,.12h12.8c1.26,0,4,0,7.39-.11,6.46-.12,16.23-.3,24.94-.3,10.15,0,16.48,.23,19.35,.72l2,.35c8,1.36,24.48,4.21,38.41,4.21h2.57c9.24-.26,16.09-.74,21.59-1.12,4-.28,7.12-.5,10-.56h4.53c1.5,0,3.13,.07,4.79,.07,3.36,0,13.6,0,15-3.91,1.27-3.6,1.08-4.43,1.07-4.46-.13-.31-.09-.66,.1-.94l.27-.42h.55c.8-.13,1.6-.18,2.41-.15,1,0,2.19,0,3.56,.07,1.73,0,3.68,.09,5.7,.09,3.32,.07,6.64-.17,9.91-.72,7-1.43,19.2-5.85,19.32-5.89l1,1.66c-1,1.21-5.37,15-10,29.52-9.11,28.51-21.59,67.56-27.93,75.32-11.07,13.54-50.28,15.79-51.94,15.88-6.1,.32-36.74,.87-58.62,.87-9.44,0-16.39-.1-20.65-.29-17-.74-69.55-2.34-79.13-2.34s-44.44-.12-49.22-.14c-1.26,1.88-6.29,9.47-11.33,17.87-.69,1.15-1.38,2.32-2.06,3.49l-1,1.75c-.67,1.18-1.33,2.35-2,3.5l-.94,1.73c-1,1.77-1.81,3.43-2.54,5-1.32,2.56-2.4,5.24-3.22,8-.29,1.12-.56,2.27-.82,3.42s-.49,2.31-.72,3.46c-.45,2.28-.85,4.54-1.23,6.68l-.4,2.23c-.54,3-1,5.39-1.54,7.39-.14,.52-.28,1-.43,1.47-.7,2.19-1.44,3.42-2.41,4-.98,.54-2.02,.94-3.11,1.18-1.26,.27-2.54,.42-3.82,.44l-.51-.06h0Z" fill="#FFFFFF"></path></g></g><g id="Group_R1071_Pockets_Body" link="pocket"><g id="Pattern_R1071_Pockets_Body_000"><path id="Option_R1071_Pockets_Body_000_1" d="M879.52,1775.08c-.26,0-.52-.09-.71-.27-1.23-.11-2.47-.15-3.71-.12-2.38,0-5.48,.06-8.47,.13s-5.6,.12-7.62,.12c-1.04,.04-2.08,0-3.11-.13-2.75-.5-7.55-3.34-8.56-6.25-.37-1.17-.34-2.43,.1-3.58,0-.1,.07-.22,.1-.33-.7-1-1.2-2.11-1.49-3.29l-.25-.7c-.43-1.23-.3-3.56-.17-6,.1-1.75,.25-4.68-.09-5.25-1.26-.34-2.56-.53-3.86-.56-.92-.08-1.94-.17-3-.3s-2.18-.3-3.34-.47c-2-.31-4.1-.63-6.2-.77-1.9-.23-5.81-.34-11.37-.34-4.23,0-7.93,.07-8,.07h-.31l-.26-.17c-.21-.14-1.25-1-1.38-3.53-.06-1.09,.1-2.18,.48-3.2,.12-.3,.19-.62,.22-.94,0-.27-.17-61.48-.17-61.48l.29-.38-.27-.07v-.77l-.8-279.82c-.24-.93-.39-1.87-.44-2.83v-.7c0-.18,0-.32,.06-.45l.12-.75,.1-.5,.18-.9,.91,.1c1.75,.19,3.63,.42,5.15,.59s2.48,.3,2.87,.33h1.82c1.05-.05,2.08,.28,2.9,.93,.58,.52,1.1,1.1,1.58,1.71,.87,1,1.85,2.22,2.78,2.49,.39,.1,.8,.15,1.2,.14h2.31c.9-.05,1.78,.17,2.56,.62,1.74,1.12,5,5,5.18,7.6,.08,.82,.21,1.64,.39,2.44,.87,4.23,1.29,8.55,1.26,12.87,0,4.91-.1,8.06-.17,10.36-.06,1.83-.1,3-.05,4.08,0,.78,.1,4.29,.19,9.16,.2,10.31,.5,25.89,.8,31.11,.42,7.41,5.24,37.34,9.93,51.21,4.76,14.05,8.47,23.54,11.35,29s29.9,42.57,32.24,45.5,23.7,24.4,26.95,27.24c.84,.73,1.94,1.63,3.11,2.59,5,4.08,8.55,7.12,8.92,9.1,.28,1.48,.55,22.4,.65,36.77v.16l-.05,.15c-6.37,20.2-11.14,36.1-11.37,37.6-.25,1.94-.39,3.89-.42,5.84-.03,2.77-.28,5.54-.76,8.27-.58,2.51-6.75,8.12-16.08,16.39-4,3.56-7.84,6.93-9.32,8.62-3.6,4.13-9.8,13.72-11.62,16.56-.93,1.33-1.68,2.76-2.25,4.28v.09l-.33,.57-.7,.06h0Z" fill="#FFFFFF"></path></g></g><g id="Group_R1071_Sleeves" link="sleeves"><g id="Pattern_R1071_Sleeves_000"><path id="Option_R1071_Sleeves_000_1" d="M1023.59,1859.42c-2.11-.07-4.21-.25-6.3-.55l-2.87-.34c-3-.33-7.72-1.69-12.26-3-3.64-1.14-7.33-2.09-11.07-2.83-1.66-.26-4.28-.39-7.32-.54-8-.4-20.13-1-29.72-4.79-3.88-1.53-14.16-8.29-21.67-13.23-3.65-2.4-6.81-4.48-7.85-5-7.14-3.82-12.56-6-16.1-6.54h-.24c-5.36-.78-12-1.76-16.72-3.93s-9.88-7.15-13.51-12.8c-3.34-5.19-4.41-9.58-3.75-11.23,.35-.75,.97-1.34,1.73-1.66,.24-.1,.46-.25,.65-.43,.23-.46,.45-2.92,.11-7.79-.04-.63-.04-1.27,0-1.9,.11-1.48,.31-2.95,.62-4.4,.66-3.34,1.95-6.52,3.78-9.39s8.1-12.56,11.8-16.79c1.56-1.79,5.24-5,9.49-8.81,6-5.28,15-13.26,15.46-15.34,.45-2.61,.69-5.25,.71-7.9,.03-2.04,.18-4.07,.45-6.09,.6-3.62,22.43-73.37,24.07-76.94s5.2-12.44,5.48-15.19c.29-2.91,3.49-19.11,5.94-24.33,1-2.19,2.25-4.36,3.32-6.26,1.21-1.96,2.24-4.03,3.07-6.18,.13-.44,.35-1.17,.64-2.11,1.66-5.35,5.54-17.87,6.06-22,1.58-12.69,3.69-14.56,5.38-16.07,1-.91,1.78-1.58,2.22-5.58,0-1.18,.91-30.92,3.61-36.61,1.18-2.49,3.61-5.64,6.19-9,3.23-4.18,6.58-8.52,7.2-11.3,.44-2-.6-4.52-1.81-7.43-1.65-4-3.51-8.46-2.28-13.37s5.57-9.73,9.06-13.62c2.44-2.73,4.75-5.3,5-6.77,.14-1-.4-2.77-1.09-5.06-3.57-10.74-4.3-22.22-2.12-33.32,1.54-8.59,6.14-15.65,9.83-21.32,2.46-3.77,4.57-7,4.79-9.32,.26-2.74-1.24-6-2.83-9.52-1.76-3.84-3.75-8.2-3.9-12.89-.1-3-.17-6.18-.24-9.4-.12-6.15-.25-12.52-.64-18.08-.48-4.74-1.31-9.44-2.49-14.06-1-3.95-1.73-7.96-2.19-12-.36-4.47-.36-8.95,0-13.42,.06-1,.13-2.16,.18-3.39,.13-2.57-.63-5.74-1.58-9.74-1.81-7.03-3-14.22-3.54-21.46l-.41-5.82c-1.47-20.72-4.54-63.82-4.27-76.8,.18-8.74,.68-37.94-.29-47-.31-2.92-1.7-9.92-3.3-18-3-15-6.68-33.75-7.24-44.09-.41-7.5-.62-21.22-.83-34.49-.21-13.51-.46-28.82-.89-30.25-.82-1.98-1.74-3.92-2.76-5.81-3.21-6.35-8.06-15.94-8.69-21.37-.9-7.86-5.68-15.39-6.81-16.83l-3-3.73c-7.81-9.68-26.08-32.33-29.83-37.89l-1.07-1.59c-3.9-5.72-12-17.63-16.72-28.58-.24-.56-.48-1.1-.72-1.63-1.61-3.68-3-6.85-3.17-10.43-1-23.19,5.71-58.07,9.57-68.58l1.67-4.51c2.41-6.48,3.31-8.9,4.14-13.19,1.09-5.57,4.05-18.44,7.52-27.25,1.05-2.66,2.47-6.62,4.12-11.21,3.83-10.66,8.59-23.93,11.61-29,3.79-6.41,16.91-28.19,26.44-39.36,9-10.57,22.59-28,27.61-34.91,2.54-3.5,5.36-12.46,7.85-20.36l.46-1.44,.15-.16c.94-1.06,2.06-1.95,3.3-2.63,4.94-2.62,10.8-4.21,16-5.62,2.84-.78,5.51-1.51,7.87-2.34,1.5-.54,3.33-1.21,5.34-2,7-2.59,16.54-6.14,23.1-7.52,3.7-.77,11.3-2.19,19.35-3.69,10.29-1.91,20.92-3.89,25.2-4.86,3.21-.79,6.38-1.74,9.49-2.86,3.85-1.42,7.82-2.52,11.85-3.3,4.73-.81,9.29-1.21,13.7-1.59,2.87-.26,5.58-.49,8.3-.83,1.88-.24,3.75-.44,5.52-.63,4.53-.5,8.81-1,10.43-1.7,.67-.3,1.4-.44,2.13-.43,.89,.03,1.78,.13,2.65,.31l.41,.07,.24,.34c1.69,2.42,3.38,9.91,3.55,11.48,.16,1.38,1.67,6.25,2.67,9.47,.37,1.18,.7,2.23,.92,3l.18,.59c1.1,3.71,4.48,15,4.69,22.38,.39,8.38,1.3,16.73,2.73,25,1,5.46,7.29,29.22,7.55,30.23,1.15,4.36,4.86,20.42,5.51,24.57,.27,2.15,.43,4.32,.46,6.49,.01,3.02,.29,6.03,.84,9,.57,2.37,4,11.15,7.57,20.44,3.33,8.63,6.79,17.54,8.87,23.59,6.71,19.44,10.2,30.91,10.37,34.07,0,.74,.08,1.67,.13,2.68,.16,3.64,.47,10.4,1.08,11.64,.78,1.55,3.6,8.39,3.84,12.68,.06,1,.22,2.65,.42,4.74,.89,7.93,1.34,15.89,1.34,23.87,0,2.22,0,4.2-.06,6,0,7.57-.06,12.14-2.4,19.53-1.32,4.16-4.86,12.69-8.27,20.94s-7.7,18.59-7.71,20c.07,.83,.12,3,.18,5.67,.12,5.19,.28,12.3,.76,15.24,.23,1.41,.47,2.69,.7,3.89,.57,2.61,.93,5.27,1.06,7.94-.04,2.83-.22,5.66-.54,8.48-.64,5.88-.95,11.8-.92,17.72,.15,4.66,1.58,11.66,3,18.43s2.74,13.37,2.88,17.86c.27,8.13-.67,30-1.17,41.71l-.14,3.29c-.28,4.57-.79,9.12-1.54,13.64-1.01,5.61-1.52,11.3-1.53,17v2.09c.39,13.23,1.55,53.49,1.41,69.51-.09,9.89-1.17,39.11-2,62.58-.63,16.9-1.17,31.49-1.17,34.29,0,6.48-.56,58.56-2.64,73.45-1.47,10.51-9.08,39.34-15.2,62.51-2.41,9.13-4.68,17.76-6.19,23.79-5.18,20.74-44.72,134.83-51.58,148.88-6.19,12.65-19.25,45.16-21.59,54.54-2,7.87-7.77,26.41-11.24,37.49-.66,2.11-1.23,3.91-1.65,5.29-1.87,6-6.85,18.64-10.86,28.8-1.68,4.27-3.14,8-4.09,10.48-2.55,6.71-14.87,35.19-21.49,50.5-1.82,4.21-3.25,7.51-4,9.25-1.11,2.58-2.52,5.57-4,8.72-1.69,3.59-3.45,7.3-4.88,10.7-.41,.86-.96,1.65-1.62,2.34-.08,.08-.14,.18-.18,.29l-2.72,6.66c-3.31,8.14-5.32,13.17-5.81,14.55-1.11,3.09-7.5,19.28-9,22.94-1.34,3.31-2.34,8.48-3.4,13.95l-.39,2c-.67,3.18-2.28,6.08-4.61,8.34-.21,.22-.39,.43-.56,.62,.45,.61,.48,1.54-.71,4.2-1.21,2.26-3.61,2.56-5.62,2.56h0Z" fill="#FFFFFF"></path></g></g><g id="Group_R1071_Body" link="body"><g id="Pattern_R1071_Body_000"><path id="Option_R1071_Body_000_1" d="M1193.94,1788.15c-14.1,0-30.75-2.87-38.75-4.24l-2-.35c-2.73-.46-9.12-.69-19-.69-8.69,0-18.45,.18-24.9,.3-3.44,.06-6.15,.11-7.43,.11h-12.8c-4.13,0-7.09,0-9.33-.12-5-.19-18.43-.32-22.44-.36h0c-.31,0-.6,.14-.8,.37l-.85-.71-.8-.39,.08-.15,.12-.12c.5-.51,.91-1.11,1.23-1.75,1.45-3.43,3.21-7.16,4.91-10.77,1.49-3.14,2.89-6.11,4-8.66l4-9.25c6.61-15.29,18.92-43.75,21.45-50.42,1-2.53,2.42-6.22,4.1-10.5,4-10.13,9-22.73,10.81-28.66,.42-1.38,1-3.18,1.65-5.29,3.46-11.06,9.25-29.57,11.21-37.39,2.43-9.74,15.41-42,21.73-54.93,6.57-13.44,46.47-128.62,51.44-148.48,1.51-6,3.79-14.68,6.2-23.82,6.1-23.12,13.69-51.89,15.15-62.27,2.05-14.67,2.62-67.63,2.62-73.18,0-2.84,.54-17.44,1.17-34.36,.88-23.46,2-52.66,2-62.53,.14-16-1-56.23-1.4-69.45l-.06-2.07c0-5.82,.52-11.64,1.55-17.37,.74-4.45,1.25-8.94,1.52-13.44l.14-3.28c.5-11.71,1.44-33.51,1.18-41.57-.15-4.31-1.52-11-2.85-17.52-1.4-6.85-2.86-13.93-3-18.77-.03-6.01,.29-12.02,.93-18,.32-3.56,.59-6.65,.54-8.23-.12-2.57-.46-5.12-1-7.63-.23-1.23-.48-2.52-.71-4-.49-3.06-.66-10.25-.78-15.5-.06-2.56-.11-4.78-.18-5.56-.13-1.41,2.3-7.45,7.86-20.88,3.4-8.21,6.91-16.7,8.21-20.79,2.25-7.09,2.27-11.55,2.31-18.93,0-1.81,0-3.79,.06-6,0-7.9-.45-15.79-1.33-23.64-.21-2.1-.37-3.77-.43-4.82-.2-3.67-2.67-10-3.63-11.9-.74-1.5-1-6.31-1.29-12.44,0-1-.09-1.92-.13-2.66-.11-2.05-2-9.52-10.26-33.53-2.07-6-5.52-14.91-8.85-23.52-3.78-9.76-7-18.19-7.64-20.7-.59-3.1-.89-6.25-.9-9.41-.03-2.09-.17-4.18-.43-6.25-.65-4.11-4.33-20-5.47-24.38-.67-2.53-6.54-24.9-7.59-30.36-1.44-8.36-2.37-16.81-2.76-25.29-.2-7.11-3.52-18.22-4.61-21.87l-.18-.59c-.22-.74-.54-1.78-.91-2.95-1.1-3.23-2.02-6.52-2.75-9.85-.18-1.65-1.71-8-3-10.23l-.47-.1,.05-.54-1.23-1.76,2.48,.53c1.77,.31,3.56,.48,5.36,.5h1.36c4-.3,8.51-.66,15.48-1.55h.38l.32,.22c2.64,1.63,4.87,3.86,6.5,6.5,.95,1.93,1.53,4.02,1.71,6.17,.09,.73,.22,1.45,.39,2.16,.85,1.22,1.62,2.49,2.32,3.8,0,.1,.33,.64,.83,1.56,13.79,25.91,46.82,89.75,55.64,122.85l1.27,4.73c10,37.27,20.26,75.8,30.81,173.67,6.52,60.5,7.53,108.08,8.07,133.64,.2,9.8,.35,16.88,.71,20.46,1.24,12.37,5.68,79.51,7,128,.22,8,.69,19.51,1.23,32.79,.92,22.86,2.07,51.31,2.72,79.68,1.22,53.33,1.13,105.46,.88,113-.08,2.54-.39,15.37-.85,34.79-.88,36.69-2.34,98.09-4,159.69-.36,13.41-.13,26.72,.09,39.6,.3,17.64,.58,34.31-.53,50.88-2.05,30.57-4.37,59.23-10.09,73.87,0,1.08-.12,5.73-3,8.44l-.15,.15-.2,.07c-.5,.18-12.44,4.51-19.6,6-3.4,.58-6.86,.84-10.31,.76-2,0-4,0-5.75-.09-1.35,0-2.55-.07-3.51-.07h-1.33c-.19,1.6-.59,3.16-1.19,4.65-1.63,4.62-9.44,5.24-16.87,5.24-1.68,0-3.32,0-4.83-.07h-4.49c-2.82,.06-5.94,.28-9.89,.55-5.52,.39-12.4,.87-21.67,1.13-.81,.07-1.68,.09-2.57,.09h0Zm-263.49-111.8c-.13-18.58-.41-35.25-.61-36.42-.27-1.42-5.25-5.49-8.23-7.92-1.18-1-2.29-1.88-3.15-2.63-3.42-3-24.73-24.42-27.2-27.5s-29.44-40.11-32.45-45.82-6.68-15.15-11.47-29.3-9.6-44-10-51.74c-.3-5.25-.6-20.86-.8-31.19-.08-4.66-.15-8.34-.19-9.1,0-1.12,0-2.36,.05-4.24,.07-2.28,.17-5.41,.17-10.29,.03-4.19-.38-8.38-1.23-12.49-.19-.9-.34-1.81-.42-2.72-.08-1.68-2.79-5.07-4.26-6-.45-.24-.97-.35-1.48-.31h-2.31c-.6,.01-1.19-.06-1.77-.22-1.5-.45-2.69-1.87-3.74-3.13-.42-.47-.88-.92-1.36-1.33-.46-.35-1.04-.51-1.62-.46h-1.54c-.15,.01-.31,.01-.46,0-.4,0-1.5-.16-2.92-.33s-3.39-.4-5.14-.59l-1.11-.12,.25-1.09,.18-.85c.07-2.22,1.46-43.94,2.78-96.93,.76-30.76,1.57-65.13,2.31-96.94,1.3-55.39,2.43-103.23,2.81-110.57,1.6-30.24,5.66-87.36,15-130.16,10-45.51,28.54-104.71,37.47-133.16l1.55-4.92c4.85-15.49,12.88-39.19,20.65-62.1,9.3-27.44,18.91-55.79,19.3-59.28l-.42-.19c-1.18-.49-3.37-1.42-4.15-5.31-.64-2.45,.27-5.03,2.3-6.54,.15-.12,.29-.25,.42-.39l.21-.49h.5c4.79-.91,16.83-5.07,24.05-10.16s24.94-20.19,34.38-28.47c9.16-8,34.67-26.48,37.12-27.6,1.29-.87,2.44-1.94,3.39-3.18l.35,.18-.28-.27,.29-.32h1l.56,1.09-.26,.37-.34,1.06c-2.53,8-5.41,17.17-8.14,20.93-5,6.93-18.66,24.43-27.71,35-9.43,11-22.47,32.71-26.24,39.08-2.92,4.94-7.65,18.1-11.45,28.68-1.65,4.6-3.08,8.58-4.14,11.27-3.41,8.68-6.34,21.39-7.41,26.9-.87,4.45-1.85,7.1-4.23,13.51l-1.67,4.5c-3.39,9.23-10.48,44.42-9.45,67.81,.14,3.19,1.47,6.21,3,9.7l.72,1.65c4.65,10.77,12.68,22.57,16.54,28.25l1.08,1.59c3.7,5.49,22.61,28.93,29.73,37.75l3,3.75c1.9,2.42,6.36,10.27,7.23,17.85,.59,5.07,5.34,14.47,8.48,20.69,1.08,1.99,2.05,4.03,2.9,6.13,.49,1.62,.68,12.76,1,30.8,.2,13.25,.42,26.95,.83,34.41,.55,10.2,4.4,29.63,7.2,43.81,1.68,8.48,3,15.18,3.33,18.19,1,9.18,.48,38.48,.3,47.25-.27,12.89,2.8,55.94,4.27,76.63l.41,5.81c.53,7.13,1.7,14.2,3.48,21.13,1,4.16,1.78,7.45,1.64,10.31-.06,1.23-.12,2.35-.18,3.4-.35,4.38-.35,8.77,0,13.15,.46,3.94,1.18,7.85,2.15,11.7,1.2,4.72,2.04,9.52,2.54,14.36,.38,5.61,.52,12,.64,18.18,.07,3.21,.14,6.37,.24,9.37,.14,4.29,2,8.28,3.72,12.13s3.32,7.27,3,10.53c-.26,2.8-2.4,6.08-5.1,10.23-3.6,5.52-8.07,12.4-9.54,20.59-2.12,10.79-1.41,21.94,2.06,32.38,.82,2.72,1.36,4.52,1.16,5.92-.29,2.08-2.57,4.61-5.45,7.82-3.35,3.73-7.51,8.37-8.61,12.77s.66,8.44,2.19,12.12c1.28,3.09,2.49,6,1.91,8.64-.72,3.21-4.2,7.72-7.57,12.09-2.51,3.24-4.88,6.31-6,8.61-2,4.24-3.11,25.33-3.41,35.89-.5,4.51-1.47,5.67-2.89,6.94s-3.24,2.88-4.73,14.81c-.54,4.33-4.46,17-6.13,22.38-.29,.93-.51,1.65-.64,2.08-.86,2.3-1.95,4.51-3.24,6.59-1,1.88-2.25,4-3.25,6.13-2.32,4.94-5.49,20.92-5.76,23.68-.33,3.27-4.12,12.52-5.65,15.83-.75,1.63-5.89,17.53-12.5,38.67l-1.84-.3h0Z" fill="#FFFFFF"></path></g></g><g id="Group_R1071_Hood" link="hood"><g id="Pattern_R1071_Hood_000"><path id="Option_R1071_Hood_000_1" d="M907.52,684.44c-1.32-2.16-2.25-4.52-2.76-7-.29-1.13-.59-2.3-1-3.44-2.93-8.15-5.09-15.69-7-22.34-1.21-4.26-2.26-7.94-3.34-11.16-5.14-15.41-16.67-37.63-16.78-37.85-14.79-23.23-24.14-38.36-29.06-52.13-1.53-4.33-2.58-8.52-3.58-12.52-.78-3-1.51-5.93-2.38-8.52-.55-1.66-2.07-5.5-4.17-10.81-5.57-14.11-14.91-37.71-22.83-62.2-9.8-30.3-13.3-40.42-21-62.61l-3-8.77c-4.45-12.89-11.32-30.27-18.59-48.68-8.84-22.36-18-45.48-22.43-60-4.81-15.61-12.3-24-17.77-30.12-3.58-4-6.16-6.91-6.28-10.14,0-3.86,4.3-6.46,8.43-9l.83-.5c.77-.95,4.32-5.2,6.73-6.3,1.07-.47,2.23-.74,3.4-.79,.7,0,1.38-.15,2-.47,.7-.42,7-5.74,13.09-10.89,8-6.75,17-14.4,22-18.34,7.33-5.78,18.62-13.66,25.36-18.37,1.9-1.32,3.47-2.42,4.54-3.18s3.18-2.37,6.14-4.62c10.6-8.07,32.65-24.86,50.22-35.59s24.77-13.64,28.7-15.23c1.07-.44,1.93-.79,2.65-1.16,1.73-.88,3.28-1.87,4.92-2.91,3.89-2.62,8.11-4.73,12.55-6.25,13.49-4.55,25.26-6.7,35.64-8.6,4.69-.86,9.13-1.67,13.3-2.62l4.72-1.11c10-2.35,15-3.54,31.37-3.86,.26,0,22.57,.24,34.51,2.28,1.17,.2,2.67,.46,4.45,.75,16.72,2.8,55.88,9.36,68.93,14.68,10.69,4.36,45.61,34.29,65.25,60.17,22,29.05,34.2,76.63,35.54,94.48s1.23,45.62-.22,60.76c-1.52,15.84-9.31,56.8-15.56,89.71-3.94,20.7-7.34,38.6-8,44.27-.14,9.36-.85,18.94-1.6,29.1-2.26,30.54-4.6,62.11,8.53,90.41l2.71,1.92-2.55,.32c-7,.9-11.72,1.28-15.59,1.56-.6,0-1.21,.07-1.8,.07-1.78-.02-3.55-.2-5.3-.54-.81-.16-1.63-.26-2.45-.3-.45-.01-.89,.07-1.3,.25-1.92,.87-6,1.31-11.05,1.86-1.76,.2-3.61,.4-5.48,.63-2.76,.35-5.49,.59-8.38,.84-4.37,.38-8.89,.77-13.53,1.57-3.93,.75-7.8,1.83-11.55,3.23-3.18,1.14-6.41,2.11-9.69,2.91-4.31,1-15,3-25.27,4.88-8,1.5-15.64,2.91-19.31,3.68-6.41,1.35-15.89,4.87-22.81,7.44-2,.75-3.86,1.43-5.38,2-2.42,.86-5.13,1.6-8,2.39-5.32,1.45-10.82,2.94-15.57,5.46-1.39,.81-2.6,1.87-3.59,3.14-.87,1.16-1.99,2.12-3.27,2.81-2.33,1.06-27.87,19.59-36.63,27.28-9.47,8.31-27.22,23.43-34.55,28.6s-19.88,9.56-24.75,10.49l-1.85,.25,.49-1.27h0Z" fill="#FFFFFF"></path></g></g></g><g id="custom_badge-positions"><g id="Left_Sleeve_Upper"><rect x="1003.77" y="881" width="207" height="400" fill="none"></rect></g><g id="Left_Sleeve_Cuff"><rect x="897.02" y="1707.78" width="169.33" height="105.83" fill="none"></rect></g></g><image class="background-product" width="2048" height="2048" xlink:href="https://media.reformclothing.com/design_lab/ysd-products/R1071_Hoodie/R1071_Hoodie_Fleece_Left_A_2048.png"></image><image width="2048" height="2048" class="decoration__preview-image" xlink:href="https://rendering.documents.cimpress.io/v1/dcl/preview?format=png&amp;width=2048&amp;instructions_uri=https%3A%2F%2Fuds.documents.cimpress.io%2Fv3%2Finstructions%3Apreview%3FdocumentUri%3DrZPBjtMwEED%252FJeedxm5sZ9zjViAhwYECJ8TBHo830TZNFadFq6r%252FznRhBVpYIVBPHs%252FYM09P9qk68lT6cVetquVCVTdVuT9IvH7zDvSr9%252B7Wb9aSzONu3vB%252BLP08Tg%252Bfpq0c6eZ5X1Z1famVRRrpMPAlon7YT1zKoh%252Fro66np2s9l7p13qJCBGqTBZOyBzQ%252BgCH0xvssa6z3h7jtS8dJBj%252B1rVanqhymHIhLtfp8qvokCITKsrEMOUQHRoUGovcKWm1NDkl57Z002YWB5fRGq1a%252FngR3LR15ksrXPs2dlBqlhkH2Hfd33XxxYb8nEtM4hVkEfWTqduN2vHuQcrkgDo%252F56nzzg8ajC2hbBOVQaDQqQB0RsFE%252BRx214ec0H7bMR948Dv1Jo5sr0GQbrDUqAVEmMKZpILSYIOfWsSNLjtuXaZa%252F4OAzmv%252BAwYbtkmQ6Ja3BOLESsdHgWpfMsnFLHf6s5i3nq5tRxpsgLiBFeX%252FGKQsBmUBn5MCRIlp6EebaYjzZGDKD0xzB8OVDkENgL6aC8bn5TcxtoPu%252FP2DzDzBfzudv&amp;scene=https://scene.products.cimpress.io/v1/scenes/61a8b290-7f22-40fa-8d64-c9ab76890abe"></image>
 <text class="svgText" x="54%" y="57%" dominant-baseline="middle" text-anchor="middle" font-size="50" fill="black"></text>

 <image class="custom-logo" href="" x="50%" y="50%" width="150" height="150" />
</svg>